<svg width="1682" height="829" viewBox="0 0 1682 829" fill="none" xmlns="http://www.w3.org/2000/svg">
<path d="M1682.39 382.462V828.105H1642.31C1594.16 828.105 1559.07 784.136 1534.96 742.464C1512.94 704.43 1473.99 680.99 1433.11 667.753C1388.51 653.285 1338.31 661.593 1295.79 643.871C1277.28 636.163 1260.72 621.537 1255.23 602.267C1250.17 584.418 1255.04 565.496 1256.93 547.016C1258.8 528.567 1256.33 507.212 1241.42 496.187C1226.04 484.783 1204.56 489.237 1186.05 494.197C1155.62 502.347 1090.96 534.38 1070.14 493.376C1055.83 465.197 1087.48 436.45 1097.31 406.376C1107.73 374.375 1090.93 338.173 1064.3 317.576C1037.67 296.979 1003.3 289.303 969.811 285.923C944.444 283.364 918.477 282.827 894.436 274.424C870.365 266.021 847.873 247.604 843.039 222.584C833.278 172.072 895.195 136.375 906.946 86.3043C914.275 55.1248 899.965 21.9552 876.304 0H1028.38C1011.86 53.3875 1021.43 124.465 1086.13 132.9C1152.47 142.377 1228.28 79.1966 1278.83 139.218C1316.73 183.444 1269.35 256.102 1329.37 287.692C1402.03 322.441 1474.68 281.374 1547.34 284.533H1547.82C1572.17 284.631 1593.41 301.007 1600.34 324.352C1618.67 386.064 1651.32 367.267 1682.39 382.462Z" fill="#29C1C2"/>
<path d="M1682.39 634.647V828.105C1667.47 828.105 1654.49 828.105 1642.3 828.105C1594.16 828.105 1559.07 784.136 1534.96 742.464C1512.94 704.43 1473.99 680.99 1433.11 667.753C1388.51 653.285 1338.31 661.593 1295.79 643.871C1277.28 636.163 1260.72 621.537 1255.23 602.267C1250.17 584.418 1255.04 565.496 1256.93 547.016C1258.8 528.567 1256.33 507.212 1241.42 496.187C1226.04 484.783 1204.56 489.237 1186.05 494.197C1155.62 502.347 1090.96 534.38 1070.14 493.376C1055.83 465.197 1087.48 436.45 1097.31 406.376C1107.73 374.375 1090.93 338.173 1064.3 317.576C1037.67 296.979 1003.3 289.303 969.811 285.923C944.444 283.364 918.477 282.827 894.436 274.424C870.365 266.021 847.873 247.604 843.039 222.584C833.278 172.072 895.195 136.375 906.946 86.3044C914.275 55.1249 899.965 21.9552 876.304 0H961.755C965.925 31.5902 963.872 65.4548 958.912 83.9035C949.814 117.642 927.638 150.717 936.104 184.645C945.581 222.679 990.028 241.444 1029.23 241.286C1068.44 241.128 1106.72 228.018 1145.93 228.05C1176.79 228.081 1211.13 239.264 1224.46 267.095C1247.27 314.67 1194.64 367.299 1200.04 419.77C1205.22 470.157 1262.24 499.662 1312.88 500.61C1363.52 501.557 1412.93 483.772 1463.57 482.824C1501.54 482.129 1544.75 495.081 1560.17 529.799C1566.83 544.867 1567.34 562.084 1573.91 577.153C1586.2 605.3 1617.06 620.558 1646.88 627.76C1658.6 630.603 1670.51 632.593 1682.39 634.647Z" fill="#15ADAE"/>
<path d="M1308.44 662.102C1308.44 662.102 1209.44 669.026 1087.31 669.026C965.183 669.026 866.179 662.102 866.179 662.102C866.179 662.102 965.183 655.181 1087.31 655.181C1209.44 655.181 1308.44 662.102 1308.44 662.102Z" fill="#01999A"/>
<path d="M1485.92 402.396H1195.99V223.232H1485.92V402.396Z" fill="#48C1B4"/>
<path d="M1473.78 391.469H1208.13V234.159H1473.78V391.469Z" fill="white"/>
<path d="M1451.85 370.42V296.25H1437.2V370.42H1427.79V316.445H1413.14V370.42H1403.73V291.963H1389.08V370.42H1379.67V280.527H1365.02V370.42H1355.61V316.445H1340.95V370.42H1329.6V269.183H1326.39V373.639H1462.64V370.42H1451.85Z" fill="#302F31"/>
<path d="M1305.42 264.176H1222.79V259.172H1305.42V264.176Z" fill="#48C1B4"/>
<path d="M1305.42 278.471H1222.79V273.467H1305.42V278.471Z" fill="#48C1B4"/>
<path d="M1263.39 292.762H1222.79V287.758H1263.39V292.762Z" fill="#48C1B4"/>
<path d="M1276.15 350.121V364.415L1268.76 371.693H1254.58V350.121H1276.15Z" fill="#48C1B4"/>
<path d="M1276.15 364.415L1268.76 371.693V364.415H1276.15Z" fill="#39A89E"/>
<path d="M1245.2 350.121V371.693H1223.62V350.121H1245.2Z" fill="#FF512F"/>
<path d="M1444.53 276.152L1432.09 279.273L1435.43 282.726L1420.35 297.34L1368.86 257.242L1343.23 276.474L1345.15 279.046L1368.83 261.292L1420.58 301.595L1437.67 285.035L1441.02 288.488L1444.53 276.152Z" fill="#48C1B4"/>
<path d="M1252.29 322.425C1252.29 330.569 1245.68 337.175 1237.54 337.175C1229.39 337.175 1222.79 330.569 1222.79 322.425C1222.79 314.281 1229.39 307.679 1237.54 307.679C1245.68 307.679 1252.29 314.281 1252.29 322.425Z" fill="#015656"/>
<path d="M1244.64 328.058C1243.87 327.486 1242.96 327.006 1241.93 326.646C1242.21 325.521 1242.38 324.264 1242.41 322.928H1246.59C1246.48 324.864 1245.77 326.633 1244.64 328.058ZM1239.4 331.299C1240.34 330.557 1241.13 329.261 1241.66 327.603C1242.54 327.913 1243.33 328.32 1243.99 328.797C1242.76 330.039 1241.17 330.929 1239.4 331.299ZM1238.04 330.907V326.94C1238.97 326.974 1239.87 327.104 1240.7 327.312C1240.08 329.223 1239.12 330.582 1238.04 330.907ZM1238.04 322.928H1241.4C1241.37 324.15 1241.21 325.309 1240.96 326.352C1240.05 326.115 1239.07 325.967 1238.04 325.929V322.928ZM1238.04 319.029C1239.08 318.995 1240.06 318.843 1240.99 318.603C1241.22 319.617 1241.37 320.742 1241.4 321.92H1238.04V319.029ZM1238.04 313.943C1239.14 314.275 1240.11 315.671 1240.72 317.636C1239.89 317.854 1238.99 317.987 1238.04 318.025V313.943ZM1244.03 316.107C1243.37 316.6 1242.58 317.02 1241.69 317.339C1241.16 315.64 1240.36 314.31 1239.4 313.555C1241.2 313.928 1242.8 314.837 1244.03 316.107ZM1246.59 321.92H1242.41C1242.38 320.625 1242.22 319.402 1241.96 318.3C1242.99 317.933 1243.91 317.44 1244.68 316.85C1245.79 318.265 1246.48 320.015 1246.59 321.92ZM1237.04 318.025C1236.09 317.987 1235.19 317.854 1234.35 317.636C1234.96 315.671 1235.94 314.275 1237.04 313.943V318.025ZM1237.04 321.92H1233.67C1233.71 320.742 1233.85 319.617 1234.09 318.603C1235.01 318.843 1236 318.995 1237.04 319.029V321.92ZM1237.04 325.929C1236.01 325.967 1235.03 326.115 1234.11 326.352C1233.86 325.309 1233.71 324.15 1233.67 322.928H1237.04V325.929ZM1237.04 330.907C1235.95 330.582 1235 329.223 1234.38 327.312C1235.21 327.104 1236.1 326.974 1237.04 326.94V330.907ZM1231.1 328.797C1231.75 328.32 1232.53 327.913 1233.41 327.603C1233.95 329.261 1234.74 330.553 1235.68 331.299C1233.9 330.929 1232.32 330.039 1231.1 328.797ZM1228.49 322.928H1232.67C1232.7 324.264 1232.87 325.521 1233.14 326.646C1232.12 327.003 1231.21 327.486 1230.44 328.058C1229.31 326.633 1228.6 324.864 1228.49 322.928ZM1230.39 316.85C1231.16 317.44 1232.09 317.933 1233.12 318.303C1232.86 319.402 1232.69 320.625 1232.67 321.92H1228.49C1228.59 320.015 1229.29 318.265 1230.39 316.85ZM1235.68 313.555C1234.72 314.31 1233.92 315.64 1233.38 317.339C1232.49 317.02 1231.7 316.6 1231.04 316.107C1232.28 314.837 1233.88 313.928 1235.68 313.555ZM1237.54 312.057C1231.81 312.057 1227.17 316.698 1227.17 322.425C1227.17 328.153 1231.81 332.793 1237.54 332.793C1243.26 332.793 1247.91 328.153 1247.91 322.425C1247.91 316.698 1243.26 312.057 1237.54 312.057Z" fill="white"/>
<path d="M1287.8 322.425C1287.8 330.452 1281.3 336.96 1273.27 336.96C1265.24 336.96 1258.74 330.452 1258.74 322.425C1258.74 314.398 1265.24 307.894 1273.27 307.894C1281.3 307.894 1287.8 314.398 1287.8 322.425Z" fill="#FF512F"/>
<path d="M1273.27 326.197C1271.18 326.197 1269.49 324.51 1269.49 322.425C1269.49 320.34 1271.18 318.65 1273.27 318.65C1275.35 318.65 1277.04 320.34 1277.04 322.425C1277.04 324.51 1275.35 326.197 1273.27 326.197ZM1281.83 320.454H1280.02C1279.88 319.958 1279.68 319.484 1279.44 319.042L1280.72 317.769C1281.07 317.415 1281.07 316.846 1280.72 316.493L1279.2 314.979C1278.85 314.629 1278.28 314.629 1277.93 314.979L1276.66 316.256C1276.21 316.009 1275.73 315.817 1275.24 315.671V313.867C1275.24 313.368 1274.84 312.964 1274.34 312.964H1272.2C1271.7 312.964 1271.3 313.368 1271.3 313.867V315.671C1270.8 315.817 1270.33 316.009 1269.89 316.256L1268.61 314.979C1268.26 314.629 1267.69 314.629 1267.34 314.979L1265.83 316.493C1265.47 316.846 1265.47 317.415 1265.83 317.769L1267.1 319.042C1266.85 319.484 1266.66 319.958 1266.52 320.454H1264.71C1264.21 320.454 1263.81 320.858 1263.81 321.354V323.493C1263.81 323.992 1264.21 324.396 1264.71 324.396H1266.52C1266.66 324.889 1266.85 325.366 1267.1 325.809L1265.83 327.085C1265.47 327.435 1265.47 328.004 1265.83 328.358L1267.34 329.871C1267.69 330.222 1268.26 330.222 1268.61 329.871L1269.89 328.595C1270.33 328.838 1270.8 329.034 1271.3 329.179V330.983C1271.3 331.482 1271.7 331.883 1272.2 331.883H1274.34C1274.84 331.883 1275.24 331.482 1275.24 330.983V329.179C1275.73 329.034 1276.21 328.838 1276.66 328.595L1277.93 329.871C1278.28 330.222 1278.85 330.222 1279.2 329.871L1280.72 328.358C1281.07 328.004 1281.07 327.435 1280.72 327.085L1279.44 325.809C1279.68 325.366 1279.88 324.889 1280.02 324.396H1281.83C1282.32 324.396 1282.73 323.992 1282.73 323.493V321.354C1282.73 320.858 1282.32 320.454 1281.83 320.454Z" fill="white"/>
<path d="M1304.5 316.186H1298.45V310.134H1304.5V316.186Z" fill="#302F31"/>
<path d="M1314.33 316.186H1308.28V310.134H1314.33V316.186Z" fill="#302F31"/>
<path d="M1304.5 325.452H1298.45V319.399H1304.5V325.452Z" fill="#302F31"/>
<path d="M1314.33 325.452H1308.28V319.399H1314.33V325.452Z" fill="#FF512F"/>
<path d="M1304.5 334.717H1298.45V328.667H1304.5V334.717Z" fill="#FF512F"/>
<path d="M1314.33 334.717H1308.28V328.667H1314.33V334.717Z" fill="#FF512F"/>
<path d="M1522.88 364.26C1522.88 364.26 1496.22 385.653 1473.38 378.049C1450.53 370.442 1441.67 327.379 1441.67 327.379C1441.67 327.379 1446.78 318.581 1441.67 315.548C1441.67 315.548 1442.69 308.27 1437.58 307.663C1432.46 307.057 1412.34 313.122 1432.8 328.892C1432.8 328.892 1438.6 406.534 1482.59 409.264C1526.57 411.996 1526.02 400.908 1526.02 400.908L1522.88 364.26Z" fill="#FF5B39"/>
<path d="M1441.67 327.378C1441.67 327.378 1442.77 325.474 1443.43 323.139L1443.44 323.136C1448.15 321.689 1445.69 309.644 1443.62 307.622C1442.08 306.125 1439.93 307.142 1438.91 307.771C1437.88 305.755 1432.31 295.185 1429.23 296.155C1426.97 296.872 1429.25 304.081 1431.01 308.775C1424.4 311.189 1418.04 317.513 1432.8 328.892C1432.8 328.892 1433.43 337.339 1435.85 348.759C1439.69 347.937 1443.44 346.769 1447.08 345.255C1443.34 335.469 1441.67 327.378 1441.67 327.378Z" fill="#F5F1D4"/>
<path d="M1574.4 444.18L1555.19 468.568L1559.39 473.392L1584.68 453.149L1574.4 444.18Z" fill="#F5F1D4"/>
<path d="M1536.17 358.179C1536.17 358.179 1567.16 361.37 1574.13 371.551C1581.1 381.736 1606.26 409.071 1603.61 429.977C1600.96 450.881 1589.14 457.044 1589.14 457.044L1574.4 444.18C1574.4 444.18 1584.05 436.409 1582.44 428.635C1580.83 420.864 1559.39 400.229 1559.39 400.229L1542.51 366.462L1536.17 358.179Z" fill="#FF5B39"/>
<path d="M1603.81 657.483C1603.81 657.483 1563.18 663.255 1513.05 663.255C1462.93 663.255 1422.31 657.483 1422.31 657.483C1422.31 657.483 1462.93 651.706 1513.05 651.706C1563.18 651.706 1603.81 657.483 1603.81 657.483Z" fill="#01999A"/>
<path d="M1551.53 643.672L1552.34 648.588L1553.45 655.275L1525.41 662.247C1523.82 662.642 1522.58 660.845 1523.54 659.521C1524.88 657.679 1526.82 655.8 1528.89 654.072C1533.85 649.946 1539.57 646.645 1539.57 646.645L1551.53 643.672Z" fill="white"/>
<path d="M1503.04 643.672L1502.72 648.645L1502.3 655.408L1473.41 655.92C1471.78 655.948 1470.98 653.92 1472.21 652.843C1473.92 651.346 1476.23 649.952 1478.64 648.73C1484.41 645.824 1490.71 643.89 1490.71 643.89L1503.04 643.672Z" fill="white"/>
<path d="M1556.19 470.214C1556.19 470.214 1552.64 514.402 1542.95 553.725L1552.82 645.672L1537.34 647.251C1537.34 647.251 1521.36 586.886 1516.73 572.705C1511.52 556.783 1516.73 517.409 1516.73 517.409C1516.73 517.409 1503.04 547.603 1503.04 562.135C1503.04 576.669 1504.65 643.953 1504.65 643.953C1504.65 643.953 1494.33 646.822 1489.17 643.953C1484.01 641.085 1480 554.294 1480 554.294L1500.07 460.196C1500.07 460.196 1526.95 467.348 1556.19 470.214Z" fill="#161516"/>
<path d="M1563.4 473.483C1564.2 464.177 1567.07 402.203 1563.22 388.31C1554.62 357.269 1536.17 358.179 1536.17 358.179C1530.52 371.301 1518.69 362.428 1518.69 362.428C1518.69 362.428 1497.91 375.02 1504.79 409.425C1509.24 431.629 1500.23 451.967 1493.28 463.605C1513.69 477.761 1540.18 481.194 1563.4 473.483Z" fill="#FF5B39"/>
<path d="M1517.36 363.448C1517.36 363.448 1509.9 367.903 1509.86 371.87C1509.81 375.841 1514.81 382.093 1514.81 382.093L1522.14 373.696L1529.23 383.881C1529.23 383.881 1552.04 366.377 1537.04 356.767C1522.04 347.157 1517.36 363.448 1517.36 363.448Z" fill="white"/>
<path d="M1503.64 327.979C1503.64 327.979 1498.06 358.975 1515.03 358.656C1532 358.337 1538.3 346.137 1537.11 338.808C1535.92 331.479 1534.93 316.916 1520.38 315.137C1505.83 313.362 1503.64 327.979 1503.64 327.979Z" fill="#F5F1D4"/>
<path d="M1552.05 321.105C1550.92 318.887 1548.82 317.377 1546.75 316.006L1546.77 315.949C1546.82 314.544 1546.56 313.125 1546 311.833C1545.42 310.478 1544.52 309.278 1543.53 308.181C1543.78 309.853 1543.91 311.903 1543.54 313.549C1542.8 311.821 1542.04 310.042 1540.7 308.728C1539.76 307.818 1538.6 307.183 1537.42 306.627C1532.05 304.103 1525.98 303.089 1520.09 303.733C1518.74 303.882 1517.39 304.109 1516.04 304.04C1514.69 303.967 1513.3 303.553 1512.35 302.593C1513.03 304.356 1514.09 306.46 1515.57 307.622C1502.98 311.966 1504.81 324.109 1504.81 324.109C1508.91 322.523 1513.18 324.589 1513.18 324.589C1512.72 335.937 1533.76 341.319 1533.76 341.319C1536.87 338.344 1541.16 340.119 1541.16 340.119C1543.66 341.841 1543.66 343.929 1543.66 343.929C1548.43 340.489 1549.58 323.171 1549.58 323.171C1550.8 322.839 1552.13 322.931 1553.3 323.424C1552.75 322.732 1552.44 321.892 1552.05 321.105Z" fill="#161516"/>
<path d="M1532.59 345.726C1533.08 348.781 1535.96 350.86 1539.02 350.36C1542.08 349.864 1544.16 346.983 1543.66 343.929C1543.16 340.871 1540.28 338.795 1537.22 339.291C1534.17 339.787 1532.09 342.668 1532.59 345.726Z" fill="#F5F1D4"/>
<path d="M1535.9 344.08L1536.58 348.279C1536.58 348.279 1536.67 349.043 1536.76 350.272C1536.9 351.886 1537.06 354.3 1537.04 356.767C1537.02 360.593 1536.61 364.563 1535.14 365.931C1531.99 368.857 1520 369.422 1518.32 368.661C1517.8 368.421 1517.51 366.272 1517.36 363.448C1517.29 361.938 1517.25 360.248 1517.24 358.542H1517.25C1517.21 353.374 1517.41 348.184 1517.41 348.184L1535.9 344.08Z" fill="#F5F1D4"/>
<path d="M1536.76 350.272C1536.9 351.886 1537.06 354.3 1537.04 356.767C1532.31 358.953 1522.72 363.091 1517.36 363.448C1517.29 361.938 1517.25 360.248 1517.24 358.542H1517.25C1517.79 358.432 1534.66 354.97 1536.76 350.272Z" fill="#EAE1B3"/>
<path d="M1586.77 223.14H1523.62C1520.17 223.14 1517.38 225.924 1517.38 229.367V274.481C1517.38 277.924 1520.17 280.707 1523.62 280.707H1527.01V296.319L1542.63 280.707H1586.77C1590.21 280.707 1593.01 277.924 1593.01 274.481V229.367C1593.01 225.924 1590.21 223.14 1586.77 223.14Z" fill="#015656"/>
<path d="M1584.23 237.182H1526.15V232.027H1584.23V237.182Z" fill="white"/>
<path d="M1584.23 248.728H1526.15V243.573H1584.23V248.728Z" fill="white"/>
<path d="M1584.23 260.275H1526.15V255.119H1584.23V260.275Z" fill="white"/>
<path d="M1557.38 271.824H1526.15V266.669H1557.38V271.824Z" fill="white"/>
<path d="M1239.58 578.505H1167.41C1164.61 578.505 1162.34 576.233 1162.34 573.428C1162.34 570.623 1164.61 568.355 1167.41 568.355H1239.58C1242.38 568.355 1244.66 570.623 1244.66 573.428C1244.66 576.233 1242.38 578.505 1239.58 578.505Z" fill="#302F31"/>
<path d="M1208.32 636.021H1198.52V586.472H1208.32V636.021Z" fill="#EAE1B3"/>
<path d="M1211 597.8H1195.99V578.505H1211V597.8Z" fill="#F5F1D4"/>
<path d="M1233.09 639.932H1173.9V633.712H1233.09V639.932Z" fill="#302F31"/>
<path d="M1182.58 645.277C1182.58 648.228 1180.18 650.622 1177.23 650.622C1174.28 650.622 1171.89 648.228 1171.89 645.277C1171.89 642.326 1174.28 639.932 1177.23 639.932C1180.18 639.932 1182.58 642.326 1182.58 645.277Z" fill="#EAE1B3"/>
<path d="M1235.11 645.277C1235.11 648.228 1232.71 650.622 1229.76 650.622C1226.81 650.622 1224.41 648.228 1224.41 645.277C1224.41 642.326 1226.81 639.932 1229.76 639.932C1232.71 639.932 1235.11 642.326 1235.11 645.277Z" fill="#EAE1B3"/>
<path d="M1272.1 558.376C1271.38 543.37 1232.79 539.794 1232.79 539.794C1231.1 539.794 1214.84 539.895 1201.88 539.974C1188.92 539.895 1172.67 539.794 1170.97 539.794C1170.97 539.794 1132.38 543.37 1131.67 558.376C1130.95 573.384 1151.32 651.579 1151.32 651.579H1168.11C1168.11 651.579 1169.54 573.384 1165.26 570.525C1165.26 570.525 1185.97 570.184 1201.88 568.803C1217.8 570.184 1238.51 570.525 1238.51 570.525C1234.22 573.384 1235.65 651.579 1235.65 651.579H1252.44C1252.44 651.579 1272.81 573.384 1272.1 558.376Z" fill="#161516"/>
<path d="M1166.15 651.582L1165.78 656.131L1165.67 657.483L1165.28 662.304H1138.85C1137.36 662.304 1136.65 660.44 1137.79 659.474C1138.17 659.164 1138.58 658.851 1139.01 658.545C1140.4 657.556 1142.05 656.634 1143.75 655.809C1149.08 653.247 1154.88 651.582 1154.88 651.582H1166.15Z" fill="#302F31"/>
<path d="M1165.67 657.483L1165.28 662.304H1138.85C1137.36 662.304 1136.65 660.44 1137.79 659.474C1138.17 659.164 1138.58 658.851 1139.01 658.545C1144.88 658.864 1154.04 658.908 1165.67 657.483Z" fill="white"/>
<path d="M1239.14 651.582L1239.51 656.131L1239.62 657.483L1240 662.304H1266.44C1267.93 662.304 1268.63 660.44 1267.49 659.474C1267.11 659.164 1266.7 658.851 1266.28 658.545C1264.88 657.556 1263.23 656.634 1261.54 655.809C1256.21 653.247 1250.41 651.582 1250.41 651.582H1239.14Z" fill="#302F31"/>
<path d="M1239.62 657.483L1240 662.304H1266.44C1267.93 662.304 1268.63 660.44 1267.49 659.474C1267.11 659.164 1266.7 658.851 1266.28 658.545C1260.4 658.864 1251.25 658.908 1239.62 657.483Z" fill="white"/>
<path d="M1239.62 539.955L1239.01 540.237C1214 552.266 1184.97 552.734 1159.57 541.544C1159.57 541.544 1161.48 513.331 1167.22 479.659C1169.75 464.821 1173.05 448.935 1177.23 433.917L1177.27 433.904L1177.32 433.882C1178.23 433.531 1179.16 433.2 1180.09 432.887C1192 428.932 1204.86 428.922 1216.76 432.833C1217.77 433.168 1218.76 433.531 1219.76 433.917C1233.5 482.979 1239.62 539.955 1239.62 539.955Z" fill="#FF5B39"/>
<path d="M1177.27 433.904L1177.23 433.917C1173.05 448.935 1169.75 464.821 1167.22 479.659C1160.91 484.354 1152.99 491.054 1151.69 496.092C1150.97 498.86 1153.93 501.172 1158.26 503.049L1154.29 516.996H1145.33C1145.33 516.996 1126.53 511.259 1127.6 495.739C1128.67 480.215 1158.13 446.78 1162.33 440.885C1164.4 437.989 1171.05 435.588 1177.27 433.904Z" fill="#F54725"/>
<path d="M1182.58 516.996V508.969C1182.58 508.969 1167.37 506.991 1158.26 503.045L1154.29 516.996H1182.58Z" fill="#F5F1D4"/>
<path d="M1219.43 433.904L1219.77 433.917C1223.95 448.935 1226.95 464.821 1229.48 479.659C1235.79 484.354 1243.71 491.054 1245.01 496.092C1245.73 498.86 1242.77 501.172 1238.44 503.049L1242.41 516.996H1251.37C1251.37 516.996 1270.17 511.259 1269.1 495.739C1268.03 480.215 1238.57 446.78 1234.37 440.885C1232.3 437.989 1225.65 435.588 1219.43 433.904Z" fill="#F54725"/>
<path d="M1214.12 516.996V508.969C1214.12 508.969 1229.33 506.991 1238.44 503.045L1242.41 516.996H1214.12Z" fill="#F5F1D4"/>
<path d="M1239.14 516.996H1164.63V468.154H1239.14V516.996Z" fill="#302F31"/>
<path d="M1216.76 432.833C1215.94 437.925 1212.66 447.851 1199.6 447.851C1186.57 447.851 1181.72 437.989 1180.09 432.887C1181.22 432.514 1182.37 432.17 1183.53 431.869C1193.45 429.232 1203.88 429.263 1213.78 431.945C1214.78 432.211 1215.77 432.514 1216.76 432.833Z" fill="#F5F1D4"/>
<path d="M1213.78 431.945C1210.25 435.749 1204.2 440.98 1197.54 441.151C1189.79 441.346 1185.33 435.139 1183.53 431.869C1193.45 429.232 1203.88 429.263 1213.78 431.945Z" fill="#EAE1B3"/>
<path d="M1217.16 414.526C1217.16 427.677 1208.73 438.339 1198.32 438.339C1187.91 438.339 1179.47 427.677 1179.47 414.526C1179.47 401.379 1187.91 390.717 1198.32 390.717C1208.73 390.717 1217.16 401.379 1217.16 414.526Z" fill="#F5F1D4"/>
<path d="M1185.77 418.996C1185.77 422.102 1183.25 424.623 1180.14 424.623C1177.04 424.623 1174.52 422.102 1174.52 418.996C1174.52 415.891 1177.04 413.373 1180.14 413.373C1183.25 413.373 1185.77 415.891 1185.77 418.996Z" fill="#F5F1D4"/>
<path d="M1222.79 418.996C1222.79 422.102 1220.27 424.623 1217.17 424.623C1214.06 424.623 1211.54 422.102 1211.54 418.996C1211.54 415.891 1214.06 413.373 1217.17 413.373C1220.27 413.373 1222.79 415.891 1222.79 418.996Z" fill="#F5F1D4"/>
<path d="M1219.25 413.772C1219.01 415.56 1215.96 415.692 1216.39 417.442C1215.9 415.983 1214.98 413.901 1213.85 412.852C1213.83 408.679 1210.62 404.737 1206.54 403.858C1203.58 403.224 1200.51 404.064 1197.49 403.912C1193.94 403.729 1190.48 402.112 1188.07 399.499C1183.87 404.68 1180.69 411.194 1180.57 417.859C1180.03 416.157 1178.75 415.003 1177.13 414.252C1177.13 414.252 1172.5 398.902 1178.67 395.775C1178.67 395.775 1176.08 388.18 1186.26 386.752C1196.44 385.321 1214.22 390.057 1217.17 383.356C1217.17 383.356 1221.27 394.255 1217.17 396.845C1217.17 396.845 1221.5 396.748 1219.25 413.772Z" fill="#985733"/>
<path d="M965.221 410.041C965.227 407.813 965.104 405.533 964.949 403.204C964.488 396.349 966.323 390.613 969.65 385.599C969.529 385.966 969.416 386.335 969.308 386.705C967.132 394.271 967.571 402.727 965.221 410.041ZM1009.82 412.587C1010.16 405.144 1014.7 398.099 1013.71 390.714C1011.94 377.449 992.805 369.078 980.987 372.868C976.748 374.23 973.668 377.367 971.589 381.132C968.143 384.955 965.464 389.456 964.175 394.435C962.933 399.227 963.701 404.029 963.903 408.894C963.973 410.574 963.891 412.192 963.692 413.762C962.943 415.228 962.043 416.63 960.896 417.935C958.839 420.282 956.148 421.985 953.968 424.212C951.194 427.046 949.334 430.641 947.786 434.292C945.571 439.508 943.907 445.393 945.673 450.773C947.423 456.105 952.212 459.868 957.184 462.468C966.544 467.367 977.446 469.269 987.912 467.819C994.388 466.922 1000.9 464.641 1005.54 460.029C1010.09 455.505 1012.42 449.108 1013.03 442.724C1013.63 436.343 1012.63 429.914 1011.31 423.64C1010.54 419.991 1009.65 416.311 1009.82 412.587Z" fill="#F7B40A"/>
<path d="M933.773 587.338C918.271 585.581 907.986 579.348 903.209 568.807C889.398 538.341 927.565 482.806 929.195 480.458L933.596 483.513C933.217 484.063 895.526 538.894 908.09 566.595C912.036 575.298 920.881 580.482 934.376 582.008L933.773 587.338Z" fill="#F5F1D4"/>
<path d="M970.882 515.315H928.128C920.568 515.315 914.439 509.187 914.439 501.627V472.561C914.439 465.001 920.568 458.873 928.128 458.873H970.882V515.315Z" fill="#302F31"/>
<path d="M991.681 590.19H919.516C916.711 590.19 914.439 587.919 914.439 585.113C914.439 582.311 916.711 580.04 919.516 580.04H991.681C994.483 580.04 996.754 582.311 996.754 585.113C996.754 587.919 994.483 590.19 991.681 590.19Z" fill="#302F31"/>
<path d="M956.312 579.576C956.312 579.576 993.807 581.291 1005.6 579.576L994.344 651.62H1008.98C1008.98 651.62 1040.44 564.997 1029.72 554.281C1019 543.56 985.233 544.738 985.233 544.738L954.145 560.713L956.312 579.576Z" fill="#161516"/>
<path d="M996.754 651.579L997.127 656.125L997.616 662.307H1024.06C1025.55 662.307 1026.25 660.437 1025.11 659.471C1023.52 658.134 1021.38 656.893 1019.16 655.812C1013.83 653.247 1008.03 651.579 1008.03 651.579H996.754Z" fill="#302F31"/>
<path d="M996.754 651.579L997.127 656.125C998.839 657.054 1000.71 657.689 1002.63 658.093C1005.67 658.738 1008.82 658.807 1011.94 658.775C1014.73 658.757 1017.6 658.046 1019.16 655.812C1013.83 653.247 1008.03 651.579 1008.03 651.579H996.754Z" fill="#F5F1D4"/>
<path d="M1003.14 420.124C1003.14 420.124 1011.14 423.495 1014.71 439.221C1018.29 454.94 1021.14 492.82 1021.14 492.82L1047.56 501.485L1047.94 513.543L994.344 516.187L995.775 469.591L1003.14 420.124Z" fill="#F54725"/>
<path d="M1071.4 631.658L1073.09 635.892L1075.38 641.654L1100.64 633.873C1102.08 633.431 1102.19 631.437 1100.82 630.853C1098.9 630.041 1096.49 629.485 1094.05 629.106C1088.21 628.221 1082.17 628.338 1082.17 628.338L1071.4 631.658Z" fill="#302F31"/>
<path d="M1071.4 631.658L1073.09 635.892C1075 636.274 1076.98 636.327 1078.93 636.154C1082.03 635.873 1085.05 635.01 1088.03 634.066C1090.69 633.222 1093.22 631.7 1094.05 629.106C1088.21 628.221 1082.17 628.338 1082.17 628.338L1071.4 631.658Z" fill="#F5F1D4"/>
<path d="M935.241 531.505C935.241 531.505 925.916 571.078 948.784 578.397C971.652 585.72 1036.38 557.614 1036.38 557.614L1068.88 632.375L1084.61 628.089C1084.61 628.089 1066.02 532.829 1053.88 531.505C1041.73 530.181 1003.14 531.505 1003.14 531.505H935.241Z" fill="#201F20"/>
<path d="M1003.14 531.499L997.196 532.573L980.248 535.646L930.057 544.738C930.057 544.738 950.961 487.304 952.3 479.776C953.643 472.251 953.823 451.572 952.395 441.486C950.961 431.396 966.825 420.118 966.825 420.118H1003.14L1003.42 420.462C1022.23 442.503 1003.14 531.499 1003.14 531.499Z" fill="#FF5B39"/>
<path d="M997.196 532.573L980.248 535.646C991.28 461.605 973.709 420.118 973.709 420.118H1003.14L1003.42 420.462C1014.27 434.324 999.938 517.315 997.196 532.573Z" fill="#983333"/>
<path d="M973.709 420.124C973.709 420.124 984.247 436.349 995.686 432.773C1007.12 429.2 1003.14 420.124 1003.14 420.124H973.709Z" fill="#F5F1D4"/>
<path d="M1059.74 510.905C1057.08 508.561 1051.74 502.003 1047.56 501.485C1045.54 501.235 1032.74 506.362 1032.74 506.362C1032.74 506.362 1010.7 505.383 990.3 503.965L989.248 516.266C1003.6 516.054 1019.99 515.691 1033.6 515.189C1043.71 517.965 1054.11 515.565 1059.07 514.02C1060.44 513.603 1060.79 511.856 1059.74 510.905Z" fill="#F5F1D4"/>
<path d="M966.828 420.124C966.828 420.124 948.604 425.997 944.674 447.437C940.744 468.874 942.889 518.901 949.321 522.477C955.753 526.049 994.343 520.692 994.343 520.692V503.181L968.522 501.753C968.522 501.753 983.265 433.187 966.828 420.124Z" fill="#F54725"/>
<path d="M960.422 647.706H950.616V598.157H960.422V647.706Z" fill="#EAE1B3"/>
<path d="M963.101 609.485H948.092V590.19H963.101V609.485Z" fill="#F5F1D4"/>
<path d="M985.192 651.62H926.005V645.397H985.192V651.62Z" fill="#302F31"/>
<path d="M934.679 656.965C934.679 659.916 932.285 662.307 929.334 662.307C926.384 662.307 923.989 659.916 923.989 656.965C923.989 654.012 926.384 651.62 929.334 651.62C932.285 651.62 934.679 654.012 934.679 656.965Z" fill="#EAE1B3"/>
<path d="M987.207 656.965C987.207 659.916 984.813 662.307 981.862 662.307C978.912 662.307 976.517 659.916 976.517 656.965C976.517 654.012 978.912 651.62 981.862 651.62C984.813 651.62 987.207 654.012 987.207 656.965Z" fill="#EAE1B3"/>
<path d="M1356.84 524.824H999.325V516.996H1356.84V524.824Z" fill="#034F50"/>
<path d="M1346.92 533.612H1009.24V524.824H1346.92V533.612Z" fill="#003132"/>
<path d="M1024.35 669.219L1038.63 533.612H1027.91L1017.71 669.219H1024.35Z" fill="#302F31"/>
<path d="M1338.46 669.219L1328.25 533.612H1317.53L1331.82 669.219H1338.46Z" fill="#302F31"/>
<path d="M1058.64 516.996H1016.59V511.717H1058.64V516.996Z" fill="#302F31"/>
<path d="M1111.65 516.996H1044.22L1054.95 468.154H1122.38L1111.65 516.996Z" fill="#302F31"/>
<path d="M1008.55 392.736C1008.55 392.736 1012.65 418.766 998.46 418.191C984.27 417.616 979.221 407.292 980.352 401.186C981.48 395.076 982.567 382.914 994.773 381.688C1006.98 380.469 1008.55 392.736 1008.55 392.736Z" fill="#F5F1D4"/>
<path d="M984.007 407.055C983.537 409.602 981.088 411.285 978.539 410.815C975.993 410.344 974.309 407.896 974.78 405.35C975.251 402.8 977.699 401.116 980.245 401.587C982.794 402.058 984.478 404.506 984.007 407.055Z" fill="#F5F1D4"/>
<path d="M976.941 402.206C976.941 402.206 980.561 400.801 983.11 403.347C983.11 403.347 1000.8 399.227 1000.63 389.728C1000.63 389.728 1004.24 388.076 1007.64 389.479C1007.64 389.479 1004.51 373.775 984.393 379.139C964.279 384.503 974.78 405.349 974.78 405.349C974.78 405.349 974.815 403.603 976.941 402.206Z" fill="#F6B40A"/>
<path d="M981.272 405.618L980.624 409.118C980.624 409.118 980.536 409.756 980.431 410.78C980.292 412.132 980.112 414.147 980.084 416.21C980.03 419.41 980.299 422.74 981.509 423.909C984.09 426.417 994.104 427.106 995.522 426.496C995.967 426.306 996.249 424.518 996.422 422.155C996.508 420.895 996.574 419.483 996.615 418.055H996.606C996.729 413.734 996.653 409.387 996.653 409.387L981.272 405.618Z" fill="#F5F1D4"/>
<path d="M980.431 410.78C980.292 412.132 980.112 414.147 980.084 416.21C984.001 418.125 991.949 421.757 996.422 422.155C996.508 420.895 996.574 419.483 996.615 418.055H996.606C996.157 417.948 982.109 414.751 980.431 410.78Z" fill="#EAE1B3"/>
<path d="M1074.71 296.234H1011.56C1008.11 296.234 1005.32 299.014 1005.32 302.46V347.574C1005.32 351.014 1008.11 353.798 1011.56 353.798H1014.96V369.409L1030.57 353.798H1074.71C1078.16 353.798 1080.95 351.014 1080.95 347.574V302.46C1080.95 299.014 1078.16 296.234 1074.71 296.234Z" fill="#015656"/>
<path d="M1072.17 309.42L1055.71 314.067L1060.3 318.537L1051.76 327.312L1034.66 314.796L1015.03 335.501L1018.14 338.451L1035.17 320.486L1052.23 332.973L1063.38 321.528L1067.97 325.998L1072.17 309.42Z" fill="white"/>
<path d="M1158.7 243.573C1158.7 260.774 1144.76 274.721 1127.56 274.721C1110.36 274.721 1096.41 260.774 1096.41 243.573C1096.41 226.372 1110.36 212.428 1127.56 212.428C1144.76 212.428 1158.7 226.372 1158.7 243.573Z" fill="white"/>
<path d="M1136.24 220.44C1134.38 219.741 1132.44 219.271 1130.46 219.037L1130.71 216.908C1132.86 217.16 1134.98 217.672 1137 218.434L1136.24 220.44ZM1118.73 220.493L1117.96 218.49C1119.98 217.72 1122.1 217.192 1124.24 216.93L1124.5 219.053C1122.53 219.299 1120.59 219.782 1118.73 220.493ZM1145.99 227.124C1144.67 225.639 1143.17 224.316 1141.53 223.191L1142.74 221.422C1144.52 222.644 1146.15 224.082 1147.59 225.696L1145.99 227.124ZM1109.03 227.235L1107.42 225.819C1108.85 224.196 1110.48 222.749 1112.25 221.514L1113.47 223.273C1111.84 224.41 1110.34 225.744 1109.03 227.235ZM1151.53 237.568C1151.05 235.638 1150.33 233.771 1149.39 232.011L1151.29 231.006C1152.3 232.918 1153.08 234.952 1153.61 237.046L1151.53 237.568ZM1103.55 237.71L1101.47 237.204C1101.98 235.107 1102.75 233.066 1103.75 231.149L1105.65 232.14C1104.73 233.906 1104.02 235.783 1103.55 237.71ZM1153.63 249.995L1151.55 249.484C1152.02 247.56 1152.27 245.573 1152.27 243.573L1154.41 243.469V243.573C1154.41 245.743 1154.15 247.904 1153.63 249.995ZM1101.49 250.046C1100.98 247.958 1100.71 245.797 1100.71 243.627L1102.85 243.624C1102.86 245.623 1103.1 247.61 1103.58 249.531L1101.49 250.046ZM1147.66 261.371L1146.06 259.949C1147.38 258.458 1148.52 256.809 1149.44 255.05L1151.34 256.048C1150.34 257.959 1149.1 259.75 1147.66 261.371ZM1107.49 261.409C1106.05 259.788 1104.81 258.003 1103.8 256.095L1105.7 255.094C1106.62 256.85 1107.77 258.493 1109.09 259.984L1107.49 261.409ZM1137.1 268.678L1136.34 266.675C1138.19 265.97 1139.97 265.035 1141.6 263.901L1142.82 265.664C1141.05 266.896 1139.12 267.91 1137.1 268.678ZM1118.07 268.697C1116.05 267.935 1114.12 266.924 1112.34 265.692L1113.55 263.93C1115.19 265.061 1116.97 265.989 1118.83 266.691L1118.07 268.697ZM1127.56 270.422C1126.49 270.422 1125.41 270.358 1124.36 270.235L1124.61 268.103C1126.57 268.34 1128.61 268.337 1130.56 268.096L1130.82 270.229C1129.75 270.358 1128.65 270.422 1127.56 270.422Z" fill="#015656"/>
<path d="M1134.37 257.805L1125.44 248.877V227.124H1129.73V247.102L1137.4 254.775L1134.37 257.805Z" fill="#015656"/>
<path d="M1175.66 342.946V357.241L1168.26 364.522H1154.09V342.946H1175.66Z" fill="#F5F1D4"/>
<path d="M1175.66 357.241L1168.26 364.522V357.241H1175.66Z" fill="#EAE1B3"/>
<path d="M1144.7 322.034V343.61H1123.13V322.034H1144.7Z" fill="white"/>
<path d="M1363.41 187.744C1363.41 197.969 1355.13 206.259 1344.9 206.259C1334.68 206.259 1326.39 197.969 1326.39 187.744C1326.39 177.518 1334.68 169.229 1344.9 169.229C1355.13 169.229 1363.41 177.518 1363.41 187.744Z" fill="#FF512F"/>
<path d="M1453.96 722.97C1453.96 733.196 1445.67 741.485 1435.44 741.485C1425.22 741.485 1416.93 733.196 1416.93 722.97C1416.93 712.744 1425.22 704.455 1435.44 704.455C1445.67 704.455 1453.96 712.744 1453.96 722.97Z" fill="#FF512F"/>
<path d="M1332.3 148.256C1332.3 154.555 1327.19 159.663 1320.89 159.663C1314.59 159.663 1309.48 154.555 1309.48 148.256C1309.48 141.957 1314.59 136.849 1320.89 136.849C1327.19 136.849 1332.3 141.957 1332.3 148.256Z" fill="#FF512F"/>
<path d="M1405.92 694.15C1405.92 700.452 1400.81 705.557 1394.52 705.557C1388.22 705.557 1383.11 700.452 1383.11 694.15C1383.11 687.851 1388.22 682.746 1394.52 682.746C1400.81 682.746 1405.92 687.851 1405.92 694.15Z" fill="#FF512F"/>
<path d="M1157.06 414.242L1157.95 417.36L1158.83 414.242C1159.58 411.614 1161.35 409.396 1163.74 408.085C1161.35 406.774 1159.58 404.557 1158.83 401.928L1157.95 398.81L1157.06 401.928C1156.32 404.557 1154.55 406.774 1152.15 408.085C1154.55 409.396 1156.32 411.614 1157.06 414.242Z" fill="white"/>
<path d="M1148.87 426.888L1149.55 429.295L1150.24 426.888C1150.82 424.853 1152.18 423.138 1154.04 422.124C1152.18 421.107 1150.82 419.391 1150.24 417.36L1149.55 414.95L1148.87 417.36C1148.3 419.391 1146.92 421.107 1145.07 422.124C1146.92 423.138 1148.3 424.853 1148.87 426.888Z" fill="white"/>
<path d="M1577.17 332.983L1578.05 336.101L1578.94 332.983C1579.68 330.354 1581.45 328.137 1583.85 326.826C1581.45 325.515 1579.68 323.297 1578.94 320.669L1578.05 317.551L1577.17 320.669C1576.42 323.297 1574.66 325.515 1572.26 326.826C1574.66 328.137 1576.42 330.354 1577.17 332.983Z" fill="white"/>
<path d="M1568.98 345.625L1569.66 348.038L1570.34 345.625C1570.92 343.594 1572.29 341.878 1574.14 340.864C1572.29 339.85 1570.92 338.135 1570.34 336.101L1569.66 333.69L1568.98 336.101C1568.4 338.135 1567.03 339.85 1565.18 340.864C1567.03 341.878 1568.4 343.594 1568.98 345.625Z" fill="white"/>
<path d="M1458.36 448.789L1457.22 452.801L1456.08 448.789C1455.12 445.409 1452.85 442.553 1449.76 440.87C1452.85 439.183 1455.12 436.33 1456.08 432.947L1457.22 428.938L1458.36 432.947C1459.32 436.33 1461.59 439.183 1464.67 440.87C1461.59 442.553 1459.32 445.409 1458.36 448.789Z" fill="white"/>
<path d="M1468.89 465.055L1468.02 468.154L1467.13 465.055C1466.4 462.436 1464.63 460.231 1462.25 458.927C1464.63 457.622 1466.4 455.417 1467.13 452.801L1468.02 449.699L1468.89 452.801C1469.63 455.417 1471.4 457.622 1473.78 458.927C1471.4 460.231 1469.63 462.436 1468.89 465.055Z" fill="white"/>
<path d="M1032.91 416.352L1032.03 419.47L1031.14 416.352C1030.4 413.724 1028.63 411.503 1026.23 410.192C1028.63 408.881 1030.4 406.664 1031.14 404.035L1032.03 400.917L1032.91 404.035C1033.65 406.664 1035.43 408.881 1037.82 410.192C1035.43 411.503 1033.65 413.724 1032.91 416.352Z" fill="#D62A92"/>
<path d="M1041.1 428.992L1040.42 431.405L1039.73 428.992C1039.16 426.96 1037.79 425.245 1035.94 424.231C1037.79 423.217 1039.16 421.502 1039.73 419.47L1040.42 417.057L1041.1 419.47C1041.68 421.502 1043.05 423.217 1044.9 424.231C1043.05 425.245 1041.68 426.96 1041.1 428.992Z" fill="#D62A92"/>
<path d="M270 205.533V205.4H270.133V205.133H270.267V204.867H270.4V204.467H270.533V204.2H270.667V203.933H270.8V203.533H270.933V203.267H271.067V203H271.2V202.733H271.333V202.333H271.467V202.067H271.6V201.8H271.733V201.4H271.867V201.133H272V200.867H272.133V200.6H272.267V200.2H272.4V199.933H272.533V199.667H272.667V199.267H272.8V199H272.933V198.733H273.067V198.467H273.2V198.067H273.333V197.8H273.467V197.533H273.6V197.133H273.733V196.867H273.867V196.6H274V196.333H274.133V195.933H274.267V195.667H274.4V195.4H274.533V195H274.667V194.733H274.8V194.467H274.933V194.2H275.067V193.8H275.2V193.533H275.333V193.267H275.467V193H275.6V192.6H275.733V192.333H275.867V192.067H276V191.667H276.133V191.4H276.267V191.133H276.4V190.867H276.533V190.467H276.667V190.2H276.8V189.933H276.933V189.533H277.067V189.267H277.2V189H277.333V188.733H277.467V188.333H277.6V188.067H277.733V187.8H277.867V187.4H278V187.133H278.133V186.867H278.267V186.6H278.4V186.2H278.533V185.933H278.667V185.667H278.8V185.267H278.933V185H279.067V184.733H279.2V184.467H279.333V184.067H279.467V183.8H279.6V183.533H279.733V183.133H279.867V183H280.133V183.267H280.267V183.4H280.4V183.533H280.533V183.8H280.667V183.933H280.8V184.067H280.933V184.333H281.067V184.467H281.2V184.6H281.333V184.867H281.467V185H281.6V185.267H281.733V185.4H281.867V185.533H282V185.8H282.133V185.933H282.267V186.067H282.4V186.333H282.533V186.467H282.667V186.6H282.8V186.867H282.933V187H283.067V187.133H283.2V187.4H283.333V187.533H283.467V187.8H283.6V187.933H283.733V188.067H283.867V188.333H284V188.467H284.133V188.6H284.267V188.867H284.4V189H284.533V189.133H284.667V189.4H284.8V189.533H284.933V189.667H285.067V189.933H285.2V190.067H285.333V190.333H285.467V190.467H285.6V190.6H285.733V190.867H285.867V191H286V191.133H286.133V191.4H286.267V191.533H286.4V191.667H286.533V191.933H286.667V192.067H286.8V192.333H286.933V192.467H287.067V192.6H287.2V192.867H287.333V193H287.467V193.133H287.6V193.4H287.733V193.533H287.867V193.667H288V193.933H288.133V194.067H288.267V194.2H288.4V194.467H288.533V194.6H288.667V194.867H288.8V195H288.933V195.133H289.067V195.4H289.2V195.533H289.333V195.667H289.467V195.933H289.6V196.067H289.733V196.2H289.867V196.467H290V196.6H290.133V196.733H290.267V197H290.4V197.133H290.533V197.4H290.667V197.533H290.8V197.667H290.933V197.933H291.067V198.067H291.2V198.2H291.333V198.467H291.467V198.6H291.6V198.733H291.733V199H291.867V199.133H292V199.4H292.133V199.533H292.267V199.667H292.4V199.933H292.533V200.067H292.667V200.2H292.8V200.467H292.933V200.6H293.067V200.733H293.2V201H293.333V201.133H293.467V201.267H293.6V201.533H293.733V201.667H293.867V201.933H294V202.067H294.133V202.2H294.267V202.467H294.4V202.6H294.533V202.867H294V203H292.8V203.133H291.6V203.267H290.4V203.4H289.2V203.533H288V203.667H286.8V203.8H285.6V203.933H284.4V204.067H283.2V204.2H282V204.333H280.8V204.467H279.6V204.6H278.4V204.733H277.2V204.867H276V205H274.8V205.133H273.6V205.267H272.4V205.4H271.2V205.533" fill="url(#paint0_linear_220_1381)"/>
<path d="M8.516 482.488H8.05601C8.05334 484.457 6.45867 486.053 4.488 486.057C2.51734 486.053 0.924003 484.459 0.920003 482.488C0.924003 480.517 2.51734 478.923 4.488 478.92C6.45867 478.923 8.05334 480.517 8.05601 482.488H8.516H8.97601C8.97601 480.009 6.96801 478 4.488 478C2.00934 478 0 480.009 0 482.488C0 484.967 2.00934 486.977 4.488 486.977C6.96801 486.977 8.97601 484.967 8.97601 482.488H8.516Z" fill="#29C1C2"/>
<path d="M592.567 220.013H592.107C592.107 221.973 591.313 223.743 590.029 225.028C588.744 226.312 586.973 227.105 585.013 227.105C583.053 227.105 581.283 226.312 579.999 225.028C578.713 223.743 577.921 221.973 577.92 220.013C577.921 218.053 578.713 216.283 579.999 214.997C581.283 213.713 583.053 212.92 585.013 212.92C586.973 212.92 588.744 213.713 590.029 214.997C591.313 216.283 592.107 218.053 592.107 220.013H592.567H593.027C593.027 215.587 589.44 212 585.013 212C580.588 212 577.001 215.587 577 220.013C577.001 224.439 580.588 228.025 585.013 228.025C589.44 228.025 593.027 224.439 593.027 220.013H592.567Z" fill="#29C1C2"/>
<path d="M101.539 154.999H101.079C101.079 156.403 100.511 157.669 99.5907 158.589C98.6707 159.509 97.4027 160.077 95.9987 160.077C94.5947 160.077 93.328 159.509 92.408 158.589C91.488 157.669 90.92 156.403 90.92 154.999C90.92 153.595 91.488 152.328 92.408 151.408C93.328 150.488 94.5947 149.92 95.9987 149.92C97.4027 149.92 98.6707 150.488 99.5907 151.408C100.511 152.328 101.079 153.595 101.079 154.999H101.539H101.999C101.999 151.685 99.3133 149 95.9987 149C92.6853 149 90 151.685 90 154.999C90 158.312 92.6853 160.997 95.9987 160.997C99.3133 160.997 101.999 158.312 101.999 154.999H101.539Z" fill="#29C1C2"/>
<path d="M626.531 152.481H626.071C626.068 153.896 624.923 155.04 623.509 155.041C622.095 155.04 620.951 153.896 620.948 152.481C620.951 151.068 622.095 149.923 623.509 149.92C624.923 149.923 626.068 151.068 626.071 152.481H626.531H626.991C626.989 150.559 625.432 149 623.509 149C621.585 149 620.029 150.559 620.028 152.481C620.028 154.404 621.587 155.961 623.509 155.963C625.432 155.961 626.991 154.405 626.991 152.481H626.531Z" fill="#29C1C2"/>
<path d="M726.133 572.667V572.533H726V572.4H725.867V572.267H725.6V572.133H725.467V572H725.333V571.867H725.2V571.733H725.067V571.6H724.933V571.467H724.667V571.333H724.533V571.2H724.4V571.067H724.267V570.933H724.133V570.8H724V570.667H723.733V570.533H723.6V570.4H723.467V570.267H723.333V570.133H723.2V570H723.067V569.867H722.933V569.733H722.667V569.6H722.533V569.467H722.4V569.333H722.267V569.2H722.133V569.067H722V568.933H721.733V568.8H721.6V568.667H721.467V568.533H721.333V568.4H721.2V568.267H721.067V568.133H720.933V568H720.667V567.867H720.533V567.733H720.4V567.6H720.267V567.467H720.133V567.333H720V567.2H719.733V567.067H719.6V566.933H719.467V566.8H719.333V566.667H719.2V566.533H719.067V566.4H718.8V566.267H718.667V566.133H718.533V566H718.4V565.867H718.267V565.733H718.133V565.6H718V565.467H717.733V565.333H717.6V565.2H717.467V565.067H717.333V564.933H717.2V564.8H717.067V564.667H716.8V564.533H716.667V564.4H716.533V564.267H716.4V564.133H716.267V564H716.133V563.867H715.867V563.733H715.733V563.6H715.6V563.467H715.467V563.333H715.333V563.2H715.2V563.067H715.067V562.933H714.8V562.8H714.667V562.667H714.533V562.533H714.4V562.4H714.267V562.267H714.133V562.133H713.867V562H713.733V561.867H713.6V561.733H713.467V561.6H713.333V561.467H713.2V561.333H712.933V561.2H712.8V561.067H712.667V560.933H712.533V560.8H712.4V560.667H712.267V560.533H712.133V560.4H712V560.267H712.133V560.133H712.533V560H712.933V559.867H713.333V559.733H713.733V559.6H714.133V559.467H714.4V559.333H714.8V559.2H715.2V559.067H715.6V558.933H716V558.8H716.4V558.667H716.8V558.533H717.2V558.4H717.467V558.267H717.867V558.133H718.267V558H718.667V557.867H719.067V557.733H719.467V557.6H719.867V557.467H720.267V557.333H720.533V557.2H720.933V557.067H721.333V556.933H721.733V556.8H722.133V556.667H722.533V556.533H722.933V556.4H723.333V556.267H723.6V556.133H724V556H724.4V555.867H724.8V555.733H725.2V555.6H725.6V555.467H726V555.333H726.4V555.2H726.667V555.067H727.067V554.933H727.467V554.8H727.867V554.667H728.267V554.533H728.667V554.4H729.067V554.267H729.467V554.133H729.733V554H730V554.267H729.867V554.933H729.733V555.6H729.6V556.267H729.467V557.067H729.333V557.733H729.2V558.4H729.067V559.067H728.933V559.867H728.8V560.533H728.667V561.2H728.533V561.867H728.4V562.533H728.267V563.333H728.133V564H728V564.667H727.867V565.333H727.733V566.133H727.6V566.8H727.467V567.467H727.333V568.133H727.2V568.933H727.067V569.6H726.933V570.267H726.8V570.933H726.667V571.6H726.533V572.4H726.4V572.667" fill="url(#paint1_linear_220_1381)"/>
<defs>
<linearGradient id="paint0_linear_220_1381" x1="289.499" y1="195.128" x2="274.995" y2="194.272" gradientUnits="userSpaceOnUse">
<stop stop-color="#E13311"/>
<stop offset="1" stop-color="#FF512F"/>
</linearGradient>
<linearGradient id="paint1_linear_220_1381" x1="726.306" y1="564.047" x2="715.656" y2="563.49" gradientUnits="userSpaceOnUse">
<stop stop-color="#E13311"/>
<stop offset="1" stop-color="#FF512F"/>
</linearGradient>
</defs>
</svg>
