<svg width="390" height="395" viewBox="0 0 390 395" fill="none" xmlns="http://www.w3.org/2000/svg">
<path d="M0 187.489V394.299H18.6006C40.9438 394.299 57.2274 373.894 68.4185 354.555C78.6365 336.905 96.7124 326.027 115.683 319.884C136.383 313.17 159.677 317.026 179.41 308.801C188.001 305.224 195.682 298.437 198.233 289.494C200.579 281.211 198.321 272.43 197.442 263.854C196.577 255.292 197.72 245.382 204.64 240.265C211.779 234.973 221.748 237.04 230.339 239.342C244.456 243.124 274.466 257.99 284.127 238.961C290.768 225.884 276.078 212.543 271.519 198.587C266.681 183.736 274.48 166.936 286.839 157.378C299.197 147.819 315.147 144.257 330.687 142.688C342.459 141.501 354.51 141.251 365.666 137.352C376.837 133.452 387.275 124.905 389.518 113.295C394.048 89.8533 365.314 73.2874 359.86 50.0512C356.459 35.5817 379.02 42.6888 390 32.5L390 0C287 9.5 347.5 38 276.709 71.6748C245.922 76.0728 210.738 46.7527 187.282 74.6068C169.69 95.1309 191.68 128.849 163.826 143.509C130.108 159.635 96.3899 140.577 62.6718 142.043H62.4518C51.1504 142.089 41.293 149.688 38.0766 160.522C29.5694 189.161 14.4182 180.438 0 187.489Z" fill="#29C1C2"/>
<path d="M0 304.521V394.299C6.92441 394.299 12.9476 394.299 18.6036 394.299C40.9468 394.299 57.2274 373.894 68.4185 354.555C78.6365 336.905 96.7124 326.027 115.683 319.884C136.383 313.17 159.677 317.026 179.41 308.801C188.001 305.224 195.682 298.437 198.233 289.494C200.579 281.211 198.321 272.43 197.442 263.854C196.577 255.292 197.72 245.382 204.64 240.265C211.779 234.973 221.748 237.04 230.339 239.342C244.456 243.124 274.466 257.99 284.127 238.961C290.768 225.884 276.078 212.543 271.519 198.587C266.681 183.736 274.48 166.936 286.839 157.378C299.197 147.819 315.147 144.257 330.687 142.688C342.459 141.501 354.51 141.251 365.666 137.352C376.837 133.452 387.275 124.906 389.518 113.295C394.048 89.8533 365.314 73.2875 359.86 50.0513C356.459 35.5818 379.02 51.1888 390 41V12C388.065 26.6601 338 16.0629 338 45.5C338 68.5 350.258 79.9431 346.329 95.688C341.931 113.339 321.304 122.047 303.111 121.974C284.918 121.9 267.15 115.816 248.957 115.831C234.634 115.846 218.699 121.035 212.512 133.951C201.928 156.029 226.351 180.452 223.844 204.803C221.44 228.186 194.979 241.878 171.479 242.318C147.979 242.758 125.05 234.504 101.55 234.064C83.9288 233.742 63.8739 239.752 56.7198 255.864C53.6265 262.857 53.3919 270.846 50.3426 277.839C44.6399 290.901 30.317 297.982 16.4779 301.325C11.039 302.644 5.51218 303.568 0 304.521Z" fill="#15ADAE"/>
<path d="M216.462 317.262C216.462 317.262 170.517 320.475 113.842 320.475C57.1658 320.475 11.2212 317.262 11.2212 317.262C11.2212 317.262 57.1658 314.05 113.842 314.05C170.517 314.05 216.462 317.262 216.462 317.262Z" fill="#01999A"/>
<path d="M298.822 196.74H164.277V113.595H298.822V196.74Z" fill="#48C1B4"/>
<path d="M293.191 191.669H169.909V118.666H293.191V191.669Z" fill="white"/>
<path d="M283.014 181.901V147.481H276.217V181.901H271.848V156.853H265.05V181.901H260.681V145.491H253.882V181.901H249.516V140.184H242.717V181.901H238.35V156.853H231.55V181.901H226.281V134.92H224.791V183.395H288.022V181.901H283.014Z" fill="#302F31"/>
<path d="M215.058 132.596H176.713V130.274H215.058V132.596Z" fill="#48C1B4"/>
<path d="M215.058 139.23H176.713V136.908H215.058V139.23Z" fill="#48C1B4"/>
<path d="M195.553 145.862H176.713V143.54H195.553V145.862Z" fill="#48C1B4"/>
<path d="M201.478 172.48V179.114L198.046 182.492H191.466V172.48H201.478Z" fill="#48C1B4"/>
<path d="M201.477 179.114L198.045 182.492V179.114H201.477Z" fill="#39A89E"/>
<path d="M187.111 172.48V182.492H177.098V172.48H187.111Z" fill="#FF512F"/>
<path d="M279.615 138.154L273.842 139.602L275.393 141.205L268.396 147.986L244.502 129.378L232.604 138.303L233.498 139.497L244.484 131.258L268.502 149.961L276.431 142.276L277.985 143.879L279.615 138.154Z" fill="#48C1B4"/>
<path d="M190.401 159.628C190.401 163.407 187.338 166.473 183.558 166.473C179.777 166.473 176.713 163.407 176.713 159.628C176.713 155.848 179.777 152.785 183.558 152.785C187.338 152.785 190.401 155.848 190.401 159.628Z" fill="#015656"/>
<path d="M186.853 162.242C186.497 161.976 186.073 161.754 185.598 161.586C185.726 161.065 185.805 160.481 185.821 159.861H187.758C187.709 160.76 187.376 161.581 186.853 162.242ZM184.421 163.746C184.858 163.401 185.223 162.8 185.472 162.031C185.881 162.174 186.245 162.363 186.55 162.585C185.979 163.161 185.243 163.574 184.421 163.746ZM183.792 163.564V161.723C184.225 161.739 184.638 161.799 185.024 161.896C184.736 162.783 184.293 163.413 183.792 163.564ZM183.792 159.861H185.352C185.337 160.428 185.264 160.966 185.148 161.45C184.723 161.34 184.267 161.271 183.792 161.254V159.861ZM183.792 158.052C184.271 158.036 184.73 157.965 185.158 157.854C185.268 158.325 185.337 158.847 185.352 159.393H183.792V158.052ZM183.792 155.692C184.302 155.846 184.752 156.494 185.037 157.405C184.648 157.507 184.23 157.568 183.792 157.586V155.692ZM186.572 156.696C186.265 156.925 185.899 157.12 185.487 157.268C185.238 156.479 184.865 155.862 184.421 155.511C185.255 155.684 186 156.107 186.572 156.696ZM187.758 159.393H185.821C185.805 158.792 185.73 158.225 185.61 157.713C186.089 157.543 186.516 157.315 186.872 157.04C187.387 157.697 187.709 158.509 187.758 159.393ZM183.324 157.586C182.886 157.568 182.468 157.507 182.078 157.405C182.363 156.494 182.814 155.846 183.324 155.692V157.586ZM183.324 159.393H181.765C181.779 158.847 181.848 158.325 181.958 157.854C182.386 157.965 182.844 158.036 183.324 158.052V159.393ZM183.324 161.254C182.848 161.271 182.394 161.34 181.968 161.45C181.853 160.966 181.779 160.428 181.765 159.861H183.324V161.254ZM183.324 163.564C182.823 163.413 182.379 162.783 182.094 161.896C182.477 161.799 182.892 161.739 183.324 161.723V163.564ZM180.568 162.585C180.873 162.363 181.235 162.174 181.644 162.031C181.892 162.8 182.259 163.4 182.696 163.746C181.872 163.574 181.137 163.161 180.568 162.585ZM179.357 159.861H181.297C181.312 160.481 181.389 161.065 181.518 161.586C181.043 161.752 180.62 161.976 180.265 162.242C179.739 161.581 179.409 160.76 179.357 159.861ZM180.243 157.04C180.599 157.315 181.027 157.543 181.507 157.715C181.385 158.225 181.31 158.792 181.297 159.393H179.357C179.407 158.509 179.73 157.697 180.243 157.04ZM182.696 155.511C182.25 155.862 181.877 156.479 181.63 157.268C181.216 157.12 180.85 156.925 180.543 156.696C181.118 156.107 181.86 155.684 182.696 155.511ZM183.559 154.816C180.9 154.816 178.746 156.97 178.746 159.628C178.746 162.286 180.9 164.439 183.559 164.439C186.215 164.439 188.37 162.286 188.37 159.628C188.37 156.97 186.215 154.816 183.559 154.816Z" fill="white"/>
<path d="M206.884 159.628C206.884 163.353 203.864 166.373 200.139 166.373C196.414 166.373 193.395 163.353 193.395 159.628C193.395 155.903 196.414 152.884 200.139 152.884C203.864 152.884 206.884 155.903 206.884 159.628Z" fill="#FF512F"/>
<path d="M200.139 161.378C199.172 161.378 198.387 160.595 198.387 159.628C198.387 158.66 199.172 157.876 200.139 157.876C201.105 157.876 201.891 158.66 201.891 159.628C201.891 160.595 201.105 161.378 200.139 161.378ZM204.111 158.713H203.274C203.206 158.483 203.115 158.263 203.002 158.058L203.595 157.467C203.757 157.303 203.757 157.039 203.595 156.875L202.892 156.172C202.73 156.01 202.464 156.01 202.302 156.172L201.711 156.765C201.504 156.65 201.283 156.561 201.054 156.494V155.656C201.054 155.425 200.866 155.237 200.636 155.237H199.642C199.412 155.237 199.224 155.425 199.224 155.656V156.494C198.994 156.561 198.776 156.65 198.569 156.765L197.978 156.172C197.814 156.01 197.55 156.01 197.386 156.172L196.685 156.875C196.52 157.039 196.52 157.303 196.685 157.467L197.275 158.058C197.162 158.263 197.072 158.483 197.006 158.713H196.168C195.936 158.713 195.75 158.901 195.75 159.131V160.123C195.75 160.355 195.936 160.543 196.168 160.543H197.006C197.072 160.771 197.162 160.993 197.275 161.198L196.685 161.79C196.52 161.953 196.52 162.217 196.685 162.381L197.386 163.083C197.55 163.246 197.814 163.246 197.978 163.083L198.569 162.491C198.776 162.604 198.994 162.695 199.224 162.762V163.599C199.224 163.831 199.412 164.017 199.642 164.017H200.636C200.866 164.017 201.054 163.831 201.054 163.599V162.762C201.283 162.695 201.504 162.604 201.711 162.491L202.302 163.083C202.464 163.246 202.73 163.246 202.892 163.083L203.595 162.381C203.757 162.217 203.757 161.953 203.595 161.79L203.002 161.198C203.115 160.993 203.206 160.771 203.274 160.543H204.111C204.341 160.543 204.528 160.355 204.528 160.123V159.131C204.528 158.901 204.341 158.713 204.111 158.713Z" fill="white"/>
<path d="M214.634 156.733H211.825V153.924H214.634V156.733Z" fill="#302F31"/>
<path d="M219.193 156.733H216.385V153.924H219.193V156.733Z" fill="#302F31"/>
<path d="M214.634 161.032H211.825V158.223H214.634V161.032Z" fill="#302F31"/>
<path d="M219.193 161.032H216.385V158.223H219.193V161.032Z" fill="#FF512F"/>
<path d="M214.634 165.332H211.825V162.525H214.634V165.332Z" fill="#FF512F"/>
<path d="M219.193 165.332H216.385V162.525H219.193V165.332Z" fill="#FF512F"/>
<path d="M315.974 179.042C315.974 179.042 303.605 188.97 293.003 185.441C282.401 181.911 278.287 161.927 278.287 161.927C278.287 161.927 280.661 157.844 278.287 156.436C278.287 156.436 278.762 153.059 276.389 152.777C274.015 152.496 264.678 155.311 274.172 162.629C274.172 162.629 276.862 198.66 297.276 199.927C317.689 201.195 317.434 196.049 317.434 196.049L315.974 179.042Z" fill="#FF5B39"/>
<path d="M278.287 161.927C278.287 161.927 278.798 161.043 279.107 159.959L279.108 159.958C281.297 159.286 280.155 153.696 279.192 152.758C278.479 152.063 277.48 152.535 277.006 152.827C276.528 151.892 273.944 146.987 272.517 147.437C271.465 147.769 272.525 151.115 273.343 153.293C270.274 154.413 267.322 157.348 274.172 162.629C274.172 162.629 274.466 166.549 275.59 171.849C277.37 171.467 279.11 170.925 280.8 170.223C279.061 165.681 278.287 161.927 278.287 161.927Z" fill="#F5F1D4"/>
<path d="M339.884 216.131L330.971 227.448L332.92 229.687L344.653 220.293L339.884 216.131Z" fill="#F5F1D4"/>
<path d="M322.142 176.22C322.142 176.22 336.526 177.701 339.76 182.426C342.995 187.152 354.672 199.838 353.442 209.54C352.211 219.24 346.725 222.1 346.725 222.1L339.885 216.131C339.885 216.131 344.362 212.524 343.616 208.917C342.871 205.31 332.92 195.734 332.92 195.734L325.085 180.064L322.142 176.22Z" fill="#FF5B39"/>
<path d="M353.532 315.118C353.532 315.118 334.677 317.797 311.416 317.797C288.157 317.797 269.302 315.118 269.302 315.118C269.302 315.118 288.157 312.437 311.416 312.437C334.677 312.437 353.532 315.118 353.532 315.118Z" fill="#01999A"/>
<path d="M329.272 308.709L329.646 310.99L330.162 314.094L317.148 317.329C316.412 317.512 315.838 316.678 316.283 316.064C316.904 315.209 317.804 314.337 318.764 313.535C321.068 311.62 323.722 310.088 323.722 310.088L329.272 308.709Z" fill="white"/>
<path d="M306.767 308.709L306.621 311.016L306.426 314.155L293.019 314.393C292.261 314.406 291.889 313.465 292.46 312.965C293.255 312.27 294.328 311.623 295.445 311.056C298.121 309.707 301.048 308.81 301.048 308.81L306.767 308.709Z" fill="white"/>
<path d="M331.436 228.212C331.436 228.212 329.786 248.719 325.29 266.967L329.872 309.637L322.687 310.37C322.687 310.37 315.269 282.356 313.119 275.775C310.703 268.386 313.119 250.114 313.119 250.114C313.119 250.114 306.767 264.126 306.767 270.87C306.767 277.615 307.518 308.839 307.518 308.839C307.518 308.839 302.728 310.171 300.333 308.839C297.939 307.508 296.077 267.231 296.077 267.231L305.389 223.563C305.389 223.563 317.863 226.882 331.436 228.212Z" fill="#161516"/>
<path d="M334.779 229.729C335.151 225.41 336.482 196.65 334.695 190.203C330.705 175.798 322.142 176.22 322.142 176.22C319.522 182.31 314.03 178.192 314.03 178.192C314.03 178.192 304.39 184.035 307.583 200.002C309.644 210.306 305.463 219.744 302.239 225.145C311.713 231.714 324.005 233.308 334.779 229.729Z" fill="#FF5B39"/>
<path d="M313.416 178.666C313.416 178.666 309.954 180.733 309.934 182.574C309.912 184.417 312.232 187.318 312.232 187.318L315.632 183.421L318.923 188.148C318.923 188.148 329.506 180.025 322.546 175.565C315.585 171.105 313.416 178.666 313.416 178.666Z" fill="white"/>
<path d="M307.046 162.205C307.046 162.205 304.457 176.59 312.332 176.442C320.209 176.293 323.133 170.632 322.58 167.231C322.027 163.83 321.57 157.071 314.817 156.246C308.065 155.422 307.046 162.205 307.046 162.205Z" fill="#F5F1D4"/>
<path d="M329.512 159.015C328.991 157.986 328.015 157.285 327.052 156.649L327.065 156.623C327.088 155.97 326.964 155.312 326.706 154.712C326.434 154.084 326.02 153.526 325.561 153.018C325.675 153.793 325.738 154.745 325.564 155.508C325.222 154.707 324.867 153.881 324.244 153.271C323.812 152.849 323.271 152.554 322.724 152.296C320.233 151.125 317.417 150.655 314.68 150.954C314.054 151.023 313.431 151.128 312.803 151.096C312.176 151.062 311.531 150.87 311.088 150.424C311.403 151.242 311.896 152.219 312.585 152.758C306.74 154.774 307.589 160.409 307.589 160.409C309.493 159.673 311.475 160.632 311.475 160.632C311.261 165.898 321.023 168.396 321.023 168.396C322.469 167.015 324.458 167.839 324.458 167.839C325.621 168.638 325.619 169.607 325.619 169.607C327.831 168.011 328.367 159.974 328.367 159.974C328.934 159.82 329.553 159.863 330.094 160.091C329.84 159.77 329.695 159.38 329.512 159.015Z" fill="#161516"/>
<path d="M320.482 170.441C320.711 171.859 322.048 172.823 323.467 172.592C324.886 172.362 325.849 171.025 325.619 169.607C325.389 168.188 324.052 167.225 322.633 167.455C321.214 167.685 320.252 169.022 320.482 170.441Z" fill="#F5F1D4"/>
<path d="M322.017 169.677L322.334 171.626C322.334 171.626 322.375 171.98 322.417 172.551C322.48 173.3 322.555 174.42 322.546 175.565C322.538 177.34 322.348 179.183 321.664 179.818C320.202 181.175 314.642 181.438 313.862 181.084C313.617 180.973 313.484 179.976 313.416 178.665C313.382 177.965 313.363 177.18 313.359 176.389H313.363C313.346 173.99 313.44 171.582 313.44 171.582L322.017 169.677Z" fill="#F5F1D4"/>
<path d="M322.417 172.551C322.48 173.3 322.555 174.42 322.546 175.565C320.35 176.579 315.901 178.5 313.416 178.665C313.382 177.965 313.363 177.18 313.359 176.389H313.363C313.614 176.337 321.441 174.731 322.417 172.551Z" fill="#EAE1B3"/>
<path d="M345.625 113.553H316.317C314.719 113.553 313.423 114.844 313.423 116.442V137.378C313.423 138.976 314.719 140.268 316.317 140.268H317.894V147.513L325.139 140.268H345.625C347.223 140.268 348.519 138.976 348.519 137.378V116.442C348.519 114.844 347.223 113.553 345.625 113.553Z" fill="#015656"/>
<path d="M344.448 120.069H317.496V117.677H344.448V120.069Z" fill="white"/>
<path d="M344.448 125.427H317.496V123.035H344.448V125.427Z" fill="white"/>
<path d="M344.448 130.786H317.496V128.393H344.448V130.786Z" fill="white"/>
<path d="M331.987 136.145H317.496V133.753H331.987V136.145Z" fill="white"/>
<path d="M184.504 278.467H151.015C149.714 278.467 148.659 277.413 148.659 276.111C148.659 274.809 149.714 273.756 151.015 273.756H184.504C185.806 273.756 186.861 274.809 186.861 276.111C186.861 277.413 185.806 278.467 184.504 278.467Z" fill="#302F31"/>
<path d="M169.999 305.158H165.449V282.164H169.999V305.158Z" fill="#EAE1B3"/>
<path d="M171.242 287.421H164.277V278.467H171.242V287.421Z" fill="#F5F1D4"/>
<path d="M181.492 306.973H154.025V304.087H181.492V306.973Z" fill="#302F31"/>
<path d="M158.052 309.454C158.052 310.823 156.941 311.934 155.571 311.934C154.202 311.934 153.091 310.823 153.091 309.454C153.091 308.084 154.202 306.973 155.571 306.973C156.941 306.973 158.052 308.084 158.052 309.454Z" fill="#EAE1B3"/>
<path d="M182.429 309.454C182.429 310.823 181.317 311.934 179.948 311.934C178.579 311.934 177.468 310.823 177.468 309.454C177.468 308.084 178.579 306.973 179.948 306.973C181.317 306.973 182.429 308.084 182.429 309.454Z" fill="#EAE1B3"/>
<path d="M199.595 269.125C199.264 262.162 181.355 260.502 181.355 260.502C180.568 260.502 173.025 260.549 167.01 260.586C160.995 260.549 153.452 260.502 152.665 260.502C152.665 260.502 134.758 262.162 134.425 269.125C134.092 276.09 143.547 312.378 143.547 312.378H151.338C151.338 312.378 152.003 276.09 150.013 274.764C150.013 274.764 159.624 274.605 167.01 273.965C174.396 274.605 184.007 274.764 184.007 274.764C182.018 276.09 182.68 312.378 182.68 312.378H190.473C190.473 312.378 199.928 276.09 199.595 269.125Z" fill="#161516"/>
<path d="M150.43 312.38L150.256 314.491L150.206 315.118L150.027 317.355H137.758C137.067 317.355 136.739 316.49 137.27 316.042C137.446 315.898 137.633 315.753 137.833 315.611C138.481 315.152 139.246 314.724 140.032 314.341C142.505 313.152 145.196 312.38 145.196 312.38H150.43Z" fill="#302F31"/>
<path d="M150.206 315.118L150.027 317.355H137.758C137.067 317.355 136.739 316.49 137.27 316.042C137.446 315.898 137.633 315.753 137.833 315.611C140.559 315.759 144.808 315.779 150.206 315.118Z" fill="white"/>
<path d="M184.299 312.38L184.472 314.491L184.522 315.118L184.701 317.355H196.968C197.66 317.355 197.988 316.49 197.456 316.042C197.282 315.898 197.093 315.753 196.893 315.611C196.247 315.152 195.48 314.724 194.694 314.341C192.223 313.152 189.531 312.38 189.531 312.38H184.299Z" fill="#302F31"/>
<path d="M184.522 315.118L184.701 317.355H196.968C197.66 317.355 197.989 316.49 197.457 316.042C197.282 315.898 197.093 315.753 196.894 315.611C194.168 315.759 189.92 315.779 184.522 315.118Z" fill="white"/>
<path d="M184.522 260.577L184.242 260.708C172.632 266.29 159.16 266.507 147.375 261.315C147.375 261.315 148.261 248.222 150.927 232.595C152.101 225.71 153.628 218.337 155.572 211.368L155.589 211.362L155.612 211.352C156.036 211.189 156.464 211.035 156.896 210.89C162.425 209.054 168.393 209.05 173.917 210.865C174.383 211.02 174.845 211.189 175.309 211.368C181.685 234.136 184.522 260.577 184.522 260.577Z" fill="#FF5B39"/>
<path d="M155.589 211.362L155.572 211.368C153.629 218.337 152.101 225.71 150.927 232.595C147.996 234.774 144.319 237.883 143.718 240.222C143.384 241.506 144.758 242.579 146.768 243.45L144.926 249.922H140.767C140.767 249.922 132.042 247.26 132.54 240.057C133.037 232.853 146.708 217.337 148.657 214.602C149.618 213.257 152.704 212.143 155.589 211.362Z" fill="#F54725"/>
<path d="M158.052 249.922V246.197C158.052 246.197 150.996 245.279 146.768 243.448L144.927 249.922H158.052Z" fill="#F5F1D4"/>
<path d="M175.154 211.362L175.309 211.368C177.253 218.337 178.641 225.71 179.816 232.595C182.746 234.774 186.423 237.883 187.024 240.222C187.357 241.506 185.985 242.579 183.975 243.45L185.816 249.922H189.975C189.975 249.922 198.701 247.26 198.202 240.057C197.705 232.853 184.035 217.337 182.085 214.602C181.125 213.257 178.039 212.143 175.154 211.362Z" fill="#F54725"/>
<path d="M172.691 249.922V246.197C172.691 246.197 179.747 245.279 183.975 243.448L185.816 249.922H172.691Z" fill="#F5F1D4"/>
<path d="M184.299 249.922H149.723V227.256H184.299V249.922Z" fill="#302F31"/>
<path d="M173.917 210.865C173.533 213.228 172.011 217.834 165.951 217.834C159.906 217.834 157.653 213.257 156.896 210.89C157.424 210.717 157.956 210.557 158.493 210.418C163.096 209.194 167.94 209.208 172.533 210.453C172.996 210.576 173.458 210.717 173.917 210.865Z" fill="#F5F1D4"/>
<path d="M172.533 210.453C170.895 212.218 168.085 214.646 164.996 214.725C161.398 214.816 159.328 211.935 158.493 210.418C163.096 209.194 167.94 209.208 172.533 210.453Z" fill="#EAE1B3"/>
<path d="M174.103 202.369C174.103 208.472 170.188 213.42 165.357 213.42C160.526 213.42 156.609 208.472 156.609 202.369C156.609 196.268 160.526 191.32 165.357 191.32C170.188 191.32 174.103 196.268 174.103 202.369Z" fill="#F5F1D4"/>
<path d="M159.532 204.444C159.532 205.885 158.362 207.055 156.922 207.055C155.48 207.055 154.312 205.885 154.312 204.444C154.312 203.003 155.48 201.834 156.922 201.834C158.362 201.834 159.532 203.003 159.532 204.444Z" fill="#F5F1D4"/>
<path d="M176.714 204.444C176.714 205.885 175.545 207.055 174.103 207.055C172.662 207.055 171.493 205.885 171.493 204.444C171.493 203.003 172.662 201.834 174.103 201.834C175.545 201.834 176.714 203.003 176.714 204.444Z" fill="#F5F1D4"/>
<path d="M175.069 202.019C174.958 202.849 173.545 202.91 173.746 203.722C173.514 203.045 173.09 202.079 172.565 201.592C172.554 199.656 171.067 197.826 169.175 197.419C167.801 197.124 166.374 197.514 164.972 197.444C163.324 197.358 161.718 196.608 160.601 195.396C158.653 197.8 157.177 200.823 157.121 203.916C156.87 203.126 156.274 202.591 155.523 202.242C155.523 202.242 153.375 195.118 156.237 193.667C156.237 193.667 155.035 190.143 159.76 189.48C164.486 188.816 172.737 191.014 174.103 187.904C174.103 187.904 176.011 192.962 174.103 194.164C174.103 194.164 176.116 194.119 175.069 202.019Z" fill="#985733"/>
<path d="M57.1827 200.287C57.1856 199.254 57.1284 198.195 57.0566 197.115C56.8426 193.934 57.6943 191.272 59.238 188.945C59.1823 189.115 59.1295 189.287 59.0797 189.458C58.0696 192.969 58.2734 196.894 57.1827 200.287ZM77.8797 201.469C78.0381 198.015 80.1447 194.746 79.6873 191.318C78.8649 185.163 69.9838 181.278 64.4995 183.037C62.5321 183.669 61.1028 185.125 60.1381 186.872C58.5387 188.646 57.2956 190.735 56.6974 193.045C56.1213 195.269 56.4775 197.498 56.5714 199.755C56.6036 200.535 56.5655 201.286 56.4731 202.014C56.1257 202.695 55.7079 203.346 55.1757 203.951C54.2214 205.04 52.9723 205.83 51.9608 206.864C50.6736 208.179 49.8101 209.847 49.0918 211.542C48.0641 213.962 47.2915 216.694 48.111 219.19C48.9232 221.665 51.1457 223.411 53.4532 224.617C57.7969 226.891 62.8561 227.774 67.713 227.101C70.7183 226.684 73.7427 225.626 75.8948 223.486C78.0043 221.386 79.0877 218.418 79.3678 215.455C79.6463 212.493 79.1859 209.51 78.5702 206.599C78.2125 204.905 77.8006 203.198 77.8797 201.469Z" fill="#F7B40A"/>
<path d="M42.5889 282.566C35.3952 281.751 30.6219 278.858 28.4053 273.966C21.9959 259.828 39.7082 234.056 40.4647 232.966L42.5068 234.384C42.3309 234.639 24.84 260.084 30.6703 272.94C32.5013 276.979 36.6061 279.384 42.8689 280.093L42.5889 282.566Z" fill="#F5F1D4"/>
<path d="M59.8103 249.142H39.9694C36.4613 249.142 33.6172 246.298 33.6172 242.79V229.301C33.6172 225.793 36.4613 222.949 39.9694 222.949H59.8103V249.142Z" fill="#302F31"/>
<path d="M69.4625 283.889H35.9731C34.6713 283.889 33.6172 282.835 33.6172 281.534C33.6172 280.233 34.6713 279.179 35.9731 279.179H69.4625C70.7628 279.179 71.8169 280.233 71.8169 281.534C71.8169 282.835 70.7628 283.889 69.4625 283.889Z" fill="#302F31"/>
<path d="M53.0487 278.964C53.0487 278.964 70.4487 279.76 75.9213 278.964L70.6979 312.397H77.4914C77.4914 312.397 92.0898 272.198 87.1157 267.225C82.1401 262.25 66.47 262.797 66.47 262.797L52.043 270.21L53.0487 278.964Z" fill="#161516"/>
<path d="M71.8169 312.378L71.9899 314.488L72.2171 317.357H84.4876C85.181 317.357 85.505 316.489 84.9758 316.04C84.2369 315.42 83.2444 314.844 82.2138 314.343C79.7436 313.152 77.0505 312.378 77.0505 312.378H71.8169Z" fill="#302F31"/>
<path d="M71.8169 312.378L71.9899 314.488C72.7844 314.919 73.6538 315.214 74.5422 315.401C75.9569 315.7 77.4155 315.733 78.8654 315.718C80.1614 315.709 81.4925 315.379 82.2138 314.343C79.7436 313.152 77.0505 312.378 77.0505 312.378H71.8169Z" fill="#F5F1D4"/>
<path d="M74.7781 204.967C74.7781 204.967 78.493 206.531 80.151 213.829C81.8091 221.124 83.1358 238.703 83.1358 238.703L95.396 242.724L95.5719 248.32L70.6982 249.547L71.3623 227.923L74.7781 204.967Z" fill="#F54725"/>
<path d="M106.457 303.134L107.241 305.098L108.304 307.772L120.029 304.161C120.693 303.956 120.747 303.031 120.108 302.76C119.22 302.383 118.101 302.125 116.969 301.949C114.259 301.539 111.457 301.593 111.457 301.593L106.457 303.134Z" fill="#302F31"/>
<path d="M106.457 303.134L107.241 305.098C108.128 305.276 109.046 305.3 109.95 305.22C111.388 305.089 112.791 304.689 114.175 304.251C115.409 303.859 116.585 303.153 116.969 301.949C114.259 301.539 111.457 301.593 111.457 301.593L106.457 303.134Z" fill="#F5F1D4"/>
<path d="M43.2712 256.655C43.2712 256.655 38.9436 275.02 49.556 278.417C60.1684 281.815 90.2054 268.772 90.2054 268.772L105.291 303.466L112.588 301.477C112.588 301.477 103.964 257.27 98.3256 256.655C92.6873 256.041 74.7786 256.655 74.7786 256.655H43.2712Z" fill="#201F20"/>
<path d="M74.7779 256.653L72.0218 257.151L64.1567 258.577L40.8647 262.797C40.8647 262.797 50.5653 236.143 51.1869 232.65C51.81 229.158 51.8935 219.561 51.2309 214.88C50.5653 210.198 57.9276 204.964 57.9276 204.964H74.7779L74.9113 205.124C83.6369 215.352 74.7779 256.653 74.7779 256.653Z" fill="#FF5B39"/>
<path d="M72.0218 257.151L64.1567 258.577C69.276 224.217 61.1221 204.964 61.1221 204.964H74.7779L74.9113 205.124C79.9456 211.557 73.2943 250.07 72.0218 257.151Z" fill="#983333"/>
<path d="M61.1221 204.967C61.1221 204.967 66.0127 212.496 71.3211 210.837C76.6266 209.179 74.7779 204.967 74.7779 204.967H61.1221Z" fill="#F5F1D4"/>
<path d="M101.044 247.096C99.8116 246.008 97.334 242.964 95.3959 242.724C94.4577 242.608 88.516 244.988 88.516 244.988C88.516 244.988 78.2906 244.533 68.8217 243.875L68.3335 249.584C74.9936 249.485 82.5992 249.317 88.9147 249.084C93.6089 250.372 98.4321 249.258 100.735 248.541C101.37 248.348 101.536 247.537 101.044 247.096Z" fill="#F5F1D4"/>
<path d="M57.9292 204.967C57.9292 204.967 49.4717 207.692 47.648 217.642C45.8243 227.591 46.8197 250.806 49.8045 252.466C52.7893 254.124 70.698 251.637 70.698 251.637V243.511L58.7149 242.849C58.7149 242.849 65.5568 211.029 57.9292 204.967Z" fill="#F54725"/>
<path d="M54.9558 310.581H50.4053V287.587H54.9558V310.581Z" fill="#EAE1B3"/>
<path d="M56.1989 292.844H49.2339V283.889H56.1989V292.844Z" fill="#F5F1D4"/>
<path d="M66.4515 312.397H38.9844V309.509H66.4515V312.397Z" fill="#302F31"/>
<path d="M43.0098 314.878C43.0098 316.247 41.8985 317.357 40.5293 317.357C39.16 317.357 38.0488 316.247 38.0488 314.878C38.0488 313.507 39.16 312.397 40.5293 312.397C41.8985 312.397 43.0098 313.507 43.0098 314.878Z" fill="#EAE1B3"/>
<path d="M67.3868 314.878C67.3868 316.247 66.2755 317.357 64.9063 317.357C63.537 317.357 62.4258 316.247 62.4258 314.878C62.4258 313.507 63.537 312.397 64.9063 312.397C66.2755 312.397 67.3868 313.507 67.3868 314.878Z" fill="#EAE1B3"/>
<path d="M238.921 253.555H73.0103V249.922H238.921V253.555Z" fill="#034F50"/>
<path d="M234.319 257.633H77.6133V253.555H234.319V257.633Z" fill="#003132"/>
<path d="M84.6235 320.565L91.2513 257.633H86.2757L81.5405 320.565H84.6235Z" fill="#302F31"/>
<path d="M230.391 320.565L225.655 257.633H220.681L227.308 320.565H230.391Z" fill="#302F31"/>
<path d="M100.536 249.922H81.0205V247.472H100.536V249.922Z" fill="#302F31"/>
<path d="M125.138 249.922H93.8447L98.8233 227.256H130.118L125.138 249.922Z" fill="#302F31"/>
<path d="M77.2889 192.257C77.2889 192.257 79.1918 204.337 72.608 204.07C66.0227 203.803 63.68 199.012 64.2048 196.178C64.7282 193.343 65.2325 187.699 70.8971 187.13C76.5603 186.564 77.2889 192.257 77.2889 192.257Z" fill="#F5F1D4"/>
<path d="M65.9018 198.902C65.6834 200.084 64.5472 200.865 63.3642 200.647C62.1826 200.428 61.4012 199.292 61.6196 198.111C61.8381 196.927 62.9742 196.146 64.1558 196.365C65.3389 196.583 66.1203 197.719 65.9018 198.902Z" fill="#F5F1D4"/>
<path d="M62.6218 196.652C62.6218 196.652 64.3019 196 65.4849 197.181C65.4849 197.181 73.6961 195.269 73.614 190.861C73.614 190.861 75.2896 190.094 76.867 190.745C76.867 190.745 75.4171 183.458 66.0801 185.947C56.7461 188.436 61.6191 198.111 61.6191 198.111C61.6191 198.111 61.6352 197.3 62.6218 196.652Z" fill="#F6B40A"/>
<path d="M64.6323 198.235L64.3318 199.859C64.3318 199.859 64.2907 200.156 64.2423 200.631C64.1778 201.258 64.0943 202.193 64.0811 203.151C64.0562 204.636 64.1808 206.181 64.7423 206.723C65.94 207.887 70.5872 208.207 71.2454 207.924C71.4521 207.836 71.5826 207.006 71.6633 205.91C71.7028 205.325 71.7336 204.669 71.7527 204.007H71.7483C71.8055 202.001 71.7703 199.984 71.7703 199.984L64.6323 198.235Z" fill="#F5F1D4"/>
<path d="M64.2418 200.631C64.1773 201.258 64.0938 202.193 64.0806 203.151C65.8984 204.039 69.5869 205.725 71.6627 205.91C71.7023 205.325 71.7331 204.669 71.7521 204.007H71.7478C71.5396 203.957 65.0203 202.473 64.2418 200.631Z" fill="#EAE1B3"/>
<path d="M107.995 147.473H78.6864C77.0884 147.473 75.7925 148.763 75.7925 150.363V171.299C75.7925 172.895 77.0884 174.187 78.6864 174.187H80.2638V181.432L87.5088 174.187H107.995C109.593 174.187 110.889 172.895 110.889 171.299V150.363C110.889 148.763 109.593 147.473 107.995 147.473Z" fill="#015656"/>
<path d="M106.815 153.592L99.1771 155.749L101.307 157.823L97.3431 161.896L89.4091 156.088L80.2993 165.696L81.7419 167.065L89.6466 158.728L97.563 164.523L102.735 159.212L104.865 161.286L106.815 153.592Z" fill="white"/>
<path d="M146.973 123.035C146.973 131.017 140.502 137.49 132.52 137.49C124.537 137.49 118.066 131.017 118.066 123.035C118.066 115.053 124.537 108.582 132.52 108.582C140.502 108.582 146.973 115.053 146.973 123.035Z" fill="white"/>
<path d="M136.55 112.299C135.686 111.975 134.783 111.757 133.865 111.648L133.981 110.66C134.98 110.778 135.962 111.015 136.9 111.368L136.55 112.299ZM128.422 112.324L128.066 111.395C129.004 111.037 129.985 110.792 130.98 110.671L131.102 111.656C130.186 111.77 129.284 111.994 128.422 112.324ZM141.074 115.401C140.458 114.712 139.762 114.098 139.001 113.576L139.564 112.755C140.389 113.323 141.147 113.99 141.817 114.739L141.074 115.401ZM123.919 115.453L123.172 114.796C123.836 114.042 124.591 113.371 125.415 112.798L125.983 113.614C125.225 114.142 124.53 114.761 123.919 115.453ZM143.642 120.248C143.419 119.352 143.087 118.486 142.653 117.669L143.532 117.203C144.003 118.09 144.365 119.034 144.607 120.006L143.642 120.248ZM121.379 120.314L120.412 120.079C120.649 119.106 121.006 118.159 121.47 117.269L122.353 117.729C121.925 118.549 121.596 119.42 121.379 120.314ZM144.62 126.015L143.654 125.778C143.872 124.885 143.985 123.963 143.985 123.035L144.979 122.987V123.035C144.979 124.042 144.858 125.045 144.62 126.015ZM120.424 126.039C120.183 125.07 120.062 124.067 120.059 123.06L121.054 123.058C121.057 123.986 121.168 124.908 121.39 125.8L120.424 126.039ZM141.848 131.294L141.105 130.635C141.719 129.943 142.247 129.177 142.675 128.361L143.557 128.824C143.09 129.711 142.516 130.542 141.848 131.294ZM123.205 131.312C122.538 130.56 121.961 129.732 121.494 128.846L122.373 128.381C122.804 129.197 123.334 129.959 123.949 130.651L123.205 131.312ZM136.948 134.685L136.595 133.756C137.454 133.429 138.278 132.995 139.038 132.469L139.603 133.287C138.778 133.858 137.884 134.329 136.948 134.685ZM128.114 134.694C127.178 134.341 126.282 133.872 125.455 133.3L126.019 132.482C126.78 133.007 127.606 133.438 128.468 133.763L128.114 134.694ZM132.52 135.495C132.023 135.495 131.523 135.465 131.033 135.408L131.15 134.418C132.062 134.528 133.005 134.527 133.912 134.416L134.033 135.405C133.536 135.465 133.025 135.495 132.52 135.495Z" fill="#015656"/>
<path d="M135.681 129.639L131.538 125.496V115.402H133.528V124.673L137.086 128.233L135.681 129.639Z" fill="#015656"/>
<path d="M154.844 169.151V175.785L151.409 179.164H144.831V169.151H154.844Z" fill="#F5F1D4"/>
<path d="M154.844 175.785L151.409 179.164V175.785H154.844Z" fill="#EAE1B3"/>
<path d="M140.475 159.446V169.459H130.462V159.446H140.475Z" fill="white"/>
<path d="M241.974 97.1262C241.974 101.872 238.127 105.718 233.383 105.718C228.637 105.718 224.791 101.872 224.791 97.1262C224.791 92.3807 228.637 88.5339 233.383 88.5339C238.127 88.5339 241.974 92.3807 241.974 97.1262Z" fill="#FF512F"/>
<path d="M283.99 345.509C283.99 350.254 280.143 354.101 275.397 354.101C270.653 354.101 266.807 350.254 266.807 345.509C266.807 340.763 270.653 336.916 275.397 336.916C280.143 336.916 283.99 340.763 283.99 345.509Z" fill="#FF512F"/>
<path d="M227.531 78.8012C227.531 81.7244 225.161 84.0949 222.236 84.0949C219.313 84.0949 216.942 81.7244 216.942 78.8012C216.942 75.878 219.313 73.5074 222.236 73.5074C225.161 73.5074 227.531 75.878 227.531 78.8012Z" fill="#FF512F"/>
<path d="M261.7 332.134C261.7 335.059 259.33 337.428 256.407 337.428C253.483 337.428 251.113 335.059 251.113 332.134C251.113 329.211 253.483 326.842 256.407 326.842C259.33 326.842 261.7 329.211 261.7 332.134Z" fill="#FF512F"/>
<path d="M146.211 202.237L146.621 203.684L147.033 202.237C147.378 201.018 148.2 199.989 149.311 199.38C148.2 198.772 147.378 197.743 147.033 196.523L146.621 195.076L146.211 196.523C145.866 197.743 145.044 198.772 143.931 199.38C145.044 199.989 145.866 201.018 146.211 202.237Z" fill="white"/>
<path d="M142.409 208.106L142.726 209.223L143.044 208.106C143.312 207.162 143.945 206.366 144.806 205.895C143.945 205.423 143.312 204.627 143.044 203.684L142.726 202.566L142.409 203.684C142.142 204.627 141.506 205.423 140.647 205.895C141.506 206.366 142.142 207.162 142.409 208.106Z" fill="white"/>
<path d="M341.17 164.527L341.58 165.974L341.991 164.527C342.337 163.308 343.158 162.278 344.27 161.67C343.158 161.062 342.337 160.032 341.991 158.813L341.58 157.366L341.17 158.813C340.824 160.032 340.003 161.062 338.892 161.67C340.003 162.278 340.824 163.308 341.17 164.527Z" fill="white"/>
<path d="M337.369 170.394L337.685 171.514L338.002 170.394C338.27 169.452 338.905 168.656 339.765 168.185C338.905 167.714 338.27 166.918 338.002 165.974L337.685 164.856L337.369 165.974C337.1 166.918 336.466 167.714 335.605 168.185C336.466 168.656 337.1 169.452 337.369 170.394Z" fill="white"/>
<path d="M286.032 218.27L285.504 220.131L284.976 218.27C284.532 216.701 283.475 215.376 282.044 214.594C283.475 213.811 284.532 212.488 284.976 210.918L285.504 209.057L286.032 210.918C286.478 212.488 287.533 213.811 288.964 214.594C287.533 215.376 286.478 216.701 286.032 218.27Z" fill="white"/>
<path d="M290.923 225.818L290.516 227.256L290.107 225.818C289.764 224.603 288.946 223.58 287.839 222.974C288.946 222.369 289.764 221.345 290.107 220.131L290.516 218.692L290.923 220.131C291.266 221.345 292.084 222.369 293.191 222.974C292.084 223.58 291.266 224.603 290.923 225.818Z" fill="white"/>
<path d="M88.5952 203.217L88.1862 204.664L87.7757 203.217C87.4298 201.997 86.6073 200.966 85.4961 200.358C86.6073 199.75 87.4298 198.72 87.7757 197.501L88.1862 196.054L88.5952 197.501C88.9412 198.72 89.7637 199.75 90.8749 200.358C89.7637 200.966 88.9412 201.997 88.5952 203.217Z" fill="#D62A92"/>
<path d="M92.3979 209.082L92.0798 210.202L91.7616 209.082C91.4963 208.139 90.8601 207.343 89.9995 206.873C90.8601 206.402 91.4963 205.606 91.7616 204.664L92.0798 203.544L92.3979 204.664C92.6662 205.606 93.2995 206.402 94.16 206.873C93.2995 207.343 92.6662 208.139 92.3979 209.082Z" fill="#D62A92"/>
</svg>
