<svg width="605" height="874" viewBox="0 0 605 874" fill="none" xmlns="http://www.w3.org/2000/svg">
<path opacity="0.2" d="M-286 490.643V45H-245.919C-197.772 45 -162.684 88.9694 -138.568 130.641C-116.55 168.676 -77.5994 192.115 -36.7217 205.352C7.88367 219.82 58.0805 211.512 100.601 229.234C119.113 236.942 135.666 251.568 141.163 270.838C146.217 288.687 141.352 307.609 139.457 326.09C137.593 344.538 140.057 365.893 154.968 376.918C170.352 388.322 191.833 383.868 210.345 378.908C240.766 370.758 305.432 338.726 326.25 379.73C340.56 407.908 308.907 436.655 299.082 466.729C288.657 498.73 305.463 534.932 332.094 555.529C358.724 576.126 393.094 583.802 426.58 587.182C451.947 589.741 477.914 590.278 501.954 598.681C526.026 607.084 548.518 625.501 553.351 650.521C563.113 701.033 501.196 736.73 489.444 786.801C488.933 788.977 488.527 791.163 488.222 793.354C483.837 824.867 462.728 873.105 430.911 873.105H415.481C391.909 873.105 375.189 849.919 375.118 826.347C374.993 785.129 357.03 746.302 310.265 740.205C243.926 730.728 168.109 793.909 117.565 733.887C79.6566 689.661 127.042 617.004 67.0205 585.413C-5.63696 550.664 -78.2944 591.731 -150.952 588.572H-151.426C-175.779 588.474 -197.02 572.098 -203.951 548.753C-222.282 487.041 -254.931 505.838 -286 490.643Z" fill="#16ABAC"/>
<path opacity="0.2" d="M-236 445.643V0H-195.919C-147.772 0 -112.684 43.9694 -88.5685 85.641C-66.5501 123.676 -27.5994 147.115 13.2783 160.352C57.8837 174.82 108.08 166.512 150.601 184.234C169.113 191.942 185.666 206.568 191.163 225.838C196.217 243.687 191.352 262.609 189.457 281.09C187.593 299.538 190.057 320.893 204.968 331.918C220.352 343.322 241.833 338.868 260.345 333.908C290.766 325.758 355.432 293.726 376.25 334.73C390.56 362.908 358.907 391.655 349.082 421.729C338.657 453.73 355.463 489.932 382.094 510.529C408.724 531.126 443.094 538.802 476.58 542.182C501.947 544.741 527.914 545.278 551.954 553.681C576.026 562.084 598.518 580.501 603.351 605.521C613.113 656.033 551.196 691.73 539.444 741.801C538.933 743.977 538.527 746.163 538.222 748.354C533.837 779.867 512.728 828.105 480.911 828.105H465.481C441.909 828.105 425.189 804.919 425.118 781.347C424.993 740.129 407.03 701.302 360.265 695.205C293.926 685.728 218.109 748.909 167.565 688.887C129.657 644.661 177.042 572.004 117.02 540.413C44.363 505.664 -28.2944 546.731 -100.952 543.572H-101.426C-125.779 543.474 -147.02 527.098 -153.951 503.753C-172.282 442.041 -204.931 460.838 -236 445.643Z" fill="#16ABAC"/>
</svg>
