<svg width="640" height="469" viewBox="0 0 640 469" fill="none" xmlns="http://www.w3.org/2000/svg">
<path opacity="0.5" d="M277.592 101.26C256.014 23.005 158.777 -2.20435 103.05 56.2816C102.25 57.1209 101.451 57.9754 100.652 58.8423C20.7605 145.664 58.5022 359.619 225.233 413.848C391.963 468.075 565.387 369.05 575.13 280.528C584.872 192.005 507.95 164.19 388.577 188.943C321.134 202.928 291.024 149.977 277.592 101.26Z" fill="#29C1C2"/>
<path opacity="0.5" d="M416.289 114.646C393.982 118.276 387.8 138.036 405.023 152.053C410.716 156.685 418.847 160.535 430.429 162.456C474.553 169.773 497.966 150.258 480.279 124.955C469.364 109.337 438.397 111.047 416.289 114.646Z" fill="#29C1C2"/>
<path opacity="0.5" d="M60.5966 272.766C46.7287 254.924 26.4165 258.957 22.3533 280.786C21.0097 288.001 21.5221 296.98 25.3803 308.066C40.0777 350.296 68.4256 361.502 82.1796 333.865C90.6689 316.807 74.3415 290.446 60.5966 272.766Z" fill="#29C1C2"/>
<path opacity="0.5" d="M590.855 290.816C588.8 301.571 597.683 309.188 607.749 305.046C611.075 303.675 614.43 301.034 617.417 296.392C628.789 278.704 623.03 263.532 607.194 265.089C597.422 266.05 592.891 280.158 590.855 290.816Z" fill="#29C1C2"/>
<path opacity="0.5" d="M534.459 177.322C545.181 179.558 552.95 170.809 548.978 160.676C547.665 157.327 545.08 153.927 540.487 150.864C522.993 139.196 507.72 144.694 509.008 160.549C509.803 170.335 523.833 175.105 534.459 177.322Z" fill="#29C1C2"/>
<path opacity="0.5" d="M273.866 62.2298C282.355 69.1485 293.282 64.9561 294.418 54.1322C294.794 50.5555 294.065 46.348 291.397 41.5151C281.237 23.1057 265.146 20.9619 258.991 35.6304C255.192 44.6846 265.454 55.3732 273.866 62.2298Z" fill="#29C1C2"/>
<path d="M617.436 344.618C634.46 327.509 647.425 308.175 634.528 305.161C621.619 302.142 599.939 335.837 596.161 366.506L592.38 376.632C595.524 354.33 587.88 327.164 576.688 326.043C565.568 324.932 572.299 342.553 581.131 357.622C587.854 369.095 589.627 378.145 590.07 382.82L572.212 430.644C577.089 395.312 564.98 352.445 547.272 350.674C529.626 348.91 540.306 376.871 554.321 400.781C564.914 418.851 567.764 433.142 568.491 440.61L564.931 450.145C566.489 451.023 568.051 451.888 569.617 452.747L590.861 395.851C594.96 392.792 601.183 389.096 610.044 386.099C626.594 380.502 643.228 371.6 634.098 365.155C626.174 359.563 607.548 370.329 594.718 385.522L602.064 365.846C605.378 360.148 610.089 352.002 617.436 344.618Z" fill="#15ADAE"/>
<path d="M80.8069 121.407C83.0145 100.742 81.2961 80.7716 71.0092 85.6969C60.713 90.6278 64.3214 124.94 78.3215 147.572L81.2416 156.409C71.3273 139.738 51.5459 125.613 43.4266 130.892C35.3586 136.139 49.3802 144.346 63.438 149.706C74.1386 153.786 80.2076 158.909 83.0275 161.811L96.8208 203.551C81.0458 177.194 49.7987 154.932 36.9519 163.287C24.1498 171.611 46.3991 184.632 68.7038 193.137C85.5599 199.564 95.1802 207.627 99.6953 212.249L102.446 220.572C103.964 220.322 105.481 220.062 106.996 219.793L90.5846 170.136C91.6877 165.872 93.8742 160.036 98.2087 153.248C106.305 140.572 112.676 125.629 103.07 126.221C94.7329 126.734 88.0286 144.002 87.6051 161.121L81.9303 143.947C81.0814 138.334 79.8543 130.326 80.8069 121.407Z" fill="#15ADAE"/>
<path d="M502.521 401.454C502.736 402.626 502.986 403.903 503.279 405.262V405.266C506.344 419.513 513.87 442.838 530.802 447.424C530.802 447.424 521.585 399.38 554.435 386.867C587.284 374.355 583.651 362.441 581.774 341.232C579.897 320.024 572.638 315.98 595.431 296.115C618.222 276.25 613.863 246.662 613.863 246.662C613.863 246.662 592.293 280.445 569.255 281.229C546.215 282.013 542.18 301.676 543.162 316.299C544.144 330.92 524.578 332.574 513.99 341.054C503.403 349.537 501.409 394.075 501.409 394.075C501.409 394.075 501.701 396.985 502.521 401.454Z" fill="#29C1C2"/>
<path d="M502.521 401.454C502.736 402.626 502.986 403.903 503.279 405.262C505.64 398.112 508.965 392.109 512.073 387.5C519.442 376.586 529.819 367.62 539.153 364.102C554.013 358.503 561.27 343.931 562.677 316.852C563.491 301.135 579.939 291.849 580.109 291.759C580.59 291.492 580.765 290.885 580.497 290.405C580.231 289.922 579.623 289.746 579.144 290.013C578.425 290.409 561.555 299.912 560.683 316.747C559.324 342.926 552.467 356.956 538.45 362.238C528.603 365.949 518.122 374.975 510.419 386.383C507.697 390.415 504.816 395.492 502.521 401.454Z" fill="#0BA3A4"/>
<path d="M138.919 447.163H162.002C149.529 445.102 118.606 431.829 115.849 405.216C112.356 371.508 100.35 371.93 80.1191 368.404C59.8884 364.879 54.3149 370.634 41.4698 344.465C28.6246 318.295 -0.0350952 314.997 -0.0350952 314.997C-0.0350952 314.997 26.0857 343.49 21.0868 365.145C16.0874 386.799 33.4094 395.447 47.2799 398.168C61.1515 400.889 57.8263 419.526 63.0976 431.495C65.5032 436.958 75.3485 442.62 85.3435 447.163H138.919Z" fill="#15ADAE"/>
<path d="M88.9212 413.982C89.9293 424.076 95.7357 436.081 104.453 446.093C104.759 446.445 105.078 446.803 105.404 447.163H108.031C107.279 446.371 106.567 445.591 105.904 444.83C97.5652 435.253 91.7907 423.359 90.8327 413.79C89.3112 398.557 77.5355 388.173 52.6488 380.13C38.2039 375.462 33.6413 357.833 33.5998 357.652C33.4708 357.139 32.9482 356.824 32.4346 356.954C31.9174 357.082 31.6024 357.604 31.7314 358.117C31.9224 358.884 36.583 376.959 52.0555 381.96C76.1143 389.735 87.4843 399.61 88.9212 413.982Z" fill="#008F90"/>
<path d="M151.369 384.604C150.88 386.241 150.326 388.024 149.701 389.918L149.699 389.922C143.136 409.779 129.674 443.221 104.811 447.163C104.811 447.163 124.489 378.713 79.5501 355.815C34.6122 332.915 41.6268 316.477 47.5668 286.512C53.5059 256.547 64.4827 251.894 35.0221 220.05C5.56143 188.208 16.3301 146.666 16.3301 146.666C16.3301 146.666 41.9072 198.177 74.6542 202.836C107.4 207.495 110.133 236.166 106.484 256.876C102.834 277.583 130.494 282.949 144.293 296.676C158.092 310.402 154.089 374.245 154.089 374.245C154.089 374.245 153.224 378.353 151.369 384.604Z" fill="#29C1C2"/>
<path d="M151.369 384.604C150.88 386.241 150.326 388.024 149.701 389.918C147.429 379.357 143.613 370.279 139.884 363.228C131.052 346.525 117.626 332.139 104.852 325.686C84.5139 315.415 76.4023 293.513 78.5598 254.665C79.8144 232.118 57.7773 216.345 57.5496 216.19C56.905 215.736 56.748 214.843 57.2027 214.198C57.6574 213.549 58.5517 213.392 59.1957 213.848C60.1586 214.523 82.7621 230.671 81.4196 254.824C79.3317 292.377 86.9568 313.445 106.141 323.136C119.62 329.941 133.181 344.429 142.417 361.889C145.68 368.059 149.012 375.744 151.369 384.604Z" fill="#0BA3A4"/>
<path d="M169.193 431.067C169.269 436.27 169.363 441.686 169.476 447.163H219.682C219.778 441.168 219.852 435.421 219.906 430.032C220.058 415.423 220.074 403.4 220.063 395.926C220.058 390.626 220.036 387.621 220.036 387.621L168.84 387.077C168.84 387.077 168.84 391.499 168.88 398.732C168.913 406.769 169.003 418.278 169.193 431.067Z" fill="#201F20"/>
<path d="M168.88 398.732C168.913 406.769 169.003 418.278 169.193 431.067C184.965 432.271 202.254 432.281 219.906 430.032C220.058 415.423 220.074 403.399 220.063 395.926L168.88 398.732Z" fill="#1C1A2C"/>
<path d="M105.922 419.526C105.978 427.706 106.076 437.079 106.237 447.163H156.447C156.571 441.258 156.671 435.426 156.752 429.853C156.926 417.891 157.015 407.123 157.06 399.38C157.099 391.763 157.099 387.077 157.099 387.077L105.882 387.621C105.882 387.621 105.842 393.049 105.854 402.185C105.854 407.016 105.876 412.876 105.922 419.526Z" fill="#201F20"/>
<path d="M105.854 402.185C105.854 407.016 105.876 412.876 105.922 419.526C116.117 422.531 134.37 427.205 156.752 429.853C156.926 417.891 157.015 407.122 157.06 399.38L105.854 402.185Z" fill="#1C1A2C"/>
<path d="M190.02 117.793C190.02 117.793 198.088 110.026 198.06 102.353C198.033 94.6821 192.817 96.9488 190.02 89.8009C187.221 82.6531 178.904 78.2937 174.344 79.1661C169.782 80.0372 160.153 62.2545 147.092 65.3936C134.031 68.5313 135.169 85.269 129.542 87.7095C123.917 90.1501 125.486 100.088 128.452 102.353C131.416 104.621 132.67 113.729 134.339 113.524C136.007 113.318 190.02 117.793 190.02 117.793Z" fill="#2F335D"/>
<path d="M135.72 117.61C135.72 117.61 130.648 110.848 126.876 116.439C123.105 122.03 128.438 138.542 137.671 134.512L135.72 117.61Z" fill="#F25349"/>
<path d="M135.655 129.41C135.314 129.41 135.001 129.185 134.904 128.84C133.473 123.742 128.189 121.675 128.137 121.654C127.735 121.501 127.532 121.05 127.685 120.648C127.837 120.246 128.287 120.043 128.689 120.195C128.936 120.288 134.759 122.548 136.408 128.419C136.524 128.833 136.281 129.263 135.866 129.381C135.796 129.4 135.724 129.41 135.655 129.41Z" fill="#E43342"/>
<path d="M130.322 126.841C130.177 126.841 130.031 126.801 129.9 126.716C129.538 126.483 129.433 126 129.667 125.638C129.707 125.579 130.64 124.153 132.595 123.278C132.987 123.101 133.45 123.278 133.627 123.671C133.802 124.065 133.627 124.526 133.233 124.702C131.721 125.379 130.985 126.473 130.978 126.483C130.831 126.715 130.578 126.841 130.322 126.841Z" fill="#E43342"/>
<path d="M187.994 117.61C187.994 117.61 193.066 110.848 196.838 116.439C200.609 122.03 195.277 138.542 186.043 134.512L187.994 117.61Z" fill="#F25349"/>
<path d="M188.059 129.41C188.4 129.41 188.714 129.185 188.81 128.84C190.241 123.742 195.525 121.675 195.578 121.654C195.979 121.501 196.182 121.05 196.029 120.648C195.877 120.246 195.427 120.043 195.025 120.195C194.778 120.288 188.955 122.548 187.307 128.419C187.191 128.833 187.434 129.263 187.848 129.381C187.918 129.4 187.99 129.41 188.059 129.41Z" fill="#E43342"/>
<path d="M193.392 126.841C193.537 126.841 193.683 126.801 193.814 126.716C194.176 126.483 194.281 126 194.048 125.638C194.008 125.579 193.074 124.153 191.119 123.278C190.727 123.101 190.263 123.278 190.088 123.671C189.912 124.065 190.088 124.526 190.481 124.702C191.993 125.379 192.729 126.473 192.736 126.483C192.884 126.715 193.136 126.841 193.392 126.841Z" fill="#E43342"/>
<path d="M174.344 148.519V164.94C174.344 164.94 169.445 173.303 162.82 173.873C156.201 174.45 150.321 166.673 150.321 166.673V149.673L174.344 148.519Z" fill="#F6876F"/>
<path d="M174.344 148.519V155.805C169.898 160.737 162.003 161.968 150.321 160.244V149.673L174.344 148.519Z" fill="#F25349"/>
<path d="M191.662 106.344C191.357 112.726 190.749 120.706 189.531 127.088C189.227 128.679 188.884 130.177 188.501 131.519C185.044 143.62 176.397 164.372 152.192 155.727C141.5 151.912 136.544 140.007 134.336 127.899C132.838 119.676 132.612 111.367 132.721 105.432C132.838 99.3688 136.147 93.8305 141.423 90.8433C155.711 82.7443 170.787 85.7633 180.713 89.5788C187.604 92.2237 192.012 98.9878 191.662 106.344Z" fill="#F6876F"/>
<path d="M161.355 136.79C177.573 134.007 174.675 143.5 174.57 143.839V143.845C174.565 143.85 174.565 143.85 174.565 143.85C173.467 144.897 172.347 145.776 171.233 146.377C164.949 149.771 164.269 149.259 161.789 149.368C159.268 149.489 155.789 148.741 152.258 146.769C151.159 146.152 149.516 144.959 147.716 143.316C147.716 143.316 145.167 134.608 161.355 136.79ZM134.339 127.897C134.339 127.897 136.688 141.889 138.905 146.988C141.129 152.089 147.189 153.05 149.466 157.361C152.711 163.506 157.66 168.376 165.799 165.409C172.572 162.939 172.266 159.477 176.06 156.799C182.559 152.21 185.782 147.161 186.045 142.977C186.306 138.793 189.534 127.086 189.534 127.086L186.045 126.841C186.045 126.841 184.056 130.957 181.132 135.492C178.196 129.048 164.055 133.735 164.055 133.735L161.355 134.608L158.582 133.735C158.582 133.735 144.274 129.247 141.448 136.004C139.717 133.358 138.309 130.382 137.671 127.229L134.339 127.897Z" fill="#2F335D"/>
<path d="M151.606 119.752C151.606 121.507 150.703 122.927 149.589 122.927C148.473 122.927 147.57 121.507 147.57 119.752C147.57 117.999 148.473 116.579 149.589 116.579C150.703 116.579 151.606 117.999 151.606 119.752Z" fill="#2F335D"/>
<path d="M175.603 119.752C175.603 121.507 174.7 122.927 173.584 122.927C172.47 122.927 171.566 121.507 171.566 119.752C171.566 117.999 172.47 116.579 173.584 116.579C174.7 116.579 175.603 117.999 175.603 119.752Z" fill="#2F335D"/>
<path d="M181.529 109.301C181.529 109.301 173.189 106.006 166.767 108.779L167.409 112.349C167.409 112.349 176.835 111.552 181.585 113.477C182.009 112.102 182.072 110.713 181.529 109.301Z" fill="#2F335D"/>
<path d="M141.871 109.316C141.871 109.316 150.274 105.998 156.744 108.792L156.096 112.389C156.096 112.389 146.601 111.586 141.816 113.524C141.388 112.139 141.326 110.739 141.871 109.316Z" fill="#2F335D"/>
<path d="M162.129 133.055C163.445 133.055 164.75 132.543 164.953 132.46C165.351 132.298 165.542 131.842 165.38 131.443C165.218 131.044 164.761 130.854 164.363 131.017C163.658 131.301 161.966 131.75 161.233 131.312C161.092 131.226 160.897 131.058 160.849 130.584C160.567 127.861 161.313 118.729 161.321 118.637C161.356 118.208 161.037 117.831 160.608 117.796C160.175 117.759 159.801 118.081 159.765 118.51C159.735 118.889 159 127.879 159.297 130.746C159.409 131.825 159.975 132.378 160.432 132.651C160.931 132.949 161.531 133.055 162.129 133.055Z" fill="#F25349"/>
<path d="M152.179 138.351C152.773 141.33 154.741 146.813 161.375 146.813C168.025 146.813 169.889 141.803 170.53 138.351H152.179Z" fill="white"/>
<path d="M191.662 106.344C191.357 112.726 190.749 120.706 189.531 127.088L186.043 126.841C186.043 126.841 186.888 121.453 187.278 117.942C187.668 114.432 188.331 107.869 185.335 107.051C182.345 106.239 184.1 98.7531 179.94 95.5077C175.781 92.2554 166.542 89.391 160.409 93.1679C154.275 96.935 147.298 94.852 144.473 95.5077C141.641 96.1551 137.801 100.056 138.839 103.699C139.885 107.334 136.764 109.551 136.007 113.318C135.249 117.087 137.668 127.229 137.668 127.229L134.336 127.899C132.838 119.676 132.612 111.367 132.721 105.432C132.838 99.3687 136.147 93.8305 141.423 90.8432C155.711 82.7443 170.787 85.7633 180.713 89.5788C187.604 92.2236 192.012 98.9878 191.662 106.344Z" fill="#2F335D"/>
<path d="M230.644 412.298C214.855 416.294 199.066 418.88 183.266 420.071C182.55 420.122 181.839 420.175 181.122 420.223C178.95 420.369 176.778 420.491 174.607 420.586C163.861 421.048 153.11 420.867 142.36 420.038C140.192 419.872 138.027 419.68 135.859 419.457C135.166 419.392 134.475 419.319 133.779 419.239C120.943 417.846 108.112 415.531 95.2669 412.298C95.1381 400.468 95.2842 363.07 96.0113 322.513C96.095 317.639 96.1893 312.719 96.2971 307.793C97.4353 254.341 99.6311 200.083 103.581 194.649C107.367 189.447 118.779 182.836 129.689 176.873C130.34 176.518 130.991 176.163 131.637 175.811C134.091 174.481 136.489 173.189 138.744 171.964C143.578 169.333 147.747 166.996 150.323 165.19V166.676C150.323 166.676 156.197 174.449 162.817 173.875C168.851 173.356 173.445 166.387 174.225 165.138C177.071 167.142 182.184 169.905 188.11 173.035C189.76 173.909 191.466 174.804 193.205 175.724C193.846 176.063 194.49 176.404 195.137 176.749C207.203 183.146 220.211 190.358 224.116 195.72C224.409 196.116 224.686 196.781 224.951 197.693C227.261 205.514 228.695 231.47 229.569 262.9C229.573 263.012 229.576 263.126 229.58 263.241C229.617 264.511 229.649 265.792 229.681 267.08C229.687 267.247 229.692 267.416 229.694 267.588C229.98 278.612 230.196 290.218 230.363 301.882C230.376 302.806 230.393 303.731 230.404 304.658C230.408 305.124 230.415 305.583 230.418 306.049C230.457 308.346 230.48 310.642 230.502 312.928C230.526 314.615 230.546 316.299 230.562 317.987C230.996 360.141 230.818 399.904 230.644 412.298Z" fill="#FF5B39"/>
<path d="M229.681 267.08C225.881 260.875 221.802 254.544 217.959 248.942C217.949 248.927 217.938 248.913 217.931 248.901C216.317 246.549 214.747 244.327 213.255 242.3C213.23 242.261 213.205 242.228 213.177 242.195C212.711 241.558 212.248 240.94 211.796 240.338C211.723 240.233 211.667 240.125 211.632 240.011L211.629 240.007C211.508 239.599 211.643 239.148 212.001 238.876C212.465 238.525 213.122 238.615 213.47 239.078C218.085 245.19 223.988 253.979 229.569 262.9C229.573 263.011 229.576 263.126 229.58 263.241C229.617 264.511 229.649 265.792 229.681 267.08Z" fill="#F04220"/>
<path d="M224.278 194.857C224.278 194.857 248.089 238.472 262.604 260.575C262.604 260.575 270.859 252.992 281.594 242.852C293.235 231.855 309.154 213.478 309.154 213.478L317.963 223.922C317.963 223.922 282.195 288.271 266.152 296.358C250.108 304.445 220.545 247.204 220.545 247.204L224.278 194.857Z" fill="#FF5B39"/>
<path d="M123.457 366.748C123.443 366.748 123.431 366.748 123.418 366.748C122.823 366.726 122.359 366.227 122.38 365.632C123.63 330.411 105.36 319 105.176 318.89C104.667 318.582 104.501 317.922 104.806 317.413C105.111 316.903 105.771 316.736 106.281 317.04C106.484 317.162 111.313 320.095 115.991 327.61C120.261 334.471 125.208 346.65 124.531 365.71C124.512 366.291 124.034 366.748 123.457 366.748Z" fill="#F04220"/>
<path d="M201.395 333.565C200.837 333.565 200.365 333.137 200.322 332.573C199.743 325.156 202.187 319.746 205.28 312.896C206.186 310.892 207.121 308.821 208.079 306.496C214.084 291.937 211.067 275.29 211.036 275.125C210.927 274.54 211.312 273.978 211.896 273.869C212.481 273.757 213.043 274.143 213.154 274.729C213.285 275.433 216.317 292.173 210.072 307.318C209.1 309.674 208.157 311.763 207.244 313.782C204.161 320.607 201.933 325.538 202.469 332.406C202.516 332.999 202.071 333.517 201.479 333.562C201.45 333.565 201.423 333.565 201.395 333.565Z" fill="#F04220"/>
<path d="M138.743 171.963C139.204 175.43 139.879 179.929 140.616 185.04C140.841 186.557 141.066 188.13 141.297 189.747C142.045 195.024 142.819 200.767 143.479 206.573C143.657 208.131 143.824 209.695 143.98 211.254C144.561 217.002 145 222.713 145.158 228.023C145.21 229.629 145.231 231.197 145.22 232.719C145.21 236.772 144.985 240.497 144.494 243.681C144.179 245.695 143.901 247.663 143.657 249.588C143.452 251.183 143.269 252.752 143.107 254.294C142.479 260.284 142.164 265.859 142.077 271.115C142.05 272.712 142.045 274.274 142.061 275.807C142.108 281.774 142.447 287.335 142.94 292.627C143.085 294.213 143.248 295.772 143.415 297.31C144.059 303.094 144.843 308.602 145.582 314.046C145.796 315.606 146.006 317.159 146.21 318.712C146.529 321.202 146.831 323.691 147.094 326.196C147.371 328.854 147.548 331.961 147.632 335.408C147.674 336.913 147.694 338.488 147.7 340.115C147.721 345.266 147.591 350.972 147.349 356.94C147.287 358.5 147.219 360.079 147.141 361.675C146.874 367.219 146.523 372.918 146.131 378.548C146.017 380.133 145.901 381.708 145.781 383.274C145.346 389.134 144.865 394.84 144.379 400.149C144.231 401.76 144.085 403.335 143.939 404.861C143.378 410.705 142.834 415.897 142.359 420.039C153.11 420.866 163.861 421.05 174.607 420.585C174.859 416.174 175.544 409.061 176.219 400.688C176.344 399.155 176.465 397.576 176.585 395.965C176.988 390.639 177.354 384.949 177.594 379.206C177.663 377.633 177.72 376.052 177.763 374.477C177.924 368.745 177.93 363.05 177.684 357.71C177.611 356.088 177.517 354.504 177.391 352.96C177.265 351.381 177.114 349.843 176.93 348.356C176.412 344.163 176.213 340.135 176.24 336.151C176.245 334.57 176.286 333.001 176.36 331.427C176.605 325.967 177.202 320.495 177.892 314.685C178.076 313.142 178.269 311.572 178.464 309.972C179.085 304.805 179.734 299.322 180.248 293.323C180.383 291.785 180.503 290.211 180.619 288.601C180.974 283.454 181.215 277.926 181.252 271.9C181.262 270.347 181.257 268.761 181.235 267.142C181.179 261.925 180.959 256.345 180.535 250.335C180.498 249.802 180.462 249.263 180.421 248.72C180.341 247.668 180.274 246.607 180.226 245.544C179.948 240.062 180.022 234.424 180.331 228.802C180.415 227.223 180.519 225.642 180.64 224.063C181.074 218.435 181.707 212.859 182.439 207.514C182.653 205.924 182.878 204.35 183.109 202.801C183.989 196.943 184.936 191.431 185.804 186.504C186.092 184.882 186.369 183.324 186.63 181.838C187.221 178.512 187.733 175.546 188.11 173.035C182.182 169.903 177.071 167.141 174.225 165.138C173.446 166.389 168.852 173.356 162.815 173.873C156.197 174.448 150.322 166.676 150.322 166.676V165.19C147.747 166.995 143.577 169.333 138.743 171.963Z" fill="white"/>
<path d="M140.616 185.039C140.841 186.556 141.066 188.13 141.297 189.747C147.235 189.882 154.209 188.993 162.611 187.052C171.61 184.981 179.547 185.343 185.804 186.504C186.092 184.882 186.369 183.323 186.63 181.838C179.849 180.587 171.296 180.227 161.553 182.472C153.262 184.38 146.356 185.259 140.616 185.039Z" fill="#DCD9D7"/>
<path d="M143.479 206.573C143.657 208.131 143.824 209.695 143.98 211.254C149.311 211.113 155.443 210.224 162.611 208.565C170.056 206.85 176.784 206.807 182.439 207.514C182.653 205.924 182.878 204.35 183.109 202.801C176.977 202.043 169.679 202.106 161.553 203.979C154.596 205.584 148.61 206.462 143.479 206.573Z" fill="#DCD9D7"/>
<path d="M145.158 228.023C145.21 229.629 145.231 231.197 145.22 232.719C150.258 232.483 155.993 231.605 162.611 230.079C169.151 228.571 175.135 228.357 180.331 228.802C180.415 227.223 180.519 225.642 180.64 224.063C175.052 223.603 168.612 223.864 161.553 225.492C155.344 226.924 149.908 227.776 145.158 228.023Z" fill="#DCD9D7"/>
<path d="M143.107 254.294C148.642 254.232 155.046 253.333 162.611 251.591C169.235 250.063 175.292 249.864 180.535 250.335C180.498 249.802 180.462 249.262 180.421 248.72C180.341 247.668 180.274 246.606 180.226 245.543C174.733 245.131 168.439 245.414 161.553 247.004C154.674 248.593 148.752 249.462 143.657 249.588C143.452 251.182 143.269 252.752 143.107 254.294Z" fill="#DCD9D7"/>
<path d="M142.061 275.807C147.831 275.854 154.564 274.96 162.611 273.104C169.554 271.502 175.857 271.351 181.252 271.9C181.262 270.347 181.257 268.761 181.235 267.142C175.512 266.613 168.867 266.832 161.553 268.517C153.952 270.268 147.516 271.152 142.077 271.115C142.05 272.712 142.045 274.274 142.061 275.807Z" fill="#DCD9D7"/>
<path d="M142.94 292.627C143.085 294.213 143.248 295.772 143.415 297.31C148.878 297.221 155.186 296.325 162.611 294.616C169.124 293.114 175.084 292.884 180.248 293.323C180.383 291.785 180.503 290.211 180.619 288.6C175.031 288.139 168.601 288.402 161.553 290.029C154.355 291.687 148.193 292.571 142.94 292.627Z" fill="#DCD9D7"/>
<path d="M145.582 314.046C145.796 315.606 146.006 317.159 146.21 318.712C151.007 318.413 156.417 317.556 162.611 316.129C168.156 314.846 173.3 314.496 177.892 314.685C178.076 313.142 178.269 311.572 178.464 309.972C173.399 309.742 167.712 310.119 161.553 311.542C155.522 312.926 150.227 313.775 145.582 314.046Z" fill="#DCD9D7"/>
<path d="M147.632 335.408C147.674 336.913 147.694 338.488 147.7 340.115C152.121 339.743 157.055 338.923 162.611 337.636C167.503 336.51 172.081 336.104 176.24 336.151C176.245 334.57 176.287 333.001 176.36 331.427C171.844 331.38 166.875 331.824 161.553 333.054C156.396 334.242 151.77 335.03 147.632 335.408Z" fill="#DCD9D7"/>
<path d="M147.141 361.675C151.703 361.324 156.814 360.482 162.611 359.149C168.068 357.892 173.137 357.532 177.684 357.71C177.611 356.088 177.517 354.503 177.391 352.96C172.604 352.825 167.282 353.243 161.553 354.561C156.275 355.779 151.562 356.581 147.349 356.94C147.287 358.5 147.219 360.079 147.141 361.675Z" fill="#DCD9D7"/>
<path d="M145.781 383.274C150.682 382.998 156.233 382.13 162.611 380.661C168.036 379.41 173.075 379.045 177.594 379.206C177.663 377.632 177.72 376.052 177.763 374.477C172.881 374.31 167.434 374.718 161.553 376.074C155.762 377.411 150.646 378.244 146.131 378.548C146.017 380.132 145.901 381.707 145.781 383.274Z" fill="#DCD9D7"/>
<path d="M143.939 404.861C149.281 404.725 155.423 403.83 162.611 402.172C167.492 401.047 172.064 400.636 176.219 400.688C176.344 399.155 176.465 397.575 176.585 395.964C172.007 395.897 166.963 396.336 161.553 397.586C154.999 399.097 149.306 399.959 144.379 400.149C144.231 401.76 144.085 403.335 143.939 404.861Z" fill="#DCD9D7"/>
<path d="M181.121 420.223C181.837 420.176 182.55 420.123 183.266 420.071C187.503 395.165 185.06 358.603 184.15 347.4C183.208 335.767 185.019 320.808 189.114 306.372C192.295 295.159 190.344 269.158 188.78 248.27C188.341 242.407 187.922 236.867 187.677 232.316C186.876 217.609 192.202 190.39 195.137 176.75C194.488 176.405 193.845 176.064 193.207 175.724C190.266 189.229 184.747 217.065 185.583 232.432C185.835 237.003 186.253 242.552 186.694 248.426C188.247 269.154 190.181 294.945 187.106 305.798C182.942 320.469 181.105 335.695 182.068 347.567C182.974 358.787 185.432 395.578 181.121 420.223Z" fill="#F04220"/>
<path d="M137.713 318.879C140.203 334.195 139.418 344.142 138.508 355.655C138.215 359.378 137.911 363.222 137.697 367.468C137.033 380.796 134.777 407.633 133.779 419.24C134.475 419.319 135.165 419.392 135.861 419.459C136.861 407.853 139.12 380.948 139.791 367.573C139.999 363.359 140.303 359.524 140.596 355.822C141.511 344.172 142.306 334.11 139.774 318.545C139.236 315.203 138.66 311.814 138.089 308.44C135.27 291.749 132.351 274.49 133.732 266.221C134.066 264.201 134.495 261.91 134.955 259.483C136.829 249.504 139.168 237.087 138.429 226.312C137.697 215.633 133.319 186.713 131.638 175.813C130.991 176.163 130.342 176.52 129.687 176.874C131.44 188.272 135.63 216.081 136.343 226.454C137.059 236.962 134.752 249.238 132.9 259.095C132.439 261.533 132.006 263.834 131.665 265.876C130.231 274.49 133.045 291.147 136.028 308.789C136.598 312.159 137.168 315.542 137.713 318.879Z" fill="#F04220"/>
<path d="M96.5313 212.411C96.5313 212.411 75.2162 283.474 69.9374 308.799C64.6586 334.124 64.2503 386.772 64.2503 386.772C64.2503 386.772 54.932 406.111 54.7113 414.718C54.4762 423.892 59.295 431.192 58.7454 437.196C58.1952 443.201 65.507 439.941 63.4417 427.781C61.3759 415.618 67.2363 404.605 69.7654 404.957C72.295 405.31 67.6726 418.236 69.9185 422.894C72.1634 427.551 75.0707 418.503 77.9616 413.011C80.9628 407.313 80.7874 394.874 79.4213 385.995C78.0555 377.116 94.1554 323.187 94.2324 307.561L114.619 238.691C114.619 238.691 107.884 209.942 96.5313 212.411Z" fill="#F6876F"/>
<path d="M117.23 236.961C116.508 241.528 113.981 249.369 110.717 259.232V259.237C110.44 260.068 110.156 260.917 109.874 261.78C109.858 261.816 109.843 261.857 109.833 261.9C109.016 264.353 108.163 266.919 107.284 269.578C107.279 269.593 107.274 269.61 107.269 269.625C103.654 280.599 99.6515 293.15 96.2923 306.049C95.1359 310.464 94.0587 314.925 93.1014 319.37C91.877 325.046 90.8414 330.705 90.0826 336.244C87.3564 356.197 82.1461 381.471 82.1461 381.471C74.5022 384.609 62.5529 380.466 62.5529 380.466C62.5529 380.466 62.2443 344.069 63.9498 329.926C66.0576 312.44 68.7422 299.992 72.0691 285.703C81.2249 246.376 97.3386 207.896 101.76 197.691C102.111 196.875 102.387 196.243 102.581 195.804H106.385C113.872 200.558 119.181 224.659 117.23 236.961Z" fill="#FF5B39"/>
<path d="M61.9315 373.179L62.5307 381.554C62.5307 381.554 73.8927 385.245 82.4088 382.645L84.6607 375.175C76.46 375.61 68.884 375.407 61.9315 373.179Z" fill="#3D89D1"/>
<path d="M110.717 259.232V259.237C110.717 259.357 110.696 259.478 110.654 259.599C110.398 260.304 110.135 261.032 109.874 261.78C109.858 261.816 109.843 261.857 109.833 261.9C108.995 264.273 108.142 266.857 107.284 269.578C107.279 269.593 107.274 269.61 107.269 269.625C102.817 283.768 98.2907 301.561 96.2088 312.926C96.2298 310.642 96.2561 308.345 96.2923 306.049C95.1359 310.464 94.0587 314.925 93.1014 319.37C93.5301 315.203 94.7227 308.958 96.3495 301.881C99.6359 287.561 104.679 269.824 108.687 258.881C108.886 258.339 109.487 258.06 110.031 258.259C110.455 258.416 110.717 258.808 110.717 259.232Z" fill="#F04220"/>
<path d="M492.007 447.163H542.358C542.193 443.671 542.027 440.325 541.865 437.165C540.987 419.927 540.241 408.191 540.241 408.191L499.294 410.01L495.9 410.164L489.875 410.433C489.875 410.433 490.457 420.928 491.361 436.302C491.561 439.702 491.778 443.345 492.007 447.163Z" fill="#201F20"/>
<path d="M495.9 410.164L489.875 410.433C489.875 410.433 490.457 420.928 491.361 436.302C507.094 437.613 524.27 438.146 541.865 437.165C540.987 419.927 540.241 408.191 540.241 408.191L499.294 410.01L495.9 410.164Z" fill="#1C1A2C"/>
<path d="M501.38 447.163C500.461 431.208 499.705 417.579 499.292 410.012L495.897 410.165C496.309 417.698 497.06 431.263 497.978 447.163H501.38Z" fill="#1C1A2C"/>
<path d="M477.237 447.163C477.495 442.841 477.738 438.741 477.961 434.964C478.828 420.319 479.373 410.433 479.373 410.433L472.835 410.142L469.445 409.988L429 408.191C429 408.191 428.556 415.187 427.949 426.304C427.626 432.228 427.259 439.331 426.885 447.163H477.237Z" fill="#201F20"/>
<path d="M427.949 426.304C438.927 428.884 456.627 432.506 477.961 434.964C478.828 420.318 479.373 410.433 479.373 410.433L472.835 410.142L469.445 409.988L429 408.191C429 408.191 428.556 415.187 427.949 426.304Z" fill="#1C1A2C"/>
<path d="M470.754 447.163C471.672 431.248 472.424 417.67 472.835 410.142L469.444 409.99C469.031 417.552 468.276 431.192 467.353 447.163H470.754Z" fill="#1C1A2C"/>
<path d="M547.553 416.037C537.296 418.86 527.04 420.989 516.784 422.419C513.218 422.919 509.654 423.337 506.09 423.664C501.284 424.109 496.478 424.408 491.675 424.559C483.73 424.802 475.784 424.628 467.835 424.04C452.471 422.916 437.11 420.234 421.743 416.037C421.599 401.714 421.815 350.347 422.89 300.802C422.943 298.58 422.991 296.357 423.046 294.143C423.053 293.674 423.068 293.204 423.078 292.735C423.088 292.223 423.103 291.711 423.117 291.204C423.151 289.632 423.193 288.066 423.231 286.506C423.31 283.323 423.394 280.168 423.485 277.042C423.541 275.174 423.596 273.316 423.651 271.476C423.662 271.094 423.676 270.714 423.687 270.335C423.726 269.121 423.763 267.913 423.801 266.714C423.801 266.714 423.801 266.714 423.801 266.71C423.817 266.337 423.825 265.966 423.84 265.593C423.875 264.487 423.913 263.387 423.948 262.299C423.984 261.37 424.014 260.455 424.046 259.536C425.236 226.114 426.976 199.752 429.467 196.037C433.692 189.736 448.083 181.372 459.658 174.563C463.781 172.142 468.705 169.623 471.525 167.754C475.635 171.063 478.618 174.051 484.711 173.847C491.53 173.614 493.209 169.515 495.809 166.001C497.397 167.031 501.427 170.337 503.522 171.564C505.314 172.621 507.256 173.742 509.281 174.907C512.414 176.699 515.745 178.603 519.042 180.543C523.931 183.422 528.753 186.388 532.751 189.225C536.744 192.06 539.914 194.77 541.483 197.118C543.745 200.514 545.211 222.5 546.153 251.434C546.191 252.446 546.219 253.471 546.258 254.504C546.26 254.63 546.26 254.755 546.26 254.885C546.3 255.934 546.331 257.014 546.356 258.092C546.45 261.348 546.535 264.674 546.626 268.057C546.644 268.769 546.661 269.49 546.672 270.206C546.686 270.746 546.704 271.289 546.708 271.821C546.738 273.213 546.768 274.609 546.8 276.017C546.807 276.298 546.811 276.58 546.818 276.863C546.894 280.575 546.967 284.339 547.034 288.135C547.054 289.245 547.072 290.358 547.09 291.472C547.949 343.559 547.75 400.646 547.553 416.037Z" fill="#FF5B39"/>
<path d="M547.09 291.472L530.848 307.942L515.716 292.606L500.588 307.942L485.4 292.543L470.206 307.942L454.918 292.442L439.627 307.942L423.117 291.204C423.151 289.632 423.193 288.066 423.231 286.506C423.31 283.323 423.394 280.167 423.485 277.042L439.627 260.677L454.918 276.179L470.206 260.677L485.4 276.076L500.588 260.677L515.716 276.012L530.848 260.677L546.818 276.863C546.894 280.575 546.967 284.339 547.034 288.135C547.054 289.245 547.072 290.358 547.09 291.472Z" fill="#F04220"/>
<path d="M519.055 376.364C519.053 376.364 519.052 376.364 519.049 376.364C497.303 376.267 478.741 366.374 466.998 358.091C454.299 349.133 446.601 340.057 446.527 339.966C446.154 339.524 446.21 338.864 446.654 338.492C447.096 338.12 447.756 338.177 448.127 338.62C448.203 338.707 455.759 347.611 468.252 356.415C479.739 364.51 497.877 374.179 519.059 374.271C519.637 374.272 520.104 374.745 520.101 375.322C520.098 375.897 519.63 376.364 519.055 376.364Z" fill="#F04220"/>
<path d="M505.49 363.504C486.973 359.865 470.583 345.688 469.839 345.036C469.404 344.657 469.36 343.996 469.739 343.561C470.12 343.126 470.78 343.083 471.217 343.463C471.409 343.63 490.697 360.304 510.351 362.098C510.937 362.145 511.352 362.659 511.3 363.235C511.247 363.809 510.738 364.233 510.163 364.18C508.595 364.038 507.035 363.807 505.49 363.504Z" fill="#F04220"/>
<path d="M468.405 202.616C467.912 202.616 467.475 202.266 467.378 201.765C467.27 201.197 467.645 200.651 468.212 200.542C494.725 195.513 502.717 178.46 502.794 178.289C503.033 177.762 503.653 177.529 504.179 177.766C504.707 178.005 504.939 178.623 504.701 179.151C504.366 179.892 496.175 197.368 468.601 202.597C468.535 202.61 468.469 202.616 468.405 202.616Z" fill="#F04220"/>
<path d="M436.056 248.517V248.524C436.031 248.639 435.979 248.753 435.912 248.858C435.516 249.494 435.101 250.153 434.688 250.824C434.667 250.862 434.642 250.894 434.626 250.936C433.3 253.078 431.918 255.419 430.493 257.893C430.491 257.911 430.485 257.922 430.469 257.936C428.246 261.829 425.943 266.048 423.687 270.335C423.725 269.121 423.763 267.913 423.801 266.714C423.801 266.714 423.801 266.714 423.801 266.71C423.817 266.337 423.825 265.966 423.84 265.593C427.477 258.844 431.103 252.53 434.145 247.741C434.458 247.25 435.101 247.112 435.592 247.417C435.972 247.664 436.146 248.103 436.056 248.517Z" fill="#F04220"/>
<path d="M569.661 209.746C569.661 209.746 603.565 198.852 613.599 176.609C616.5 170.167 592.593 104.763 592.593 104.763L581.055 105.323C581.055 105.323 584.341 128.014 586.337 140.863C587.974 151.429 590.623 164.051 591.517 168.209C591.711 169.111 591.82 169.612 591.82 169.612C591.254 169.708 590.686 169.819 590.108 169.933C574.267 173.151 554.043 183.466 554.043 183.466L569.661 209.746Z" fill="#F6876F"/>
<path d="M600.337 175.88C600.818 176.231 601.507 176.126 601.854 175.642C602.219 175.149 602.108 174.47 601.615 174.126C599.149 172.334 595.426 170.23 591.517 168.209C591.711 169.111 591.82 169.612 591.82 169.612C591.254 169.709 590.686 169.819 590.108 169.934C594.088 171.978 597.898 174.107 600.337 175.88Z" fill="#F25349"/>
<path d="M517.781 179.824C517.781 179.824 507.526 203.885 533.636 217.281C551.705 226.551 592.865 202.347 592.865 202.347L578.19 171.198C578.19 171.198 540.53 186.729 517.781 179.824Z" fill="#FF5B39"/>
<path d="M586.687 67.9917C585.664 68.7081 585.874 73.1269 586.323 77.2888C586.179 77.3095 586.033 77.3344 585.885 77.3606C584.671 71.8058 582.255 62.3582 580.188 64.161C578.835 65.3413 580.648 73.4885 581.881 78.3614C581.627 78.4401 581.37 78.5202 581.114 78.603C579.558 72.8176 576.204 61.6776 573.972 63.8449C572.482 65.2888 575.341 75.0995 576.929 80.1049C576.707 80.1905 576.492 80.2761 576.279 80.3603C574.76 75.5053 571.515 66.3214 569.292 68.479C567.279 70.4323 573.048 84.3166 573.048 84.3166L574.558 89.7665C574.558 89.7665 572.762 90.5423 569.956 87.3701C567.152 84.1993 563.798 83.6402 566.127 88.2301C568.76 93.415 572.657 97.1339 574.373 100.803C576.088 104.474 581.485 105.687 581.485 105.687L592.32 105.164C592.32 105.164 594.421 86.8538 590.378 78.1268C589.685 72.9391 588.464 66.7452 586.687 67.9917Z" fill="#F6876F"/>
<path d="M452.626 110.215C452.626 128.667 463.987 141.379 482.436 141.379C500.891 141.379 513.756 127.712 513.756 109.26C513.756 104.171 512.926 99.42 511.329 95.2166C511.235 94.9653 511.141 94.7154 511.039 94.4739C510.844 93.9949 510.64 93.5186 510.42 93.0562C510.1 92.3439 509.74 91.6468 509.364 90.9731C504.556 82.3316 495.943 76.8362 484.369 76.8362C462.241 76.8362 452.626 91.7641 452.626 110.215Z" fill="#2F335D"/>
<path d="M456.768 118.159C456.768 118.159 451.641 111.325 447.829 116.976C444.015 122.628 449.407 139.32 458.74 135.245L456.768 118.159Z" fill="#F25349"/>
<path d="M456.702 130.087C456.358 130.087 456.04 129.858 455.942 129.51C454.497 124.357 449.156 122.269 449.102 122.248C448.696 122.092 448.492 121.638 448.645 121.231C448.799 120.825 449.254 120.619 449.661 120.772C449.911 120.868 455.796 123.151 457.463 129.085C457.58 129.503 457.334 129.94 456.914 130.057C456.844 130.076 456.774 130.087 456.702 130.087Z" fill="#E43342"/>
<path d="M451.312 127.491C451.165 127.491 451.017 127.451 450.884 127.365C450.519 127.129 450.414 126.642 450.648 126.275C450.687 126.214 451.633 124.773 453.61 123.889C454.005 123.711 454.475 123.889 454.653 124.287C454.828 124.684 454.653 125.151 454.254 125.329C452.725 126.012 451.982 127.118 451.975 127.129C451.825 127.364 451.571 127.491 451.312 127.491Z" fill="#E43342"/>
<path d="M509.606 118.159C509.606 118.159 514.734 111.325 518.546 116.976C522.36 122.628 516.968 139.32 507.635 135.245L509.606 118.159Z" fill="#F25349"/>
<path d="M509.673 130.087C510.017 130.087 510.335 129.858 510.433 129.51C511.878 124.357 517.219 122.269 517.273 122.248C517.679 122.092 517.884 121.638 517.729 121.231C517.576 120.825 517.121 120.619 516.714 120.772C516.464 120.868 510.579 123.151 508.912 129.085C508.795 129.503 509.04 129.94 509.459 130.057C509.531 130.076 509.601 130.087 509.673 130.087Z" fill="#E43342"/>
<path d="M515.064 127.491C515.21 127.491 515.358 127.451 515.489 127.365C515.857 127.129 515.961 126.642 515.725 126.275C515.687 126.214 514.742 124.773 512.765 123.889C512.37 123.711 511.901 123.889 511.724 124.287C511.546 124.684 511.724 125.151 512.121 125.329C513.65 126.012 514.393 127.118 514.4 127.129C514.55 127.364 514.804 127.491 515.064 127.491Z" fill="#E43342"/>
<path d="M495.809 149.402V166.002C495.809 166.002 490.857 174.456 484.16 175.031C477.47 175.615 471.526 167.752 471.526 167.752V150.57L495.809 149.402Z" fill="#F6876F"/>
<path d="M495.809 149.402V156.768C491.314 161.753 483.335 162.998 471.526 161.255V150.57L495.809 149.402Z" fill="#F25349"/>
<path d="M513.314 106.772C513.007 113.223 512.391 121.29 511.16 127.741C510.854 129.349 510.506 130.863 510.119 132.22C506.625 144.451 497.885 165.426 473.416 156.69C462.61 152.833 457.601 140.799 455.369 128.561C453.855 120.249 453.625 111.851 453.736 105.848C453.855 99.7221 457.199 94.1231 462.531 91.1027C476.975 82.9168 492.215 85.9689 502.247 89.8258C509.212 92.4983 513.669 99.3356 513.314 106.772Z" fill="#F6876F"/>
<path d="M472.696 120.326C472.696 122.097 471.783 123.534 470.655 123.534C469.529 123.534 468.615 122.097 468.615 120.326C468.615 118.554 469.529 117.117 470.655 117.117C471.783 117.117 472.696 118.554 472.696 120.326Z" fill="#2F335D"/>
<path d="M496.745 120.26C496.745 122.031 495.831 123.468 494.704 123.468C493.577 123.468 492.663 122.031 492.663 120.26C492.663 118.488 493.577 117.051 494.704 117.051C495.831 117.051 496.745 118.488 496.745 120.26Z" fill="#2F335D"/>
<path d="M501.355 109.233C501.355 109.233 494.918 106.69 489.961 108.83L490.457 111.587C490.457 111.587 497.732 110.973 501.397 112.457C501.725 111.396 501.774 110.324 501.355 109.233Z" fill="#2F335D"/>
<path d="M463.847 109.233C463.847 109.233 470.285 106.69 475.242 108.83L474.746 111.587C474.746 111.587 467.472 110.973 463.805 112.457C463.477 111.396 463.429 110.324 463.847 109.233Z" fill="#2F335D"/>
<path d="M483.462 133.772C484.793 133.772 486.113 133.254 486.317 133.171C486.719 133.006 486.912 132.546 486.749 132.143C486.585 131.74 486.124 131.545 485.721 131.711C485.008 131.999 483.299 132.453 482.557 132.009C482.414 131.923 482.217 131.754 482.168 131.275C481.883 128.522 482.637 119.291 482.646 119.199C482.68 118.764 482.358 118.383 481.925 118.347C481.488 118.311 481.11 118.634 481.073 119.069C481.042 119.454 480.3 128.539 480.601 131.437C480.712 132.528 481.285 133.087 481.747 133.363C482.252 133.665 482.857 133.772 483.462 133.772Z" fill="#F25349"/>
<path d="M472.87 137.776C474.181 142.326 477.908 146.865 483.043 146.929C488.173 146.865 491.9 142.326 493.211 137.776H472.87Z" fill="white"/>
<path d="M482.604 151.871C484.645 151.871 486.377 150.837 486.45 150.793C486.821 150.568 486.941 150.083 486.715 149.71C486.49 149.338 486.005 149.219 485.632 149.444C485.618 149.452 484.195 150.294 482.604 150.294C481.145 150.294 479.747 149.456 479.734 149.448C479.362 149.22 478.876 149.333 478.647 149.705C478.419 150.075 478.534 150.561 478.905 150.79C478.975 150.834 480.677 151.871 482.604 151.871Z" fill="#F25349"/>
<path d="M512.479 118.299H508.906C509.301 114.711 509.867 108.391 506.919 107.486C497.604 104.625 509.675 98.045 505.47 94.7637C501.266 91.4769 490.801 92.8849 483.524 92.6502C476.201 92.4128 464.433 92.5164 461.577 93.179C458.714 93.8333 460.284 98.5861 461.332 102.268C462.389 105.944 457.822 110.013 457.058 113.822C456.838 114.915 456.884 116.539 457.059 118.299H454.08C453.726 113.663 453.672 109.348 453.736 105.849C453.855 99.7222 457.199 94.1232 462.531 91.1028C476.975 82.9169 492.215 85.969 502.247 89.8259C509.212 92.4984 513.669 99.3357 513.314 106.772C513.146 110.306 512.884 114.326 512.479 118.299Z" fill="#2F335D"/>
<path d="M470.297 113.152C466.139 113.152 462.759 116.533 462.759 120.688C462.759 124.843 466.139 128.224 470.297 128.224C474.452 128.224 477.835 124.843 477.835 120.688C477.835 116.533 474.452 113.152 470.297 113.152ZM470.297 129.617C465.372 129.617 461.366 125.611 461.366 120.688C461.366 115.766 465.372 111.761 470.297 111.761C475.22 111.761 479.225 115.766 479.225 120.688C479.225 125.611 475.22 129.617 470.297 129.617Z" fill="white"/>
<path d="M494.704 113.152C490.548 113.152 487.166 116.533 487.166 120.688C487.166 124.843 490.548 128.224 494.704 128.224C498.86 128.224 502.242 124.843 502.242 120.688C502.242 116.533 498.86 113.152 494.704 113.152ZM494.704 129.617C489.78 129.617 485.774 125.611 485.774 120.688C485.774 115.766 489.78 111.761 494.704 111.761C499.628 111.761 503.634 115.766 503.634 120.688C503.634 125.611 499.628 129.617 494.704 129.617Z" fill="white"/>
<path d="M462.875 117.813C462.699 117.813 462.522 117.746 462.385 117.611C462.345 117.571 458.288 113.637 452.967 114.878C452.593 114.966 452.218 114.733 452.13 114.359C452.044 113.985 452.276 113.611 452.651 113.522C458.737 112.103 463.179 116.439 463.367 116.624C463.638 116.895 463.64 117.336 463.368 117.608C463.233 117.745 463.055 117.813 462.875 117.813Z" fill="white"/>
<path d="M502.29 117.813C502.062 117.813 501.839 117.702 501.706 117.498C501.495 117.176 501.586 116.746 501.908 116.534C502.174 116.361 508.493 112.286 513.87 113.17C514.249 113.234 514.505 113.591 514.443 113.971C514.38 114.349 514.026 114.606 513.643 114.545C508.803 113.747 502.731 117.661 502.669 117.7C502.551 117.777 502.42 117.813 502.29 117.813Z" fill="white"/>
<path d="M486.265 118.684C486.249 118.662 484.595 116.425 482.422 116.425C480.268 116.425 478.774 118.658 478.76 118.68L477.593 117.919C477.669 117.802 479.507 115.034 482.422 115.034C485.316 115.034 487.31 117.753 487.393 117.869L486.265 118.684Z" fill="white"/>
<path d="M433.115 247.206C433.115 247.206 423.708 265.416 412.631 279.84C409.362 284.096 405.952 288.021 402.59 291.051C397.144 295.966 391.832 298.538 387.507 296.357C371.464 288.27 335.698 223.922 335.698 223.922L344.506 213.478C344.506 213.478 360.424 231.855 372.066 242.853C382.801 252.994 391.057 260.576 391.057 260.576C392.543 258.315 394.127 255.837 395.773 253.215C397.523 250.43 399.339 247.483 401.188 244.453C414.593 222.45 429.467 196.037 429.467 196.037L433.115 247.206Z" fill="#F6876F"/>
<path d="M412.631 279.84C409.363 284.096 405.952 288.021 402.59 291.051L395.773 253.215C397.524 250.43 399.339 247.483 401.188 244.453L412.631 279.84Z" fill="#F25349"/>
<path d="M429.467 196.037L397.316 246.589L408.107 291.051L434.711 247.741C434.711 247.741 437.938 218.112 429.467 196.037Z" fill="#FF5B39"/>
<path d="M389.041 447.163C386.746 434.441 384.482 420.093 382.424 406.16C381.974 403.078 381.531 400.023 381.096 397.01C379.447 385.472 377.973 374.564 376.791 365.512C376.339 362.074 375.935 358.899 375.566 356.066C374.419 347.031 373.745 341.418 373.745 341.418L322.974 343.337L272.048 341.418C272.048 341.418 270.736 352.524 268.634 368.625C268.249 371.556 267.84 374.647 267.409 377.873C266.279 386.324 264.986 395.655 263.596 405.211C263.575 405.35 263.554 405.49 263.534 405.63C263.097 408.608 262.657 411.606 262.2 414.604C262.194 414.646 262.19 414.682 262.179 414.725V414.73C261.09 421.976 259.948 429.212 258.785 436.174C258.309 439.047 257.825 441.869 257.338 444.618C257.187 445.474 257.036 446.321 256.885 447.163H389.041Z" fill="#385DB4"/>
<path d="M283.751 356.662C283.751 359.305 281.608 361.447 278.965 361.447C276.323 361.447 274.18 359.305 274.18 356.662C274.18 354.02 276.323 351.878 278.965 351.878C281.608 351.878 283.751 354.02 283.751 356.662Z" fill="#3948A5"/>
<path d="M295.625 375.196C295.625 377.838 293.482 379.98 290.84 379.98C288.197 379.98 286.054 377.838 286.054 375.196C286.054 372.554 288.197 370.411 290.84 370.411C293.482 370.411 295.625 372.554 295.625 375.196Z" fill="#3948A5"/>
<path d="M318.988 365.628C318.988 368.27 316.845 370.411 314.202 370.411C311.559 370.411 309.416 368.27 309.416 365.628C309.416 362.986 311.559 360.844 314.202 360.844C316.845 360.844 318.988 362.986 318.988 365.628Z" fill="#3948A5"/>
<path d="M282.115 394.878C282.115 397.52 279.972 399.663 277.329 399.663C274.686 399.663 272.545 397.52 272.545 394.878C272.545 392.236 274.686 390.095 277.329 390.095C279.972 390.095 282.115 392.236 282.115 394.878Z" fill="#3948A5"/>
<path d="M311.308 392.832C311.308 395.474 309.165 397.615 306.522 397.615C303.881 397.615 301.738 395.474 301.738 392.832C301.738 390.19 303.881 388.048 306.522 388.048C309.165 388.048 311.308 390.19 311.308 392.832Z" fill="#3948A5"/>
<path d="M271.747 373.111C271.747 375.602 269.848 377.65 267.41 377.873C267.84 374.647 268.249 371.556 268.634 368.625C270.456 369.304 271.747 371.053 271.747 373.111Z" fill="#3948A5"/>
<path d="M358.881 420.938C358.881 423.58 356.737 425.721 354.095 425.721C351.452 425.721 349.31 423.58 349.31 420.938C349.31 418.297 351.452 416.155 354.095 416.155C356.737 416.155 358.881 418.297 358.881 420.938Z" fill="#3948A5"/>
<path d="M356.619 394.878C356.619 397.52 354.477 399.663 351.836 399.663C349.193 399.663 347.05 397.52 347.05 394.878C347.05 392.236 349.193 390.095 351.836 390.095C354.477 390.095 356.619 392.236 356.619 394.878Z" fill="#3948A5"/>
<path d="M382.425 406.16C381.849 406.403 381.211 406.539 380.547 406.539C377.905 406.539 375.764 404.395 375.764 401.755C375.764 399.115 377.905 396.972 380.547 396.972C380.733 396.972 380.915 396.983 381.096 397.009C381.531 400.023 381.974 403.078 382.425 406.16Z" fill="#3948A5"/>
<path d="M361.405 440.036C361.405 442.678 359.263 444.819 356.619 444.819C353.976 444.819 351.836 442.678 351.836 440.036C351.836 437.394 353.976 435.253 356.619 435.253C359.263 435.253 361.405 437.394 361.405 440.036Z" fill="#3948A5"/>
<path d="M381.874 432.398C381.874 435.04 379.731 437.182 377.088 437.182C374.445 437.182 372.302 435.04 372.302 432.398C372.302 429.757 374.445 427.616 377.088 427.616C379.731 427.616 381.874 429.757 381.874 432.398Z" fill="#3948A5"/>
<path d="M339.283 447.163C338.423 445.906 336.98 445.077 335.338 445.077C333.699 445.077 332.256 445.906 331.396 447.163H339.283Z" fill="#3948A5"/>
<path d="M278.965 425.097C278.965 427.739 276.822 429.882 274.18 429.882C271.538 429.882 269.395 427.739 269.395 425.097C269.395 422.456 271.538 420.314 274.18 420.314C276.822 420.314 278.965 422.456 278.965 425.097Z" fill="#3948A5"/>
<path d="M266.341 409.987C266.341 412.415 264.531 414.422 262.179 414.724C262.19 414.682 262.194 414.646 262.2 414.604C262.657 411.606 263.097 408.608 263.534 405.63C265.189 406.388 266.341 408.053 266.341 409.987Z" fill="#3948A5"/>
<path d="M260.747 440.031C260.747 442.195 259.31 444.02 257.338 444.618C257.825 441.869 258.309 439.046 258.785 436.173C259.974 437.045 260.747 438.45 260.747 440.031Z" fill="#3948A5"/>
<path d="M290.84 442.056C290.84 444.699 288.697 446.84 286.054 446.84C283.412 446.84 281.27 444.699 281.27 442.056C281.27 439.413 283.412 437.274 286.054 437.274C288.697 437.274 290.84 439.413 290.84 442.056Z" fill="#3948A5"/>
<path d="M316.092 438.311C316.092 440.953 313.951 443.094 311.308 443.094C308.665 443.094 306.522 440.953 306.522 438.311C306.522 435.668 308.665 433.527 311.308 433.527C313.951 433.527 316.092 435.668 316.092 438.311Z" fill="#3948A5"/>
<path d="M298.077 414.789C298.077 417.433 295.934 419.574 293.291 419.574C290.648 419.574 288.507 417.433 288.507 414.789C288.507 412.147 290.648 410.006 293.291 410.006C295.934 410.006 298.077 412.147 298.077 414.789Z" fill="#3948A5"/>
<path d="M323.772 410.006C323.772 412.648 321.631 414.789 318.988 414.789C316.345 414.789 314.202 412.648 314.202 410.006C314.202 407.365 316.345 405.223 318.988 405.223C321.631 405.223 323.772 407.365 323.772 410.006Z" fill="#3948A5"/>
<path d="M335.338 384.764C335.338 387.406 333.198 389.547 330.555 389.547C327.911 389.547 325.769 387.406 325.769 384.764C325.769 382.12 327.911 379.981 330.555 379.981C333.198 379.981 335.338 382.12 335.338 384.764Z" fill="#3948A5"/>
<path d="M376.791 365.512C376.458 365.591 376.116 365.627 375.763 365.627C373.116 365.627 370.979 363.485 370.979 360.844C370.979 358.271 373.013 356.166 375.566 356.066C375.935 358.899 376.339 362.074 376.791 365.512Z" fill="#3948A5"/>
<path d="M351.836 365.628C351.836 368.27 349.693 370.411 347.05 370.411C344.407 370.411 342.264 368.27 342.264 365.628C342.264 362.986 344.407 360.844 347.05 360.844C349.693 360.844 351.836 362.986 351.836 365.628Z" fill="#3948A5"/>
<path d="M369.361 382.678C369.361 385.319 367.218 387.461 364.575 387.461C361.932 387.461 359.789 385.319 359.789 382.678C359.789 380.036 361.932 377.893 364.575 377.893C367.218 377.893 369.361 380.036 369.361 382.678Z" fill="#3948A5"/>
<path d="M340.124 425.097C340.124 427.739 337.981 429.882 335.338 429.882C332.695 429.882 330.555 427.739 330.555 425.097C330.555 422.456 332.695 420.314 335.338 420.314C337.981 420.314 340.124 422.456 340.124 425.097Z" fill="#3948A5"/>
<path d="M376.832 342.673C350.049 360.154 300.87 358.784 269.968 342.673C272.92 324.29 276.807 305.886 275.972 281.417C275.878 278.736 275.763 276.069 275.629 273.43C275.509 271.131 275.375 268.849 275.229 266.592C272.563 225.889 265.614 192.607 269.029 188.308C270.518 186.424 273.003 184.391 276.07 182.31C277.274 181.492 278.561 180.662 279.919 179.831C283.126 177.875 286.691 175.905 290.271 173.986C298.765 169.452 307.388 165.246 311.711 162.371C315.997 164.239 319.41 165.261 323.089 165.24C323.188 165.24 323.296 165.24 323.405 165.229C323.504 165.24 323.613 165.24 323.711 165.24C327.391 165.261 330.803 164.239 335.096 162.371C339.106 165.037 346.656 168.757 354.361 172.813C360.021 175.796 365.766 178.96 370.238 182.032C373.165 184.039 375.555 186.01 377.019 187.856C378.711 189.988 378 199.335 376.552 213.185C375.12 226.813 372.977 244.806 371.68 264.585C371.321 270.078 371.026 275.707 370.828 281.417C369.999 305.886 373.879 324.29 376.832 342.673Z" fill="#3D89D1"/>
<path d="M360.453 322.344C360.452 322.344 360.45 322.344 360.449 322.344C338.881 322.248 320.471 312.438 308.827 304.223C296.232 295.338 288.599 286.338 288.523 286.247C288.155 285.809 288.211 285.153 288.649 284.786C289.088 284.416 289.743 284.473 290.111 284.912C290.186 284.999 297.679 293.829 310.071 302.561C321.462 310.588 339.451 320.176 360.457 320.269C361.03 320.271 361.494 320.738 361.492 321.311C361.489 321.882 361.024 322.344 360.453 322.344Z" fill="#385DB4"/>
<path d="M346.174 309.791C327.81 306.183 311.555 292.122 310.818 291.476C310.385 291.099 310.341 290.443 310.718 290.013C311.097 289.581 311.751 289.539 312.183 289.915C312.374 290.082 331.503 306.618 350.996 308.396C351.576 308.443 351.988 308.954 351.936 309.524C351.884 310.094 351.38 310.515 350.808 310.462C349.255 310.322 347.706 310.092 346.174 309.791Z" fill="#385DB4"/>
<path d="M318.986 214.808C318.498 214.808 318.063 214.46 317.967 213.964C317.861 213.4 318.231 212.858 318.793 212.751C345.089 207.763 353.013 190.851 353.091 190.681C353.327 190.159 353.941 189.928 354.465 190.164C354.987 190.4 355.219 191.014 354.982 191.536C354.65 192.271 346.525 209.603 319.181 214.789C319.115 214.801 319.05 214.808 318.986 214.808Z" fill="#385DB4"/>
<path d="M354.358 172.813C349.14 184.715 336.309 197.039 319.623 194.159C303.465 191.366 295.801 182.822 290.271 173.985C298.767 169.449 307.389 165.248 311.71 162.373C315.997 164.238 319.41 165.259 323.086 165.243C323.187 165.243 323.297 165.243 323.404 165.23C323.503 165.243 323.615 165.243 323.714 165.243C327.39 165.259 330.805 164.238 335.098 162.373C339.106 165.037 346.658 168.756 354.358 172.813Z" fill="#F6876F"/>
<path d="M340.41 163.244C339.948 163.238 339.582 163.608 339.58 164.064C339.574 164.732 339.302 180.465 325.175 181.684C312.073 182.821 306.649 170.283 304.973 165.08C304.875 164.775 304.593 164.57 304.271 164.57H304.117C303.613 164.57 303.256 165.062 303.415 165.539C305.203 170.907 310.914 183.867 324.262 183.393C324.609 183.379 324.961 183.358 325.317 183.328C340.951 181.979 341.228 164.252 341.23 164.072C341.232 163.618 340.865 163.247 340.41 163.244Z" fill="white"/>
<path d="M350.395 79.6231C350.395 79.6231 363.02 99.1727 361.637 119.535C360.253 139.898 363.498 163.405 345.273 162.373C327.046 161.339 294.537 169.678 284.204 153.818C273.872 137.957 350.395 79.6231 350.395 79.6231Z" fill="#2F335D"/>
<path d="M355.074 115.569C355.074 115.569 358.35 145.086 344.342 153.212C330.331 161.339 320.193 152.267 320.193 152.267C320.193 152.267 349.722 111.124 355.074 115.569Z" fill="#1C1A2C"/>
<path d="M296.881 115.433C296.881 115.433 291.851 108.727 288.11 114.272C284.37 119.817 289.657 136.193 298.816 132.195L296.881 115.433Z" fill="#F25349"/>
<path d="M296.816 127.135C296.478 127.135 296.167 126.911 296.071 126.57C294.653 121.514 289.413 119.464 289.36 119.444C288.961 119.293 288.759 118.845 288.911 118.446C289.063 118.047 289.509 117.846 289.908 117.998C290.153 118.089 295.927 120.329 297.562 126.152C297.677 126.563 297.436 126.991 297.025 127.106C296.956 127.125 296.885 127.135 296.816 127.135Z" fill="#E43342"/>
<path d="M291.527 124.588C291.383 124.588 291.238 124.548 291.11 124.465C290.749 124.233 290.646 123.754 290.878 123.395C290.916 123.336 291.843 121.922 293.783 121.054C294.169 120.879 294.629 121.054 294.805 121.445C294.978 121.835 294.805 122.292 294.414 122.466C292.914 123.138 292.185 124.222 292.178 124.233C292.03 124.464 291.781 124.588 291.527 124.588Z" fill="#E43342"/>
<path d="M348.723 115.433C348.723 115.433 353.752 108.727 357.493 114.272C361.233 119.817 355.946 136.193 346.787 132.195L348.723 115.433Z" fill="#F25349"/>
<path d="M348.788 127.135C349.127 127.135 349.436 126.911 349.532 126.57C350.952 121.514 356.191 119.464 356.245 119.444C356.642 119.293 356.844 118.845 356.692 118.446C356.541 118.047 356.095 117.846 355.696 117.998C355.451 118.089 349.676 120.329 348.043 126.152C347.928 126.563 348.167 126.991 348.578 127.106C348.649 127.125 348.719 127.135 348.788 127.135Z" fill="#E43342"/>
<path d="M354.077 124.588C354.22 124.588 354.365 124.548 354.494 124.465C354.854 124.233 354.958 123.754 354.726 123.395C354.688 123.336 353.761 121.922 351.822 121.054C351.434 120.879 350.974 121.054 350.8 121.445C350.626 121.835 350.8 122.292 351.189 122.466C352.69 123.138 353.418 124.222 353.425 124.233C353.573 124.464 353.823 124.588 354.077 124.588Z" fill="#E43342"/>
<path d="M335.185 146.086V162.373C335.185 162.373 330.327 170.668 323.757 171.231C317.193 171.805 311.36 164.09 311.36 164.09V147.231L335.185 146.086Z" fill="#F6876F"/>
<path d="M335.185 146.086V153.313C330.777 158.204 322.949 159.936 311.363 158.227L311.36 147.231L335.185 146.086Z" fill="#F25349"/>
<path d="M352.36 104.26C352.059 110.589 351.455 118.504 350.246 124.834C349.947 126.411 349.604 127.897 349.226 129.227C345.797 141.227 337.223 161.808 313.216 153.236C302.613 149.452 297.699 137.645 295.509 125.637C294.023 117.483 293.798 109.243 293.907 103.355C294.023 97.3437 297.304 91.8496 302.536 88.8872C316.705 80.8559 331.658 83.85 341.502 87.6324C348.335 90.2552 352.708 96.9641 352.36 104.26Z" fill="#F6876F"/>
<path d="M312.23 116.388C312.23 118.126 311.334 119.535 310.228 119.535C309.122 119.535 308.226 118.126 308.226 116.388C308.226 114.65 309.122 113.241 310.228 113.241C311.334 113.241 312.23 114.65 312.23 116.388Z" fill="#2F335D"/>
<path d="M336.949 116.388C336.949 118.126 336.053 119.535 334.947 119.535C333.842 119.535 332.946 118.126 332.946 116.388C332.946 114.65 333.842 113.241 334.947 113.241C336.053 113.241 336.949 114.65 336.949 116.388Z" fill="#2F335D"/>
<path d="M306.262 107.016C307.926 106.547 311.284 105.745 314.826 105.734C315.758 105.731 316.472 106.559 316.308 107.477L316.304 107.501C316.171 108.232 315.517 108.751 314.772 108.716C312.363 108.604 306.035 108.942 303.047 110.153C302.986 109.634 303.294 109.065 303.729 108.561C304.387 107.796 305.292 107.291 306.262 107.016Z" fill="#2F335D"/>
<path d="M338.608 107.081C336.944 106.61 333.587 105.808 330.044 105.799C329.112 105.796 328.398 106.624 328.562 107.541L328.566 107.564C328.699 108.297 329.354 108.815 330.098 108.781C332.509 108.669 338.835 109.007 341.824 110.218C341.884 109.698 341.576 109.13 341.143 108.625C340.483 107.86 339.58 107.356 338.608 107.081Z" fill="#2F335D"/>
<path d="M323.071 130.75C322.478 130.75 321.883 130.646 321.388 130.35C320.936 130.078 320.374 129.53 320.262 128.46C319.968 125.618 320.696 116.703 320.728 116.325C320.762 115.898 321.135 115.582 321.562 115.616C321.988 115.652 322.305 116.026 322.27 116.452C322.263 116.543 321.523 125.6 321.802 128.301C321.85 128.77 322.042 128.937 322.183 129.02C322.909 129.457 324.588 129.012 325.287 128.728C325.682 128.566 326.135 128.757 326.296 129.153C326.457 129.548 326.267 129.999 325.873 130.161C325.671 130.243 324.376 130.75 323.071 130.75Z" fill="#F25349"/>
<path d="M313.242 135.635C313.828 138.578 315.772 143.994 322.324 143.994C328.89 143.994 330.732 139.045 331.364 135.635H313.242Z" fill="white"/>
<path d="M322.23 148.508C320.34 148.508 318.67 147.49 318.598 147.448C318.235 147.223 318.123 146.745 318.349 146.382C318.572 146.019 319.047 145.907 319.412 146.129C319.426 146.138 320.787 146.96 322.23 146.96C323.79 146.96 325.188 146.135 325.203 146.125C325.569 145.907 326.044 146.024 326.263 146.39C326.483 146.756 326.367 147.23 326.002 147.45C325.93 147.495 324.232 148.508 322.23 148.508Z" fill="#F25349"/>
<path d="M355.475 102.999C355.227 103.705 354.538 104.156 353.614 104.425C353.682 106.131 353.502 108.184 353.334 110.151C352.378 121.334 349.556 123.298 348.918 120.533C348.498 118.696 348.523 108.165 348.726 104.732C346.515 104.587 344.627 104.218 344.627 104.218L342.032 93.3611L341.125 104.083C337.232 105.437 328.152 103.268 328.152 103.268L325.108 92.5674L323.224 102.864C317.386 105.706 310.091 103.814 310.091 103.814L308.415 92.7068L304.545 103.814C304.545 103.814 292.093 108.279 291.957 103.814C291.874 101.214 293.779 93.8953 295.387 88.2259C297.141 82.043 301.203 76.8181 306.699 73.8722C322.144 65.5828 338.479 69.9932 344.081 73.338C355.964 80.4293 355.475 102.999 355.475 102.999Z" fill="#2F335D"/>
<path d="M298.816 80.4501C298.816 80.4501 288.563 92.6393 285.191 114.41C281.819 136.181 277.15 152.267 290.271 159.455C304.473 167.235 303.244 151.278 303.04 146.941C302.834 142.605 290.753 130.75 298.816 97.3631C301.419 86.5848 298.816 80.4501 298.816 80.4501Z" fill="#2F335D"/>
<path d="M296.42 125.438C296.42 125.438 296.42 125.449 296.42 125.464C296.424 125.625 296.435 126.492 296.497 127.846C296.528 128.686 296.58 129.708 296.659 130.87C297.141 138.204 298.569 150.871 302.761 155.265C304.415 157.003 307.606 157.874 311.363 158.228V152.464C307.403 150.585 304.317 147.5 301.925 143.703C300.446 140.503 297.899 135.492 296.704 127.612L296.42 125.438Z" fill="#1C1A2C"/>
<path d="M352.545 132.563C352.545 133.565 351.732 134.376 350.732 134.376C349.73 134.376 348.918 133.565 348.918 132.563C348.918 131.562 349.73 130.75 350.732 130.75C351.732 130.75 352.545 131.562 352.545 132.563Z" fill="white"/>
<path d="M389.496 269.117C384.36 283.817 361.359 282.746 335.162 274.711C335.125 274.7 335.088 274.686 335.049 274.676C334.966 274.651 334.888 274.624 334.805 274.6L331.201 273.452C330.704 273.289 330.204 273.123 329.707 272.953C326.883 272.009 324.04 270.988 321.185 269.903C311.826 266.349 302.392 262.138 293.498 257.644L293.56 257.488L296.239 250.532L297.153 248.165C297.153 248.165 345.717 253.455 370.137 248.351C370.551 248.266 370.954 248.179 371.35 248.086C371.255 247.544 371.225 246.992 371.072 246.475C358.133 202.44 372.284 193.997 377.019 187.854C377.019 187.854 399.191 241.369 389.496 269.117Z" fill="#3D89D1"/>
<path d="M381.582 255.488C381.437 255.557 381.281 255.59 381.129 255.59C380.747 255.59 380.378 255.378 380.199 255.011C378.348 251.223 372.066 248.968 370.137 248.351C370.551 248.266 370.954 248.179 371.35 248.086C371.255 247.544 371.163 247.007 371.072 246.475C373.527 247.286 379.935 249.757 382.057 254.104C382.31 254.614 382.096 255.236 381.582 255.488Z" fill="#385DB4"/>
<path d="M313.561 253.643C303.65 253.643 295.601 253.074 294.9 253.023C294.33 252.981 293.902 252.484 293.942 251.914C293.984 251.344 294.48 250.92 295.05 250.958C295.416 250.983 331.846 253.561 346.209 247.736C346.738 247.522 347.343 247.774 347.558 248.306C347.772 248.835 347.518 249.438 346.988 249.655C339.037 252.878 325.048 253.643 313.561 253.643Z" fill="#385DB4"/>
<path d="M331.201 273.452C331.204 273.452 331.204 273.452 331.204 273.452C339.516 271.16 347.071 268.927 351.434 267.53C357.49 265.587 362.502 259.467 364.781 254.262C365.009 253.739 365.619 253.5 366.144 253.732C366.668 253.96 366.907 254.57 366.679 255.095C364.213 260.721 358.741 267.361 352.066 269.504C348.9 270.52 344.065 271.968 338.475 273.562C336.093 274.243 333.561 274.204 331.201 273.452Z" fill="#385DB4"/>
<path d="M353.604 266.333C278.55 291.604 255.46 275.067 255.46 275.067C250.408 229.384 269.026 188.307 269.026 188.307C274.529 197.374 280.748 213.202 280.748 213.202L282.391 248.218L282.267 249.191L282.207 249.65L281.898 252.044L281.89 252.092C282.05 252.127 282.212 252.161 282.373 252.196C305.078 256.985 346.598 251.633 346.598 251.633L353.604 266.333Z" fill="#3D89D1"/>
<path d="M282.373 252.196C278.322 255.59 274.474 259.504 271.042 264C270.697 264.455 270.045 264.545 269.59 264.197C269.134 263.852 269.049 263.203 269.39 262.748C269.394 262.748 269.394 262.744 269.394 262.744C273.249 257.682 277.618 253.349 282.208 249.65L281.898 252.044L281.89 252.092C282.05 252.127 282.212 252.161 282.373 252.196Z" fill="#385DB4"/>
<path d="M346.598 251.634C346.598 251.634 354.908 232.764 367.541 234.444L371.35 248.088C364.435 251.022 363.423 262.878 353.606 266.333L346.598 251.634Z" fill="#F6876F"/>
<path d="M297.155 248.165C297.155 248.165 291.908 235.851 278.097 232.278C264.288 228.702 255.489 235.21 254.561 237.664C253.635 240.12 259.77 237.773 259.77 237.773C259.77 237.773 255.774 238.904 253.481 242.658C251.189 246.412 259.061 242.362 259.061 242.362C259.061 242.362 253.417 244.834 252.698 247.127C251.98 249.421 259.426 245.546 260.826 245.621C260.826 245.621 254.177 248.263 254.223 250.629C254.267 252.994 261.86 249.137 267.528 249.44C273.198 249.747 281.89 252.094 281.89 252.094C286.529 252.977 290.963 253.629 294.974 253.815L297.155 248.165Z" fill="#F6876F"/>
<path d="M430.512 41.0817C427.004 41.0817 424.151 43.935 424.151 47.4427C424.151 50.9489 427.004 53.8023 430.512 53.8023C434.019 53.8023 436.875 50.9489 436.875 47.4427C436.875 43.935 434.019 41.0817 430.512 41.0817ZM430.512 56.7095C425.4 56.7095 421.241 52.5516 421.241 47.4427C421.241 42.3323 425.4 38.1745 430.512 38.1745C435.624 38.1745 439.783 42.3323 439.783 47.4427C439.783 52.5516 435.624 56.7095 430.512 56.7095Z" fill="#15ADAE"/>
<path d="M511.392 25.3364C507.884 25.3364 505.031 28.1884 505.031 31.6961C505.031 35.2023 507.884 38.0557 511.392 38.0557C514.9 38.0557 517.755 35.2023 517.755 31.6961C517.755 28.1884 514.9 25.3364 511.392 25.3364ZM511.392 40.9642C506.281 40.9642 502.122 36.8064 502.122 31.6961C502.122 26.5857 506.281 22.4279 511.392 22.4279C516.504 22.4279 520.663 26.5857 520.663 31.6961C520.663 36.8064 516.504 40.9642 511.392 40.9642Z" fill="#29C1C2"/>
<path d="M522.846 71.0811C522.044 71.0811 521.394 70.4295 521.394 69.6261V63.2154C521.394 62.412 522.044 61.7618 522.846 61.7618C523.648 61.7618 524.3 62.412 524.3 63.2154V69.6261C524.3 70.4295 523.648 71.0811 522.846 71.0811Z" fill="#015656"/>
<path d="M522.846 82.2998C522.044 82.2998 521.394 81.6482 521.394 80.8462V74.4341C521.394 73.6321 522.044 72.9819 522.846 72.9819C523.648 72.9819 524.3 73.6321 524.3 74.4341V80.8462C524.3 81.6482 523.648 82.2998 522.846 82.2998Z" fill="#015656"/>
<path d="M531.848 73.4844H526.087C525.285 73.4844 524.633 72.8342 524.633 72.0308C524.633 71.2274 525.285 70.5772 526.087 70.5772H531.848C532.651 70.5772 533.303 71.2274 533.303 72.0308C533.303 72.8342 532.651 73.4844 531.848 73.4844Z" fill="#015656"/>
<path d="M519.607 73.4844H513.846C513.042 73.4844 512.391 72.8342 512.391 72.0308C512.391 71.2274 513.042 70.5772 513.846 70.5772H519.607C520.409 70.5772 521.059 71.2274 521.059 72.0308C521.059 72.8342 520.409 73.4844 519.607 73.4844Z" fill="#015656"/>
<path d="M473.88 32.2428C473.078 32.2428 472.428 31.5912 472.428 30.7892V24.3771C472.428 23.5751 473.078 22.9235 473.88 22.9235C474.684 22.9235 475.334 23.5751 475.334 24.3771V30.7892C475.334 31.5912 474.684 32.2428 473.88 32.2428Z" fill="#015556"/>
<path d="M473.88 43.4615C473.078 43.4615 472.428 42.8114 472.428 42.008V35.5973C472.428 34.7939 473.078 34.1437 473.88 34.1437C474.684 34.1437 475.334 34.7939 475.334 35.5973V42.008C475.334 42.8114 474.684 43.4615 473.88 43.4615Z" fill="#015556"/>
<path d="M482.882 34.6475H477.121C476.319 34.6475 475.667 33.9959 475.667 33.1925C475.667 32.3905 476.319 31.7389 477.121 31.7389H482.882C483.685 31.7389 484.337 32.3905 484.337 33.1925C484.337 33.9959 483.685 34.6475 482.882 34.6475Z" fill="#015556"/>
<path d="M470.641 34.6475H464.88C464.077 34.6475 463.425 33.9959 463.425 33.1925C463.425 32.3905 464.077 31.7389 464.88 31.7389H470.641C471.443 31.7389 472.094 32.3905 472.094 33.1925C472.094 33.9959 471.443 34.6475 470.641 34.6475Z" fill="#015556"/>
<path d="M102.075 23.9257C102.075 27.432 104.929 30.2853 108.437 30.2853C111.945 30.2853 114.799 27.432 114.799 23.9257C114.799 20.4181 111.945 17.5647 108.437 17.5647C104.929 17.5647 102.075 20.4181 102.075 23.9257ZM99.1667 23.9257C99.1667 18.814 103.325 14.6575 108.437 14.6575C113.549 14.6575 117.708 18.814 117.708 23.9257C117.708 29.0361 113.549 33.1925 108.437 33.1925C103.325 33.1925 99.1667 29.0361 99.1667 23.9257Z" fill="#15ADAE"/>
<path d="M64.8463 59.2508C64.8463 62.7571 67.7001 65.6105 71.2081 65.6105C74.7162 65.6105 77.57 62.7571 77.57 59.2508C77.57 55.7432 74.7162 52.8898 71.2081 52.8898C67.7001 52.8898 64.8463 55.7432 64.8463 59.2508ZM61.9375 59.2508C61.9375 54.1405 66.0971 49.9827 71.2081 49.9827C76.3193 49.9827 80.479 54.1405 80.479 59.2508C80.479 64.3612 76.3193 68.519 71.2081 68.519C66.0971 68.519 61.9375 64.3612 61.9375 59.2508Z" fill="#29C1C2"/>
<path d="M42.6644 72.2559C43.4677 72.2559 44.1187 71.6057 44.1187 70.8023V64.3916C44.1187 63.5882 43.4677 62.938 42.6644 62.938C41.8614 62.938 41.2103 63.5882 41.2103 64.3916V70.8023C41.2103 71.6057 41.8614 72.2559 42.6644 72.2559Z" fill="#015656"/>
<path d="M42.6644 83.4758C43.4677 83.4758 44.1187 82.8256 44.1187 82.0209V75.6102C44.1187 74.8081 43.4677 74.1566 42.6644 74.1566C41.8614 74.1566 41.2103 74.8081 41.2103 75.6102V82.0209C41.2103 82.8256 41.8614 83.4758 42.6644 83.4758Z" fill="#015656"/>
<path d="M33.6629 74.6606H39.4234C40.2265 74.6606 40.8781 74.0091 40.8781 73.2071C40.8781 72.4036 40.2265 71.7535 39.4234 71.7535H33.6629C32.8602 71.7535 32.2087 72.4036 32.2087 73.2071C32.2087 74.0091 32.8602 74.6606 33.6629 74.6606Z" fill="#015656"/>
<path d="M45.9045 74.6606H51.6662C52.4687 74.6606 53.1197 74.0091 53.1197 73.2071C53.1197 72.4036 52.4687 71.7535 51.6662 71.7535H45.9045C45.102 71.7535 44.4515 72.4036 44.4515 73.2071C44.4515 74.0091 45.102 74.6606 45.9045 74.6606Z" fill="#015656"/>
<path d="M76.1714 22.9746C76.9741 22.9746 77.6257 22.323 77.6257 21.521V15.1103C77.6257 14.3069 76.9741 13.6567 76.1714 13.6567C75.3689 13.6567 74.7173 14.3069 74.7173 15.1103V21.521C74.7173 22.323 75.3689 22.9746 76.1714 22.9746Z" fill="#015656"/>
<path d="M76.1714 34.1947C76.9741 34.1947 77.6257 33.5431 77.6257 32.7397V26.329C77.6257 25.527 76.9741 24.8754 76.1714 24.8754C75.3689 24.8754 74.7173 25.527 74.7173 26.329V32.7397C74.7173 33.5431 75.3689 34.1947 76.1714 34.1947Z" fill="#015656"/>
<path d="M67.1704 25.3793H72.931C73.7335 25.3793 74.3851 24.7277 74.3851 23.9257C74.3851 23.1223 73.7335 22.4707 72.931 22.4707H67.1704C66.3674 22.4707 65.7163 23.1223 65.7163 23.9257C65.7163 24.7277 66.3674 25.3793 67.1704 25.3793Z" fill="#015656"/>
<path d="M79.412 25.3793H85.1726C85.9757 25.3793 86.6267 24.7277 86.6267 23.9257C86.6267 23.1223 85.9757 22.4707 85.1726 22.4707H79.412C78.609 22.4707 77.9579 23.1223 77.9579 23.9257C77.9579 24.7277 78.609 25.3793 79.412 25.3793Z" fill="#015656"/>
<path d="M353.4 24.591C353.233 24.609 353.059 24.5855 352.892 24.5151C351.127 23.7711 350.093 23.4232 350.082 23.4204C349.542 23.2396 349.251 22.6557 349.429 22.1145C349.611 21.5734 350.195 21.2821 350.737 21.4616C350.781 21.4768 351.847 21.8343 353.694 22.6129C354.22 22.8351 354.467 23.4398 354.245 23.9657C354.093 24.3246 353.763 24.5537 353.4 24.591Z" fill="#ABDDE7"/>
<path d="M406.022 79.9572C406.725 81.8304 407.382 83.7617 407.978 85.6984C408.125 86.1788 408.591 86.4728 409.073 86.4218C409.137 86.4162 409.204 86.4024 409.267 86.3817C409.813 86.2147 410.121 85.6377 409.952 85.0924C409.345 83.1156 408.673 81.1444 407.957 79.2325C407.757 78.6996 407.164 78.4291 406.627 78.6293C406.094 78.8294 405.822 79.4244 406.022 79.9572Z" fill="#ABDDE7"/>
<path d="M409.586 91.5473C410.06 93.4868 410.488 95.4829 410.858 97.4818C410.956 98.0146 411.449 98.3763 411.98 98.3211C412.007 98.317 412.033 98.3142 412.062 98.3087C412.621 98.2051 412.993 97.6654 412.888 97.1063C412.511 95.0702 412.076 93.0354 411.592 91.0587C411.457 90.5051 410.898 90.1655 410.346 90.3008C409.791 90.4347 409.451 90.9938 409.586 91.5473Z" fill="#ABDDE7"/>
<path d="M413.941 122.72C414.453 122.666 414.855 122.237 414.864 121.71C414.897 119.638 414.881 117.56 414.819 115.532C414.803 114.962 414.325 114.515 413.756 114.531C413.178 114.552 412.739 115.026 412.756 115.594C412.816 117.592 412.83 119.638 412.799 121.678C412.791 122.248 413.245 122.716 413.816 122.726C413.858 122.727 413.9 122.724 413.941 122.72Z" fill="#ABDDE7"/>
<path d="M412.692 102.321C412.125 102.395 411.726 102.914 411.8 103.478C411.921 104.411 412.032 105.354 412.13 106.28C412.243 107.35 412.344 108.441 412.428 109.523C412.472 110.09 412.969 110.516 413.538 110.471C413.548 110.47 413.557 110.469 413.567 110.469C414.121 110.409 414.531 109.919 414.487 109.362C414.4 108.26 414.299 107.152 414.183 106.064C414.085 105.121 413.972 104.163 413.847 103.212C413.776 102.655 413.272 102.261 412.715 102.319C412.708 102.32 412.699 102.32 412.692 102.321Z" fill="#ABDDE7"/>
<path d="M403.719 74.3486C403.907 74.7682 404.338 75.0001 404.77 74.9545C404.876 74.9435 404.981 74.9159 405.083 74.8704C405.604 74.6371 405.837 74.0269 405.604 73.5065C404.763 71.6263 403.853 69.7517 402.896 67.9364C402.631 67.4312 402.008 67.238 401.502 67.503C400.998 67.768 400.804 68.392 401.069 68.8972C402.004 70.6752 402.895 72.5084 403.719 74.3486Z" fill="#ABDDE7"/>
<path d="M358.377 27.0812C360.149 27.9854 361.939 28.9724 363.695 30.0119C363.894 30.1292 364.115 30.172 364.328 30.1499C364.643 30.1168 364.937 29.9415 365.111 29.6502C365.401 29.1588 365.239 28.5266 364.748 28.2353C362.954 27.1751 361.127 26.1674 359.317 25.2425C358.809 24.983 358.186 25.1846 357.928 25.6912C357.668 26.1992 357.87 26.8203 358.377 27.0812Z" fill="#ABDDE7"/>
<path d="M373.763 36.801C373.982 36.9666 374.246 37.0329 374.5 37.0066C374.772 36.9777 375.032 36.841 375.211 36.6063C375.556 36.1535 375.471 35.5061 375.018 35.1596C373.382 33.9117 371.69 32.6969 369.985 31.5471C369.511 31.2296 368.872 31.3524 368.552 31.8259C368.233 32.298 368.357 32.9399 368.831 33.2588C370.501 34.3852 372.161 35.5765 373.763 36.801Z" fill="#ABDDE7"/>
<path d="M391.114 53.7015C391.342 53.9859 391.691 54.1184 392.029 54.0825C392.219 54.0632 392.405 53.99 392.565 53.8616C393.01 53.5055 393.083 52.8567 392.725 52.4108C391.443 50.8095 390.089 49.2234 388.704 47.6994C388.319 47.277 387.667 47.2452 387.245 47.629C386.824 48.0128 386.792 48.6657 387.174 49.0881C388.533 50.5804 389.857 52.1333 391.114 53.7015Z" fill="#ABDDE7"/>
<path d="M382.957 44.726C383.185 44.9482 383.492 45.0435 383.786 45.0117C384.018 44.9883 384.242 44.8861 384.417 44.7053C384.815 44.2967 384.806 43.6437 384.398 43.2462C382.928 41.8174 381.392 40.4094 379.827 39.0621C379.396 38.6894 378.743 38.7391 378.372 39.1712C377.999 39.6018 378.047 40.2548 378.481 40.6261C380.012 41.9472 381.519 43.3262 382.957 44.726Z" fill="#ABDDE7"/>
<path d="M398.077 63.6241C398.291 63.9761 398.683 64.1542 399.067 64.1128C399.215 64.0976 399.361 64.0492 399.497 63.9678C399.984 63.671 400.136 63.0347 399.839 62.5488C398.768 60.7942 397.626 59.0494 396.444 57.3666C396.118 56.9 395.474 56.7868 395.006 57.114C394.538 57.4425 394.426 58.0858 394.755 58.5524C395.911 60.1992 397.028 61.9068 398.077 63.6241Z" fill="#ABDDE7"/>
<path d="M353.381 17.5288L357.899 0.798008L302.533 1.27293L353.381 17.5288Z" fill="#15ADAE"/>
<path d="M302.533 1.27147L350.694 21.5679L350.821 21.6231L352.892 25.0535L353.381 17.5288L302.533 1.27147Z" fill="#069899"/>
<path d="M352.892 25.0535L348.403 24.3467L350.821 21.6231L352.892 25.0535Z" fill="#008E8F"/>
<path d="M344.762 19.0693L350.822 21.6231L338.34 35.6814L302.533 1.27291L344.762 19.0693Z" fill="#15ADAE"/>
<path d="M607.974 457.698V458.706C607.974 464.525 603.254 469.242 597.431 469.242H50.707C44.885 469.242 40.1693 464.525 40.1693 458.706V457.698C40.1693 451.881 44.885 447.163 50.707 447.163H597.431C603.254 447.163 607.974 451.881 607.974 457.698Z" fill="#003132"/>
<path d="M607.974 457.699V458.203H40.1693V457.699C40.1693 451.881 44.885 447.163 50.707 447.163H597.431C603.254 447.163 607.974 451.881 607.974 457.699Z" fill="#034F50"/>
<path d="M407.741 414.019H235.991C231.887 414.019 228.559 410.694 228.559 406.591V316.757C228.559 312.654 231.887 309.329 235.991 309.329H407.741C411.845 309.329 415.172 312.654 415.172 316.757V406.591C415.172 410.694 411.845 414.019 407.741 414.019Z" fill="#2F335D"/>
<path d="M336.315 446.837H307.415V413.9H336.315V446.837Z" fill="#1C1A2C"/>
<path d="M335.887 362.957C335.887 370.877 329.464 377.297 321.544 377.297C313.621 377.297 307.199 370.877 307.199 362.957C307.199 355.038 313.621 348.617 321.544 348.617C329.464 348.617 335.887 355.038 335.887 362.957Z" fill="#35527F"/>
<path d="M358.678 446.837H284.131V444.327C284.131 439.26 288.239 435.152 293.306 435.152H349.501C354.568 435.152 358.678 439.26 358.678 444.327V446.837Z" fill="#2F335D"/>
</svg>
