<svg width="832" height="528" viewBox="0 0 832 528" fill="none" xmlns="http://www.w3.org/2000/svg">
<path d="M764 266.533V266.4H764.133V266.133H764.267V265.867H764.4V265.467H764.533V265.2H764.667V264.933H764.8V264.533H764.933V264.267H765.067V264H765.2V263.733H765.333V263.333H765.467V263.067H765.6V262.8H765.733V262.4H765.867V262.133H766V261.867H766.133V261.6H766.267V261.2H766.4V260.933H766.533V260.667H766.667V260.267H766.8V260H766.933V259.733H767.067V259.467H767.2V259.067H767.333V258.8H767.467V258.533H767.6V258.133H767.733V257.867H767.867V257.6H768V257.333H768.133V256.933H768.267V256.667H768.4V256.4H768.533V256H768.667V255.733H768.8V255.467H768.933V255.2H769.067V254.8H769.2V254.533H769.333V254.267H769.467V254H769.6V253.6H769.733V253.333H769.867V253.067H770V252.667H770.133V252.4H770.267V252.133H770.4V251.867H770.533V251.467H770.667V251.2H770.8V250.933H770.933V250.533H771.067V250.267H771.2V250H771.333V249.733H771.467V249.333H771.6V249.067H771.733V248.8H771.867V248.4H772V248.133H772.133V247.867H772.267V247.6H772.4V247.2H772.533V246.933H772.667V246.667H772.8V246.267H772.933V246H773.067V245.733H773.2V245.467H773.333V245.067H773.467V244.8H773.6V244.533H773.733V244.133H773.867V244H774.133V244.267H774.267V244.4H774.4V244.533H774.533V244.8H774.667V244.933H774.8V245.067H774.933V245.333H775.067V245.467H775.2V245.6H775.333V245.867H775.467V246H775.6V246.267H775.733V246.4H775.867V246.533H776V246.8H776.133V246.933H776.267V247.067H776.4V247.333H776.533V247.467H776.667V247.6H776.8V247.867H776.933V248H777.067V248.133H777.2V248.4H777.333V248.533H777.467V248.8H777.6V248.933H777.733V249.067H777.867V249.333H778V249.467H778.133V249.6H778.267V249.867H778.4V250H778.533V250.133H778.667V250.4H778.8V250.533H778.933V250.667H779.067V250.933H779.2V251.067H779.333V251.333H779.467V251.467H779.6V251.6H779.733V251.867H779.867V252H780V252.133H780.133V252.4H780.267V252.533H780.4V252.667H780.533V252.933H780.667V253.067H780.8V253.333H780.933V253.467H781.067V253.6H781.2V253.867H781.333V254H781.467V254.133H781.6V254.4H781.733V254.533H781.867V254.667H782V254.933H782.133V255.067H782.267V255.2H782.4V255.467H782.533V255.6H782.667V255.867H782.8V256H782.933V256.133H783.067V256.4H783.2V256.533H783.333V256.667H783.467V256.933H783.6V257.067H783.733V257.2H783.867V257.467H784V257.6H784.133V257.733H784.267V258H784.4V258.133H784.533V258.4H784.667V258.533H784.8V258.667H784.933V258.933H785.067V259.067H785.2V259.2H785.333V259.467H785.467V259.6H785.6V259.733H785.733V260H785.867V260.133H786V260.4H786.133V260.533H786.267V260.667H786.4V260.933H786.533V261.067H786.667V261.2H786.8V261.467H786.933V261.6H787.067V261.733H787.2V262H787.333V262.133H787.467V262.267H787.6V262.533H787.733V262.667H787.867V262.933H788V263.067H788.133V263.2H788.267V263.467H788.4V263.6H788.533V263.867H788V264H786.8V264.133H785.6V264.267H784.4V264.4H783.2V264.533H782V264.667H780.8V264.8H779.6V264.933H778.4V265.067H777.2V265.2H776V265.333H774.8V265.467H773.6V265.6H772.4V265.733H771.2V265.867H770V266H768.8V266.133H767.6V266.267H766.4V266.4H765.2V266.533" fill="url(#paint0_linear_9_1652)"/>
<path d="M8.516 452.488H8.05601C8.05334 454.457 6.45867 456.053 4.488 456.057C2.51734 456.053 0.924003 454.459 0.920003 452.488C0.924003 450.517 2.51734 448.923 4.488 448.92C6.45867 448.923 8.05334 450.517 8.05601 452.488H8.516H8.97601C8.97601 450.009 6.96801 448 4.488 448C2.00934 448 0 450.009 0 452.488C0 454.967 2.00934 456.977 4.488 456.977C6.96801 456.977 8.97601 454.967 8.97601 452.488H8.516Z" fill="#29C1C2"/>
<path d="M783.567 519.013H783.107C783.107 520.973 782.313 522.743 781.029 524.028C779.744 525.312 777.973 526.105 776.013 526.105C774.053 526.105 772.283 525.312 770.999 524.028C769.713 522.743 768.921 520.973 768.92 519.013C768.921 517.053 769.713 515.283 770.999 513.997C772.283 512.713 774.053 511.92 776.013 511.92C777.973 511.92 779.744 512.713 781.029 513.997C782.313 515.283 783.107 517.053 783.107 519.013H783.567H784.027C784.027 514.587 780.44 511 776.013 511C771.588 511 768.001 514.587 768 519.013C768.001 523.439 771.588 527.025 776.013 527.025C780.44 527.025 784.027 523.439 784.027 519.013H783.567Z" fill="#29C1C2"/>
<path d="M356.539 5.99865H356.079C356.079 7.40265 355.511 8.66932 354.591 9.58932C353.671 10.5093 352.403 11.0773 350.999 11.0773C349.595 11.0773 348.328 10.5093 347.408 9.58932C346.488 8.66932 345.92 7.40265 345.92 5.99865C345.92 4.59465 346.488 3.32799 347.408 2.40799C348.328 1.48799 349.595 0.919988 350.999 0.919988C352.403 0.919988 353.671 1.48799 354.591 2.40799C355.511 3.32799 356.079 4.59465 356.079 5.99865H356.539H356.999C356.999 2.68532 354.313 -1.52588e-05 350.999 -1.52588e-05C347.685 -1.52588e-05 345 2.68532 345 5.99865C345 9.31198 347.685 11.9973 350.999 11.9973C354.313 11.9973 356.999 9.31198 356.999 5.99865H356.539Z" fill="#29C1C2"/>
<path d="M831.503 172.481H831.043C831.04 173.896 829.895 175.04 828.481 175.041C827.067 175.04 825.923 173.896 825.92 172.481C825.923 171.068 827.067 169.923 828.481 169.92C829.895 169.923 831.04 171.068 831.043 172.481H831.503H831.963C831.961 170.559 830.404 169 828.481 169C826.557 169 825.001 170.559 825 172.481C825 174.404 826.559 175.961 828.481 175.963C830.404 175.961 831.963 174.405 831.963 172.481H831.503Z" fill="#29C1C2"/>
<path d="M37.1333 304.667V304.533H37V304.4H36.8667V304.267H36.6V304.133H36.4667V304H36.3333V303.867H36.2V303.733H36.0667V303.6H35.9333V303.467H35.6667V303.333H35.5333V303.2H35.4V303.067H35.2667V302.933H35.1333V302.8H35V302.667H34.7333V302.533H34.6V302.4H34.4667V302.267H34.3333V302.133H34.2V302H34.0667V301.867H33.9333V301.733H33.6667V301.6H33.5333V301.467H33.4V301.333H33.2667V301.2H33.1333V301.067H33V300.933H32.7333V300.8H32.6V300.667H32.4667V300.533H32.3333V300.4H32.2V300.267H32.0667V300.133H31.9333V300H31.6667V299.867H31.5333V299.733H31.4V299.6H31.2667V299.467H31.1333V299.333H31V299.2H30.7333V299.067H30.6V298.933H30.4667V298.8H30.3333V298.667H30.2V298.533H30.0667V298.4H29.8V298.267H29.6667V298.133H29.5333V298H29.4V297.867H29.2667V297.733H29.1333V297.6H29V297.467H28.7333V297.333H28.6V297.2H28.4667V297.067H28.3333V296.933H28.2V296.8H28.0667V296.667H27.8V296.533H27.6667V296.4H27.5333V296.267H27.4V296.133H27.2667V296H27.1333V295.867H26.8667V295.733H26.7333V295.6H26.6V295.467H26.4667V295.333H26.3333V295.2H26.2V295.067H26.0667V294.933H25.8V294.8H25.6667V294.667H25.5333V294.533H25.4V294.4H25.2667V294.267H25.1333V294.133H24.8667V294H24.7333V293.867H24.6V293.733H24.4667V293.6H24.3333V293.467H24.2V293.333H23.9333V293.2H23.8V293.067H23.6667V292.933H23.5333V292.8H23.4V292.667H23.2667V292.533H23.1333V292.4H23V292.267H23.1333V292.133H23.5333V292H23.9333V291.867H24.3333V291.733H24.7333V291.6H25.1333V291.467H25.4V291.333H25.8V291.2H26.2V291.067H26.6V290.933H27V290.8H27.4V290.667H27.8V290.533H28.2V290.4H28.4667V290.267H28.8667V290.133H29.2667V290H29.6667V289.867H30.0667V289.733H30.4667V289.6H30.8667V289.467H31.2667V289.333H31.5333V289.2H31.9333V289.067H32.3333V288.933H32.7333V288.8H33.1333V288.667H33.5333V288.533H33.9333V288.4H34.3333V288.267H34.6V288.133H35V288H35.4V287.867H35.8V287.733H36.2V287.6H36.6V287.467H37V287.333H37.4V287.2H37.6667V287.067H38.0667V286.933H38.4667V286.8H38.8667V286.667H39.2667V286.533H39.6667V286.4H40.0667V286.267H40.4667V286.133H40.7333V286H41V286.267H40.8667V286.933H40.7333V287.6H40.6V288.267H40.4667V289.067H40.3333V289.733H40.2V290.4H40.0667V291.067H39.9333V291.867H39.8V292.533H39.6667V293.2H39.5333V293.867H39.4V294.533H39.2667V295.333H39.1333V296H39V296.667H38.8667V297.333H38.7333V298.133H38.6V298.8H38.4667V299.467H38.3333V300.133H38.2V300.933H38.0667V301.6H37.9333V302.267H37.8V302.933H37.6667V303.6H37.5333V304.4H37.4V304.667" fill="url(#paint1_linear_9_1652)"/>
<defs>
<linearGradient id="paint0_linear_9_1652" x1="783.499" y1="256.128" x2="768.995" y2="255.272" gradientUnits="userSpaceOnUse">
<stop stop-color="#E13311"/>
<stop offset="1" stop-color="#FF512F"/>
</linearGradient>
<linearGradient id="paint1_linear_9_1652" x1="37.3061" y1="296.047" x2="26.6565" y2="295.49" gradientUnits="userSpaceOnUse">
<stop stop-color="#E13311"/>
<stop offset="1" stop-color="#FF512F"/>
</linearGradient>
</defs>
</svg>
