<svg width="832" height="528" viewBox="0 0 832 528" fill="none" xmlns="http://www.w3.org/2000/svg">
<g clip-path="url(#clip0_220_1380)">
<path opacity="0.5" d="M369.592 158.26C348.014 80.005 250.777 54.7957 195.05 113.282C194.25 114.121 193.451 114.975 192.652 115.842C112.761 202.664 150.502 416.619 317.233 470.848C483.963 525.075 657.387 426.05 667.13 337.528C676.872 249.005 599.95 221.19 480.577 245.943C413.134 259.928 383.024 206.977 369.592 158.26Z" fill="#29C1C2"/>
<path opacity="0.5" d="M508.289 171.646C485.982 175.276 479.8 195.036 497.023 209.053C502.716 213.685 510.847 217.535 522.429 219.456C566.553 226.773 589.966 207.258 572.279 181.955C561.364 166.337 530.397 168.047 508.289 171.646Z" fill="#29C1C2"/>
<path opacity="0.5" d="M152.597 329.766C138.729 311.924 118.416 315.957 114.353 337.786C113.01 345.001 113.522 353.98 117.38 365.066C132.078 407.296 160.426 418.502 174.18 390.865C182.669 373.807 166.341 347.446 152.597 329.766Z" fill="#29C1C2"/>
<path opacity="0.5" d="M682.855 347.816C680.8 358.571 689.683 366.188 699.749 362.046C703.075 360.675 706.43 358.034 709.417 353.392C720.789 335.704 715.03 320.532 699.194 322.089C689.422 323.05 684.891 337.158 682.855 347.816Z" fill="#29C1C2"/>
<path opacity="0.5" d="M626.459 234.322C637.181 236.558 644.95 227.809 640.978 217.676C639.665 214.327 637.08 210.927 632.487 207.864C614.993 196.196 599.72 201.694 601.008 217.549C601.803 227.335 615.833 232.105 626.459 234.322Z" fill="#29C1C2"/>
<path opacity="0.5" d="M365.866 119.23C374.355 126.148 385.282 121.956 386.418 111.132C386.794 107.556 386.065 103.348 383.397 98.5151C373.237 80.1057 357.146 77.9619 350.991 92.6304C347.192 101.685 357.454 112.373 365.866 119.23Z" fill="#29C1C2"/>
<path d="M709.436 401.618C726.46 384.509 739.425 365.175 726.528 362.161C713.619 359.142 691.939 392.837 688.161 423.506L684.38 433.632C687.524 411.33 679.88 384.164 668.688 383.043C657.568 381.932 664.299 399.553 673.131 414.622C679.854 426.095 681.627 435.145 682.07 439.82L664.212 487.644C669.089 452.312 656.98 409.445 639.272 407.674C621.626 405.91 632.306 433.871 646.321 457.781C656.914 475.851 659.764 490.142 660.491 497.61L656.931 507.145C658.489 508.023 660.051 508.888 661.617 509.747L682.861 452.851C686.96 449.792 693.183 446.096 702.044 443.099C718.594 437.502 735.228 428.6 726.098 422.155C718.174 416.563 699.548 427.329 686.718 442.522L694.064 422.846C697.378 417.148 702.089 409.002 709.436 401.618Z" fill="#15ADAE"/>
<path d="M172.807 178.407C175.015 157.742 173.296 137.772 163.009 142.697C152.713 147.628 156.321 181.94 170.321 204.572L173.242 213.409C163.327 196.738 143.546 182.613 135.427 187.892C127.359 193.139 141.38 201.346 155.438 206.706C166.139 210.786 172.208 215.909 175.028 218.811L188.821 260.551C173.046 234.194 141.799 211.932 128.952 220.287C116.15 228.611 138.399 241.632 160.704 250.137C177.56 256.564 187.18 264.627 191.695 269.249L194.446 277.572C195.964 277.322 197.481 277.062 198.996 276.793L182.585 227.136C183.688 222.872 185.874 217.036 190.209 210.248C198.305 197.572 204.676 182.629 195.07 183.221C186.733 183.734 180.029 201.002 179.605 218.121L173.93 200.947C173.081 195.334 171.854 187.326 172.807 178.407Z" fill="#15ADAE"/>
<path d="M594.521 458.454C594.736 459.626 594.986 460.903 595.279 462.262V462.266C598.344 476.513 605.87 499.838 622.802 504.424C622.802 504.424 613.585 456.38 646.435 443.867C679.284 431.355 675.651 419.441 673.774 398.232C671.897 377.024 664.638 372.98 687.431 353.115C710.222 333.25 705.863 303.662 705.863 303.662C705.863 303.662 684.293 337.445 661.255 338.229C638.215 339.013 634.18 358.676 635.162 373.299C636.144 387.92 616.578 389.574 605.99 398.054C595.403 406.537 593.409 451.075 593.409 451.075C593.409 451.075 593.701 453.985 594.521 458.454Z" fill="#29C1C2"/>
<path d="M594.521 458.454C594.736 459.626 594.986 460.903 595.279 462.262C597.64 455.112 600.965 449.109 604.073 444.5C611.442 433.586 621.819 424.62 631.153 421.102C646.013 415.503 653.27 400.931 654.677 373.852C655.491 358.135 671.939 348.849 672.109 348.759C672.59 348.492 672.765 347.885 672.497 347.405C672.231 346.922 671.623 346.746 671.144 347.013C670.425 347.409 653.555 356.912 652.683 373.747C651.324 399.926 644.467 413.956 630.45 419.238C620.603 422.949 610.122 431.975 602.419 443.383C599.697 447.415 596.816 452.492 594.521 458.454Z" fill="#0BA3A4"/>
<path d="M230.919 504.163H254.002C241.529 502.102 210.606 488.829 207.849 462.216C204.356 428.508 192.35 428.93 172.119 425.404C151.888 421.879 146.315 427.634 133.47 401.465C120.625 375.295 91.9649 371.997 91.9649 371.997C91.9649 371.997 118.086 400.49 113.087 422.145C108.087 443.799 125.409 452.447 139.28 455.168C153.152 457.889 149.826 476.526 155.098 488.495C157.503 493.958 167.348 499.62 177.344 504.163H230.919Z" fill="#15ADAE"/>
<path d="M180.921 470.982C181.929 481.076 187.736 493.081 196.453 503.093C196.759 503.445 197.078 503.803 197.404 504.163H200.031C199.279 503.371 198.567 502.591 197.904 501.83C189.565 492.253 183.791 480.359 182.833 470.79C181.311 455.557 169.536 445.173 144.649 437.13C130.204 432.462 125.641 414.833 125.6 414.652C125.471 414.139 124.948 413.824 124.435 413.954C123.917 414.082 123.602 414.604 123.731 415.117C123.922 415.884 128.583 433.959 144.056 438.96C168.114 446.735 179.484 456.61 180.921 470.982Z" fill="#008F90"/>
<path d="M243.369 441.604C242.88 443.241 242.326 445.024 241.701 446.918L241.699 446.922C235.136 466.779 221.674 500.221 196.811 504.163C196.811 504.163 216.489 435.713 171.55 412.815C126.612 389.915 133.627 373.477 139.567 343.512C145.506 313.547 156.483 308.894 127.022 277.05C97.5614 245.208 108.33 203.666 108.33 203.666C108.33 203.666 133.907 255.177 166.654 259.836C199.4 264.495 202.133 293.166 198.484 313.876C194.834 334.583 222.494 339.949 236.293 353.676C250.092 367.402 246.089 431.245 246.089 431.245C246.089 431.245 245.224 435.353 243.369 441.604Z" fill="#29C1C2"/>
<path d="M243.369 441.604C242.88 443.241 242.326 445.024 241.701 446.918C239.429 436.357 235.613 427.279 231.884 420.228C223.052 403.525 209.626 389.139 196.852 382.686C176.514 372.415 168.402 350.513 170.56 311.665C171.814 289.118 149.777 273.345 149.55 273.19C148.905 272.736 148.748 271.843 149.203 271.198C149.657 270.549 150.552 270.392 151.196 270.848C152.159 271.523 174.762 287.671 173.42 311.824C171.332 349.377 178.957 370.445 198.141 380.136C211.62 386.941 225.181 401.429 234.417 418.889C237.68 425.059 241.012 432.744 243.369 441.604Z" fill="#0BA3A4"/>
<path d="M261.193 488.067C261.269 493.27 261.363 498.686 261.476 504.163H311.682C311.778 498.168 311.852 492.421 311.906 487.032C312.058 472.423 312.074 460.4 312.063 452.926C312.058 447.626 312.036 444.621 312.036 444.621L260.84 444.077C260.84 444.077 260.84 448.499 260.88 455.732C260.913 463.769 261.003 475.278 261.193 488.067Z" fill="#201F20"/>
<path d="M260.88 455.732C260.913 463.769 261.003 475.278 261.193 488.067C276.965 489.271 294.254 489.281 311.906 487.032C312.058 472.423 312.074 460.399 312.063 452.926L260.88 455.732Z" fill="#1C1A2C"/>
<path d="M197.922 476.526C197.978 484.706 198.076 494.079 198.237 504.163H248.447C248.571 498.258 248.671 492.426 248.752 486.853C248.926 474.891 249.015 464.123 249.06 456.38C249.099 448.763 249.099 444.077 249.099 444.077L197.882 444.621C197.882 444.621 197.842 450.049 197.854 459.185C197.854 464.016 197.876 469.876 197.922 476.526Z" fill="#201F20"/>
<path d="M197.854 459.185C197.854 464.016 197.876 469.876 197.922 476.526C208.117 479.531 226.37 484.205 248.752 486.853C248.926 474.891 249.015 464.122 249.06 456.38L197.854 459.185Z" fill="#1C1A2C"/>
<path d="M282.02 174.793C282.02 174.793 290.088 167.026 290.06 159.353C290.033 151.682 284.817 153.949 282.02 146.801C279.221 139.653 270.904 135.294 266.344 136.166C261.782 137.037 252.153 119.254 239.092 122.394C226.031 125.531 227.169 142.269 221.542 144.71C215.917 147.15 217.486 157.088 220.452 159.353C223.416 161.621 224.67 170.729 226.339 170.524C228.007 170.318 282.02 174.793 282.02 174.793Z" fill="#2F335D"/>
<path d="M227.72 174.61C227.72 174.61 222.648 167.848 218.876 173.439C215.105 179.03 220.438 195.542 229.671 191.512L227.72 174.61Z" fill="#F25349"/>
<path d="M227.655 186.41C227.314 186.41 227.001 186.185 226.904 185.84C225.473 180.742 220.189 178.675 220.137 178.654C219.735 178.501 219.532 178.05 219.685 177.648C219.837 177.246 220.287 177.043 220.689 177.195C220.936 177.288 226.759 179.548 228.408 185.419C228.524 185.833 228.281 186.263 227.866 186.381C227.796 186.4 227.724 186.41 227.655 186.41Z" fill="#E43342"/>
<path d="M222.322 183.841C222.177 183.841 222.031 183.801 221.9 183.716C221.538 183.483 221.433 183 221.667 182.638C221.707 182.579 222.64 181.153 224.595 180.278C224.987 180.101 225.45 180.278 225.627 180.671C225.802 181.065 225.627 181.526 225.233 181.702C223.721 182.379 222.985 183.473 222.978 183.483C222.831 183.715 222.578 183.841 222.322 183.841Z" fill="#E43342"/>
<path d="M279.994 174.61C279.994 174.61 285.066 167.848 288.838 173.439C292.609 179.03 287.277 195.542 278.043 191.512L279.994 174.61Z" fill="#F25349"/>
<path d="M280.059 186.41C280.4 186.41 280.714 186.185 280.81 185.84C282.241 180.742 287.525 178.675 287.578 178.654C287.979 178.501 288.182 178.05 288.029 177.648C287.877 177.246 287.427 177.043 287.025 177.195C286.778 177.288 280.955 179.548 279.307 185.419C279.191 185.833 279.434 186.263 279.848 186.381C279.918 186.4 279.99 186.41 280.059 186.41Z" fill="#E43342"/>
<path d="M285.392 183.841C285.537 183.841 285.683 183.801 285.814 183.716C286.176 183.483 286.281 183 286.048 182.638C286.008 182.579 285.074 181.153 283.119 180.278C282.727 180.101 282.263 180.278 282.088 180.671C281.912 181.065 282.088 181.526 282.481 181.702C283.993 182.379 284.729 183.473 284.736 183.483C284.884 183.715 285.136 183.841 285.392 183.841Z" fill="#E43342"/>
<path d="M266.344 205.519V221.94C266.344 221.94 261.445 230.303 254.82 230.873C248.201 231.45 242.321 223.673 242.321 223.673V206.673L266.344 205.519Z" fill="#F6876F"/>
<path d="M266.344 205.519V212.805C261.898 217.737 254.003 218.968 242.321 217.244V206.673L266.344 205.519Z" fill="#F25349"/>
<path d="M283.662 163.344C283.357 169.726 282.749 177.706 281.531 184.088C281.227 185.679 280.884 187.177 280.501 188.519C277.044 200.62 268.397 221.372 244.192 212.727C233.5 208.912 228.544 197.007 226.336 184.899C224.838 176.676 224.612 168.367 224.721 162.432C224.838 156.369 228.147 150.831 233.423 147.843C247.711 139.744 262.787 142.763 272.713 146.579C279.604 149.224 284.012 155.988 283.662 163.344Z" fill="#F6876F"/>
<path d="M253.355 193.79C269.573 191.007 266.675 200.5 266.57 200.839V200.845C266.565 200.85 266.565 200.85 266.565 200.85C265.467 201.897 264.347 202.776 263.233 203.377C256.949 206.771 256.269 206.259 253.789 206.368C251.268 206.489 247.789 205.741 244.258 203.769C243.159 203.152 241.516 201.959 239.716 200.316C239.716 200.316 237.167 191.608 253.355 193.79ZM226.339 184.897C226.339 184.897 228.688 198.889 230.905 203.988C233.129 209.089 239.189 210.05 241.466 214.361C244.711 220.506 249.66 225.376 257.799 222.409C264.572 219.939 264.266 216.477 268.06 213.799C274.559 209.21 277.782 204.161 278.045 199.977C278.306 195.793 281.534 184.086 281.534 184.086L278.045 183.841C278.045 183.841 276.056 187.957 273.132 192.492C270.196 186.048 256.055 190.735 256.055 190.735L253.355 191.608L250.582 190.735C250.582 190.735 236.274 186.247 233.448 193.004C231.717 190.358 230.309 187.382 229.671 184.229L226.339 184.897Z" fill="#2F335D"/>
<path d="M243.606 176.752C243.606 178.507 242.703 179.927 241.589 179.927C240.473 179.927 239.57 178.507 239.57 176.752C239.57 174.999 240.473 173.579 241.589 173.579C242.703 173.579 243.606 174.999 243.606 176.752Z" fill="#2F335D"/>
<path d="M267.603 176.752C267.603 178.507 266.7 179.927 265.584 179.927C264.47 179.927 263.566 178.507 263.566 176.752C263.566 174.999 264.47 173.579 265.584 173.579C266.7 173.579 267.603 174.999 267.603 176.752Z" fill="#2F335D"/>
<path d="M273.529 166.301C273.529 166.301 265.189 163.006 258.767 165.779L259.409 169.349C259.409 169.349 268.835 168.552 273.585 170.477C274.009 169.102 274.072 167.713 273.529 166.301Z" fill="#2F335D"/>
<path d="M233.871 166.316C233.871 166.316 242.274 162.998 248.744 165.792L248.096 169.389C248.096 169.389 238.601 168.586 233.816 170.524C233.388 169.139 233.326 167.739 233.871 166.316Z" fill="#2F335D"/>
<path d="M254.129 190.055C255.445 190.055 256.75 189.543 256.953 189.46C257.351 189.298 257.542 188.842 257.38 188.443C257.218 188.044 256.761 187.854 256.363 188.017C255.658 188.301 253.966 188.75 253.233 188.312C253.092 188.226 252.897 188.058 252.849 187.584C252.567 184.861 253.313 175.729 253.321 175.637C253.356 175.208 253.037 174.831 252.608 174.796C252.175 174.759 251.801 175.081 251.765 175.51C251.735 175.889 251 184.879 251.297 187.746C251.409 188.825 251.975 189.378 252.432 189.651C252.931 189.949 253.531 190.055 254.129 190.055Z" fill="#F25349"/>
<path d="M244.179 195.351C244.773 198.33 246.741 203.813 253.375 203.813C260.025 203.813 261.889 198.803 262.53 195.351H244.179Z" fill="white"/>
<path d="M283.662 163.344C283.357 169.726 282.749 177.706 281.531 184.088L278.043 183.841C278.043 183.841 278.888 178.453 279.278 174.942C279.668 171.432 280.331 164.869 277.335 164.051C274.345 163.239 276.1 155.753 271.94 152.508C267.781 149.255 258.542 146.391 252.409 150.168C246.275 153.935 239.298 151.852 236.473 152.508C233.641 153.155 229.801 157.056 230.839 160.699C231.885 164.334 228.764 166.551 228.007 170.318C227.249 174.087 229.668 184.229 229.668 184.229L226.336 184.899C224.838 176.676 224.612 168.367 224.721 162.432C224.838 156.369 228.147 150.83 233.423 147.843C247.711 139.744 262.787 142.763 272.713 146.579C279.604 149.224 284.012 155.988 283.662 163.344Z" fill="#2F335D"/>
<path d="M322.644 469.298C306.855 473.294 291.066 475.88 275.266 477.071C274.55 477.122 273.839 477.175 273.122 477.223C270.95 477.369 268.778 477.491 266.607 477.586C255.861 478.048 245.11 477.867 234.36 477.038C232.192 476.872 230.027 476.68 227.859 476.457C227.166 476.392 226.475 476.319 225.779 476.239C212.943 474.846 200.112 472.531 187.267 469.298C187.138 457.468 187.284 420.07 188.011 379.513C188.095 374.639 188.189 369.719 188.297 364.793C189.435 311.341 191.631 257.083 195.581 251.649C199.367 246.447 210.779 239.836 221.689 233.873C222.34 233.518 222.991 233.163 223.637 232.811C226.091 231.481 228.489 230.189 230.744 228.964C235.578 226.333 239.747 223.996 242.323 222.19V223.676C242.323 223.676 248.197 231.449 254.817 230.875C260.851 230.356 265.445 223.387 266.225 222.138C269.071 224.142 274.184 226.905 280.11 230.035C281.76 230.909 283.466 231.804 285.205 232.724C285.846 233.063 286.49 233.404 287.137 233.749C299.203 240.146 312.211 247.358 316.116 252.72C316.409 253.116 316.686 253.781 316.951 254.693C319.261 262.514 320.695 288.47 321.569 319.9C321.573 320.012 321.576 320.126 321.58 320.241C321.617 321.511 321.649 322.792 321.681 324.08C321.687 324.247 321.692 324.416 321.694 324.588C321.98 335.612 322.196 347.218 322.363 358.882C322.376 359.806 322.393 360.731 322.404 361.658C322.408 362.124 322.415 362.583 322.418 363.049C322.457 365.346 322.48 367.642 322.502 369.928C322.526 371.615 322.546 373.299 322.562 374.987C322.996 417.141 322.818 456.904 322.644 469.298Z" fill="#FF5B39"/>
<path d="M321.681 324.08C317.881 317.875 313.802 311.544 309.959 305.942C309.949 305.927 309.938 305.913 309.931 305.901C308.317 303.549 306.747 301.327 305.255 299.3C305.23 299.261 305.205 299.228 305.177 299.195C304.711 298.558 304.248 297.94 303.796 297.338C303.723 297.233 303.667 297.125 303.632 297.011L303.629 297.007C303.508 296.599 303.643 296.148 304.001 295.876C304.465 295.525 305.122 295.615 305.47 296.078C310.085 302.19 315.988 310.979 321.569 319.9C321.573 320.011 321.576 320.126 321.58 320.241C321.617 321.511 321.649 322.792 321.681 324.08Z" fill="#F04220"/>
<path d="M316.278 251.857C316.278 251.857 340.089 295.472 354.604 317.575C354.604 317.575 362.859 309.992 373.594 299.852C385.235 288.855 401.154 270.478 401.154 270.478L409.963 280.922C409.963 280.922 374.195 345.271 358.152 353.358C342.108 361.445 312.545 304.204 312.545 304.204L316.278 251.857Z" fill="#FF5B39"/>
<path d="M215.457 423.748C215.443 423.748 215.431 423.748 215.418 423.748C214.823 423.726 214.359 423.227 214.38 422.632C215.63 387.411 197.36 376 197.176 375.89C196.667 375.582 196.501 374.922 196.806 374.413C197.111 373.903 197.771 373.736 198.281 374.04C198.484 374.162 203.313 377.095 207.991 384.61C212.261 391.471 217.208 403.65 216.531 422.71C216.512 423.291 216.034 423.748 215.457 423.748Z" fill="#F04220"/>
<path d="M293.395 390.565C292.837 390.565 292.365 390.137 292.322 389.573C291.743 382.156 294.187 376.746 297.28 369.896C298.186 367.892 299.121 365.821 300.079 363.496C306.084 348.937 303.067 332.29 303.036 332.125C302.927 331.54 303.312 330.978 303.896 330.869C304.481 330.757 305.043 331.143 305.154 331.729C305.285 332.433 308.317 349.173 302.072 364.318C301.1 366.674 300.157 368.763 299.244 370.782C296.161 377.607 293.933 382.538 294.469 389.406C294.516 389.999 294.071 390.517 293.479 390.562C293.45 390.565 293.423 390.565 293.395 390.565Z" fill="#F04220"/>
<path d="M230.743 228.963C231.204 232.43 231.879 236.929 232.616 242.04C232.841 243.557 233.066 245.13 233.297 246.747C234.045 252.024 234.819 257.767 235.479 263.573C235.657 265.131 235.824 266.695 235.98 268.254C236.561 274.002 237 279.713 237.158 285.023C237.21 286.629 237.231 288.197 237.22 289.719C237.21 293.772 236.985 297.497 236.494 300.681C236.179 302.695 235.901 304.663 235.657 306.588C235.452 308.183 235.269 309.752 235.107 311.294C234.479 317.284 234.164 322.859 234.077 328.115C234.05 329.712 234.045 331.274 234.061 332.807C234.108 338.774 234.447 344.335 234.94 349.627C235.085 351.213 235.248 352.772 235.415 354.31C236.059 360.094 236.843 365.602 237.582 371.046C237.796 372.606 238.006 374.159 238.21 375.712C238.529 378.202 238.831 380.691 239.094 383.196C239.371 385.854 239.548 388.961 239.632 392.408C239.674 393.913 239.694 395.488 239.7 397.115C239.721 402.266 239.591 407.972 239.349 413.94C239.287 415.5 239.219 417.079 239.141 418.675C238.874 424.219 238.523 429.918 238.131 435.548C238.017 437.133 237.901 438.708 237.781 440.274C237.346 446.134 236.865 451.84 236.379 457.149C236.231 458.76 236.085 460.335 235.939 461.861C235.378 467.705 234.834 472.897 234.359 477.039C245.11 477.866 255.861 478.05 266.607 477.585C266.859 473.174 267.544 466.061 268.219 457.688C268.344 456.155 268.465 454.576 268.585 452.965C268.988 447.639 269.354 441.949 269.594 436.206C269.663 434.633 269.72 433.052 269.763 431.477C269.924 425.745 269.93 420.05 269.684 414.71C269.611 413.088 269.517 411.504 269.391 409.96C269.265 408.381 269.114 406.843 268.93 405.356C268.412 401.163 268.213 397.135 268.24 393.151C268.245 391.57 268.286 390.001 268.36 388.427C268.605 382.967 269.202 377.495 269.892 371.685C270.076 370.142 270.269 368.572 270.464 366.972C271.085 361.805 271.734 356.322 272.248 350.323C272.383 348.785 272.503 347.211 272.619 345.601C272.974 340.454 273.215 334.926 273.252 328.9C273.262 327.347 273.257 325.761 273.235 324.142C273.179 318.925 272.959 313.345 272.535 307.335C272.498 306.802 272.462 306.263 272.421 305.72C272.341 304.668 272.274 303.607 272.226 302.544C271.948 297.062 272.022 291.424 272.331 285.802C272.415 284.223 272.519 282.642 272.64 281.063C273.074 275.435 273.707 269.859 274.439 264.514C274.653 262.924 274.878 261.35 275.109 259.801C275.989 253.943 276.936 248.431 277.804 243.504C278.092 241.882 278.369 240.324 278.63 238.838C279.221 235.512 279.733 232.546 280.11 230.035C274.182 226.903 269.071 224.141 266.225 222.138C265.446 223.389 260.852 230.356 254.815 230.873C248.197 231.448 242.322 223.676 242.322 223.676V222.19C239.747 223.995 235.577 226.333 230.743 228.963Z" fill="white"/>
<path d="M232.616 242.039C232.841 243.556 233.066 245.13 233.297 246.747C239.235 246.882 246.209 245.993 254.611 244.052C263.61 241.981 271.547 242.343 277.804 243.504C278.092 241.882 278.369 240.323 278.63 238.838C271.849 237.587 263.296 237.227 253.553 239.472C245.262 241.38 238.356 242.259 232.616 242.039Z" fill="#DCD9D7"/>
<path d="M235.479 263.573C235.657 265.131 235.824 266.695 235.98 268.254C241.311 268.113 247.443 267.224 254.611 265.565C262.056 263.85 268.784 263.807 274.439 264.514C274.653 262.924 274.878 261.35 275.109 259.801C268.977 259.043 261.679 259.106 253.553 260.979C246.596 262.584 240.61 263.462 235.479 263.573Z" fill="#DCD9D7"/>
<path d="M237.158 285.023C237.21 286.629 237.231 288.197 237.22 289.719C242.258 289.483 247.993 288.605 254.611 287.079C261.151 285.571 267.135 285.357 272.331 285.802C272.415 284.223 272.519 282.642 272.64 281.063C267.052 280.603 260.612 280.864 253.553 282.492C247.344 283.924 241.908 284.776 237.158 285.023Z" fill="#DCD9D7"/>
<path d="M235.107 311.294C240.642 311.232 247.046 310.333 254.611 308.591C261.235 307.063 267.292 306.864 272.535 307.335C272.498 306.802 272.462 306.262 272.421 305.72C272.341 304.668 272.274 303.606 272.226 302.543C266.733 302.131 260.439 302.414 253.553 304.004C246.674 305.593 240.752 306.462 235.657 306.588C235.452 308.182 235.269 309.752 235.107 311.294Z" fill="#DCD9D7"/>
<path d="M234.061 332.807C239.831 332.854 246.564 331.96 254.611 330.104C261.554 328.502 267.857 328.351 273.252 328.9C273.262 327.347 273.257 325.761 273.235 324.142C267.512 323.613 260.867 323.832 253.553 325.517C245.952 327.268 239.516 328.152 234.077 328.115C234.05 329.712 234.045 331.274 234.061 332.807Z" fill="#DCD9D7"/>
<path d="M234.94 349.627C235.085 351.213 235.248 352.772 235.415 354.31C240.878 354.221 247.186 353.325 254.611 351.616C261.124 350.114 267.084 349.884 272.248 350.323C272.383 348.785 272.503 347.211 272.619 345.6C267.031 345.139 260.601 345.402 253.553 347.029C246.355 348.687 240.193 349.571 234.94 349.627Z" fill="#DCD9D7"/>
<path d="M237.582 371.046C237.796 372.606 238.006 374.159 238.21 375.712C243.007 375.413 248.417 374.556 254.611 373.129C260.156 371.846 265.3 371.496 269.892 371.685C270.076 370.142 270.269 368.572 270.464 366.972C265.399 366.742 259.712 367.119 253.553 368.542C247.522 369.926 242.227 370.775 237.582 371.046Z" fill="#DCD9D7"/>
<path d="M239.632 392.408C239.674 393.913 239.694 395.488 239.7 397.115C244.121 396.743 249.055 395.923 254.611 394.636C259.503 393.51 264.081 393.104 268.24 393.151C268.245 391.57 268.287 390.001 268.36 388.427C263.844 388.38 258.875 388.824 253.553 390.054C248.396 391.242 243.77 392.03 239.632 392.408Z" fill="#DCD9D7"/>
<path d="M239.141 418.675C243.703 418.324 248.814 417.482 254.611 416.149C260.068 414.892 265.137 414.532 269.684 414.71C269.611 413.088 269.517 411.503 269.391 409.96C264.604 409.825 259.282 410.243 253.553 411.561C248.275 412.779 243.562 413.581 239.349 413.94C239.287 415.5 239.219 417.079 239.141 418.675Z" fill="#DCD9D7"/>
<path d="M237.781 440.274C242.682 439.998 248.233 439.13 254.611 437.661C260.036 436.41 265.075 436.045 269.594 436.206C269.663 434.632 269.72 433.052 269.763 431.477C264.881 431.31 259.434 431.718 253.553 433.074C247.762 434.411 242.646 435.244 238.131 435.548C238.017 437.132 237.901 438.707 237.781 440.274Z" fill="#DCD9D7"/>
<path d="M235.939 461.861C241.281 461.725 247.423 460.83 254.611 459.172C259.492 458.047 264.064 457.636 268.219 457.688C268.344 456.155 268.465 454.575 268.585 452.964C264.007 452.897 258.963 453.336 253.553 454.586C246.999 456.097 241.306 456.959 236.379 457.149C236.231 458.76 236.085 460.335 235.939 461.861Z" fill="#DCD9D7"/>
<path d="M273.121 477.223C273.837 477.176 274.55 477.123 275.266 477.071C279.503 452.165 277.06 415.603 276.15 404.4C275.208 392.767 277.019 377.808 281.114 363.372C284.295 352.159 282.344 326.158 280.78 305.27C280.341 299.407 279.922 293.867 279.677 289.316C278.876 274.609 284.202 247.39 287.137 233.75C286.488 233.405 285.845 233.064 285.207 232.724C282.266 246.229 276.747 274.065 277.583 289.432C277.835 294.003 278.253 299.552 278.694 305.426C280.247 326.154 282.181 351.945 279.106 362.798C274.942 377.469 273.105 392.695 274.068 404.567C274.974 415.787 277.432 452.578 273.121 477.223Z" fill="#F04220"/>
<path d="M229.713 375.879C232.203 391.195 231.418 401.142 230.508 412.655C230.215 416.378 229.911 420.222 229.697 424.468C229.033 437.796 226.777 464.633 225.779 476.24C226.475 476.319 227.165 476.392 227.861 476.459C228.861 464.853 231.12 437.948 231.791 424.573C231.999 420.359 232.303 416.524 232.596 412.822C233.511 401.172 234.306 391.11 231.774 375.545C231.236 372.203 230.66 368.814 230.089 365.44C227.27 348.749 224.351 331.49 225.732 323.221C226.066 321.201 226.495 318.91 226.955 316.483C228.829 306.504 231.168 294.087 230.429 283.312C229.697 272.633 225.319 243.713 223.638 232.813C222.991 233.163 222.342 233.52 221.687 233.874C223.44 245.272 227.63 273.081 228.343 283.454C229.059 293.962 226.752 306.238 224.9 316.095C224.439 318.533 224.006 320.834 223.665 322.876C222.231 331.49 225.045 348.147 228.028 365.789C228.598 369.159 229.168 372.542 229.713 375.879Z" fill="#F04220"/>
<path d="M188.531 269.411C188.531 269.411 167.216 340.474 161.937 365.799C156.659 391.124 156.25 443.772 156.25 443.772C156.25 443.772 146.932 463.111 146.711 471.718C146.476 480.892 151.295 488.192 150.745 494.196C150.195 500.201 157.507 496.941 155.442 484.781C153.376 472.618 159.236 461.605 161.765 461.957C164.295 462.31 159.673 475.236 161.918 479.894C164.163 484.551 167.071 475.503 169.962 470.011C172.963 464.313 172.787 451.874 171.421 442.995C170.056 434.116 186.155 380.187 186.232 364.561L206.619 295.691C206.619 295.691 199.884 266.942 188.531 269.411Z" fill="#F6876F"/>
<path d="M209.23 293.961C208.508 298.528 205.981 306.369 202.717 316.232V316.237C202.44 317.068 202.156 317.917 201.874 318.78C201.858 318.816 201.843 318.857 201.833 318.9C201.016 321.353 200.163 323.919 199.284 326.578C199.279 326.593 199.274 326.61 199.269 326.625C195.654 337.599 191.651 350.15 188.292 363.049C187.136 367.464 186.059 371.925 185.101 376.37C183.877 382.046 182.841 387.705 182.083 393.244C179.356 413.197 174.146 438.471 174.146 438.471C166.502 441.609 154.553 437.466 154.553 437.466C154.553 437.466 154.244 401.069 155.95 386.926C158.058 369.44 160.742 356.992 164.069 342.703C173.225 303.376 189.339 264.896 193.76 254.691C194.111 253.875 194.387 253.243 194.581 252.804H198.385C205.872 257.558 211.181 281.659 209.23 293.961Z" fill="#FF5B39"/>
<path d="M153.932 430.179L154.531 438.554C154.531 438.554 165.893 442.245 174.409 439.645L176.661 432.175C168.46 432.61 160.884 432.407 153.932 430.179Z" fill="#3D89D1"/>
<path d="M202.717 316.232V316.237C202.717 316.357 202.696 316.478 202.654 316.599C202.398 317.304 202.135 318.032 201.874 318.78C201.858 318.816 201.843 318.857 201.833 318.9C200.995 321.273 200.142 323.857 199.284 326.578C199.279 326.593 199.274 326.61 199.269 326.625C194.817 340.768 190.291 358.561 188.209 369.926C188.23 367.642 188.256 365.345 188.292 363.049C187.136 367.464 186.059 371.925 185.101 376.37C185.53 372.203 186.723 365.958 188.349 358.881C191.636 344.561 196.679 326.824 200.687 315.881C200.886 315.339 201.487 315.06 202.031 315.259C202.455 315.416 202.717 315.808 202.717 316.232Z" fill="#F04220"/>
<path d="M584.007 504.163H634.358C634.193 500.671 634.027 497.325 633.865 494.165C632.987 476.927 632.241 465.191 632.241 465.191L591.294 467.01L587.9 467.164L581.875 467.433C581.875 467.433 582.457 477.928 583.361 493.302C583.561 496.702 583.778 500.345 584.007 504.163Z" fill="#201F20"/>
<path d="M587.9 467.164L581.875 467.433C581.875 467.433 582.457 477.928 583.361 493.302C599.094 494.613 616.27 495.146 633.865 494.165C632.987 476.927 632.241 465.191 632.241 465.191L591.294 467.01L587.9 467.164Z" fill="#1C1A2C"/>
<path d="M593.38 504.163C592.461 488.208 591.705 474.579 591.292 467.012L587.897 467.165C588.309 474.698 589.06 488.263 589.978 504.163H593.38Z" fill="#1C1A2C"/>
<path d="M569.237 504.163C569.495 499.841 569.738 495.741 569.961 491.964C570.828 477.319 571.373 467.433 571.373 467.433L564.835 467.142L561.445 466.988L521 465.191C521 465.191 520.556 472.187 519.949 483.304C519.626 489.228 519.259 496.331 518.885 504.163H569.237Z" fill="#201F20"/>
<path d="M519.949 483.304C530.927 485.884 548.627 489.506 569.961 491.964C570.828 477.318 571.373 467.433 571.373 467.433L564.835 467.142L561.445 466.988L521 465.191C521 465.191 520.556 472.187 519.949 483.304Z" fill="#1C1A2C"/>
<path d="M562.754 504.163C563.672 488.248 564.424 474.67 564.835 467.142L561.444 466.99C561.031 474.552 560.276 488.192 559.353 504.163H562.754Z" fill="#1C1A2C"/>
<path d="M639.553 473.037C629.296 475.86 619.04 477.989 608.784 479.419C605.218 479.919 601.654 480.337 598.09 480.664C593.284 481.109 588.478 481.408 583.675 481.559C575.73 481.802 567.784 481.628 559.835 481.04C544.471 479.916 529.11 477.234 513.743 473.037C513.599 458.714 513.815 407.347 514.89 357.802C514.943 355.58 514.991 353.357 515.046 351.143C515.053 350.674 515.068 350.204 515.078 349.735C515.088 349.223 515.103 348.711 515.117 348.204C515.151 346.632 515.193 345.066 515.231 343.506C515.31 340.323 515.394 337.168 515.485 334.042C515.541 332.174 515.596 330.316 515.651 328.476C515.662 328.094 515.676 327.714 515.687 327.335C515.726 326.121 515.763 324.913 515.801 323.714C515.801 323.714 515.801 323.714 515.801 323.71C515.817 323.337 515.825 322.966 515.84 322.593C515.875 321.487 515.913 320.387 515.948 319.299C515.984 318.37 516.014 317.455 516.046 316.536C517.236 283.114 518.976 256.752 521.467 253.037C525.692 246.736 540.083 238.372 551.658 231.563C555.781 229.142 560.705 226.623 563.525 224.754C567.635 228.063 570.618 231.051 576.711 230.847C583.53 230.614 585.209 226.515 587.809 223.001C589.397 224.031 593.427 227.337 595.522 228.564C597.314 229.621 599.256 230.742 601.281 231.907C604.414 233.699 607.745 235.603 611.042 237.543C615.931 240.422 620.753 243.388 624.751 246.225C628.744 249.06 631.914 251.77 633.483 254.118C635.745 257.514 637.211 279.5 638.153 308.434C638.191 309.446 638.219 310.471 638.258 311.504C638.26 311.63 638.26 311.755 638.26 311.885C638.3 312.934 638.331 314.014 638.356 315.092C638.45 318.348 638.535 321.674 638.626 325.057C638.644 325.769 638.661 326.49 638.672 327.206C638.686 327.746 638.704 328.289 638.708 328.821C638.738 330.213 638.768 331.609 638.8 333.017C638.807 333.298 638.811 333.58 638.818 333.863C638.894 337.575 638.967 341.339 639.034 345.135C639.054 346.245 639.072 347.358 639.09 348.472C639.949 400.559 639.75 457.646 639.553 473.037Z" fill="#FF5B39"/>
<path d="M639.09 348.472L622.848 364.942L607.716 349.606L592.588 364.942L577.4 349.543L562.206 364.942L546.918 349.442L531.627 364.942L515.117 348.204C515.151 346.632 515.193 345.066 515.231 343.506C515.31 340.323 515.394 337.167 515.485 334.042L531.627 317.677L546.918 333.179L562.206 317.677L577.4 333.076L592.588 317.677L607.716 333.012L622.848 317.677L638.818 333.863C638.894 337.575 638.967 341.339 639.034 345.135C639.054 346.245 639.072 347.358 639.09 348.472Z" fill="#F04220"/>
<path d="M611.055 433.364C611.053 433.364 611.052 433.364 611.049 433.364C589.303 433.267 570.741 423.374 558.998 415.091C546.299 406.133 538.601 397.057 538.527 396.966C538.154 396.524 538.21 395.864 538.654 395.492C539.096 395.12 539.756 395.177 540.127 395.62C540.203 395.707 547.759 404.611 560.252 413.415C571.739 421.51 589.877 431.179 611.059 431.271C611.637 431.272 612.104 431.745 612.101 432.322C612.098 432.897 611.63 433.364 611.055 433.364Z" fill="#F04220"/>
<path d="M597.49 420.504C578.973 416.865 562.583 402.688 561.839 402.036C561.404 401.657 561.36 400.996 561.739 400.561C562.12 400.126 562.78 400.083 563.217 400.463C563.409 400.63 582.697 417.304 602.351 419.098C602.937 419.145 603.352 419.659 603.3 420.235C603.247 420.809 602.738 421.233 602.163 421.18C600.595 421.038 599.035 420.807 597.49 420.504Z" fill="#F04220"/>
<path d="M560.405 259.616C559.912 259.616 559.475 259.266 559.378 258.765C559.27 258.197 559.645 257.651 560.212 257.542C586.725 252.513 594.717 235.46 594.794 235.289C595.033 234.762 595.653 234.529 596.179 234.766C596.707 235.005 596.939 235.623 596.701 236.151C596.366 236.892 588.175 254.368 560.601 259.597C560.535 259.61 560.469 259.616 560.405 259.616Z" fill="#F04220"/>
<path d="M528.056 305.517V305.524C528.031 305.639 527.979 305.753 527.912 305.858C527.516 306.494 527.101 307.153 526.688 307.824C526.667 307.862 526.642 307.894 526.626 307.936C525.3 310.078 523.918 312.419 522.493 314.893C522.491 314.911 522.485 314.922 522.469 314.936C520.246 318.829 517.943 323.048 515.687 327.335C515.725 326.121 515.763 324.913 515.801 323.714C515.801 323.714 515.801 323.714 515.801 323.71C515.817 323.337 515.825 322.966 515.84 322.593C519.477 315.844 523.103 309.53 526.145 304.741C526.458 304.25 527.101 304.112 527.592 304.417C527.972 304.664 528.146 305.103 528.056 305.517Z" fill="#F04220"/>
<path d="M661.661 266.746C661.661 266.746 695.565 255.852 705.599 233.609C708.5 227.167 684.593 161.763 684.593 161.763L673.055 162.323C673.055 162.323 676.341 185.014 678.337 197.863C679.974 208.429 682.623 221.051 683.517 225.209C683.711 226.111 683.82 226.612 683.82 226.612C683.254 226.708 682.686 226.819 682.108 226.933C666.267 230.151 646.043 240.466 646.043 240.466L661.661 266.746Z" fill="#F6876F"/>
<path d="M692.337 232.88C692.818 233.231 693.507 233.126 693.854 232.642C694.219 232.149 694.108 231.47 693.615 231.126C691.149 229.334 687.426 227.23 683.517 225.209C683.711 226.111 683.82 226.612 683.82 226.612C683.254 226.709 682.686 226.819 682.108 226.934C686.088 228.978 689.898 231.107 692.337 232.88Z" fill="#F25349"/>
<path d="M609.781 236.824C609.781 236.824 599.526 260.885 625.636 274.281C643.705 283.551 684.865 259.347 684.865 259.347L670.19 228.198C670.19 228.198 632.53 243.729 609.781 236.824Z" fill="#FF5B39"/>
<path d="M678.687 124.992C677.664 125.708 677.874 130.127 678.323 134.289C678.179 134.31 678.033 134.334 677.885 134.361C676.671 128.806 674.255 119.358 672.188 121.161C670.835 122.341 672.648 130.489 673.881 135.361C673.627 135.44 673.37 135.52 673.114 135.603C671.558 129.818 668.204 118.678 665.972 120.845C664.482 122.289 667.341 132.1 668.929 137.105C668.707 137.191 668.492 137.276 668.279 137.36C666.76 132.505 663.515 123.321 661.292 125.479C659.279 127.432 665.048 141.317 665.048 141.317L666.558 146.767C666.558 146.767 664.762 147.542 661.956 144.37C659.152 141.199 655.798 140.64 658.127 145.23C660.76 150.415 664.657 154.134 666.373 157.803C668.088 161.474 673.485 162.687 673.485 162.687L684.32 162.164C684.32 162.164 686.421 143.854 682.378 135.127C681.685 129.939 680.464 123.745 678.687 124.992Z" fill="#F6876F"/>
<path d="M544.626 167.215C544.626 185.667 555.987 198.379 574.436 198.379C592.891 198.379 605.756 184.712 605.756 166.26C605.756 161.171 604.926 156.42 603.329 152.217C603.235 151.965 603.141 151.715 603.039 151.474C602.844 150.995 602.64 150.519 602.42 150.056C602.1 149.344 601.74 148.647 601.364 147.973C596.556 139.332 587.943 133.836 576.369 133.836C554.241 133.836 544.626 148.764 544.626 167.215Z" fill="#2F335D"/>
<path d="M548.768 175.159C548.768 175.159 543.641 168.325 539.829 173.976C536.015 179.628 541.407 196.32 550.74 192.245L548.768 175.159Z" fill="#F25349"/>
<path d="M548.702 187.087C548.358 187.087 548.04 186.858 547.942 186.51C546.497 181.357 541.156 179.269 541.102 179.248C540.696 179.092 540.492 178.638 540.645 178.231C540.799 177.825 541.254 177.619 541.661 177.772C541.911 177.868 547.796 180.151 549.463 186.085C549.58 186.503 549.334 186.94 548.914 187.057C548.844 187.076 548.774 187.087 548.702 187.087Z" fill="#E43342"/>
<path d="M543.312 184.491C543.165 184.491 543.017 184.451 542.884 184.365C542.519 184.129 542.414 183.642 542.648 183.275C542.687 183.214 543.633 181.773 545.61 180.889C546.005 180.711 546.475 180.889 546.653 181.287C546.828 181.684 546.653 182.151 546.254 182.329C544.725 183.012 543.982 184.118 543.975 184.129C543.825 184.364 543.571 184.491 543.312 184.491Z" fill="#E43342"/>
<path d="M601.606 175.159C601.606 175.159 606.734 168.325 610.546 173.976C614.36 179.628 608.968 196.32 599.635 192.245L601.606 175.159Z" fill="#F25349"/>
<path d="M601.673 187.087C602.017 187.087 602.335 186.858 602.433 186.51C603.878 181.357 609.219 179.269 609.273 179.248C609.679 179.092 609.884 178.638 609.729 178.231C609.576 177.825 609.121 177.619 608.714 177.772C608.464 177.868 602.579 180.151 600.912 186.085C600.795 186.503 601.04 186.94 601.459 187.057C601.531 187.076 601.601 187.087 601.673 187.087Z" fill="#E43342"/>
<path d="M607.064 184.491C607.21 184.491 607.358 184.451 607.489 184.365C607.857 184.129 607.961 183.642 607.725 183.275C607.687 183.214 606.742 181.773 604.765 180.889C604.37 180.711 603.901 180.889 603.724 181.287C603.546 181.684 603.724 182.151 604.121 182.329C605.65 183.012 606.393 184.118 606.4 184.129C606.55 184.364 606.804 184.491 607.064 184.491Z" fill="#E43342"/>
<path d="M587.809 206.402V223.002C587.809 223.002 582.857 231.456 576.16 232.031C569.47 232.615 563.526 224.752 563.526 224.752V207.57L587.809 206.402Z" fill="#F6876F"/>
<path d="M587.809 206.402V213.768C583.314 218.753 575.335 219.998 563.526 218.255V207.57L587.809 206.402Z" fill="#F25349"/>
<path d="M605.314 163.772C605.007 170.223 604.391 178.29 603.16 184.741C602.854 186.349 602.506 187.863 602.119 189.22C598.625 201.451 589.885 222.426 565.416 213.69C554.61 209.833 549.601 197.799 547.369 185.561C545.855 177.249 545.625 168.851 545.736 162.848C545.855 156.722 549.199 151.123 554.531 148.103C568.975 139.917 584.215 142.969 594.247 146.826C601.212 149.498 605.669 156.336 605.314 163.772Z" fill="#F6876F"/>
<path d="M564.696 177.326C564.696 179.097 563.783 180.534 562.655 180.534C561.529 180.534 560.615 179.097 560.615 177.326C560.615 175.554 561.529 174.117 562.655 174.117C563.783 174.117 564.696 175.554 564.696 177.326Z" fill="#2F335D"/>
<path d="M588.745 177.26C588.745 179.031 587.831 180.468 586.704 180.468C585.577 180.468 584.663 179.031 584.663 177.26C584.663 175.488 585.577 174.051 586.704 174.051C587.831 174.051 588.745 175.488 588.745 177.26Z" fill="#2F335D"/>
<path d="M593.355 166.233C593.355 166.233 586.918 163.69 581.961 165.83L582.457 168.587C582.457 168.587 589.732 167.973 593.397 169.457C593.725 168.396 593.774 167.324 593.355 166.233Z" fill="#2F335D"/>
<path d="M555.847 166.233C555.847 166.233 562.285 163.69 567.242 165.83L566.746 168.587C566.746 168.587 559.472 167.973 555.805 169.457C555.477 168.396 555.429 167.324 555.847 166.233Z" fill="#2F335D"/>
<path d="M575.462 190.772C576.793 190.772 578.113 190.254 578.317 190.171C578.719 190.006 578.912 189.546 578.749 189.143C578.585 188.74 578.124 188.545 577.721 188.711C577.008 188.999 575.299 189.453 574.557 189.009C574.414 188.923 574.217 188.754 574.168 188.275C573.883 185.522 574.637 176.291 574.646 176.199C574.68 175.764 574.358 175.383 573.925 175.347C573.488 175.311 573.11 175.634 573.073 176.069C573.042 176.454 572.3 185.539 572.601 188.437C572.712 189.528 573.285 190.087 573.747 190.363C574.252 190.665 574.857 190.772 575.462 190.772Z" fill="#F25349"/>
<path d="M564.87 194.776C566.181 199.326 569.908 203.865 575.043 203.929C580.173 203.865 583.9 199.326 585.211 194.776H564.87Z" fill="white"/>
<path d="M574.604 208.871C576.645 208.871 578.377 207.837 578.45 207.793C578.821 207.568 578.941 207.083 578.715 206.71C578.49 206.338 578.005 206.219 577.632 206.444C577.618 206.452 576.195 207.294 574.604 207.294C573.145 207.294 571.747 206.456 571.734 206.448C571.362 206.22 570.876 206.333 570.647 206.705C570.419 207.075 570.534 207.561 570.905 207.79C570.975 207.834 572.677 208.871 574.604 208.871Z" fill="#F25349"/>
<path d="M604.479 175.299H600.906C601.301 171.711 601.867 165.391 598.919 164.486C589.604 161.625 601.675 155.045 597.47 151.764C593.266 148.477 582.801 149.885 575.524 149.65C568.201 149.413 556.433 149.516 553.577 150.179C550.714 150.833 552.284 155.586 553.332 159.268C554.389 162.944 549.822 167.013 549.058 170.822C548.838 171.915 548.884 173.539 549.059 175.299H546.08C545.726 170.663 545.672 166.348 545.736 162.849C545.855 156.722 549.199 151.123 554.531 148.103C568.975 139.917 584.215 142.969 594.247 146.826C601.212 149.498 605.669 156.336 605.314 163.772C605.146 167.306 604.884 171.326 604.479 175.299Z" fill="#2F335D"/>
<path d="M562.297 170.152C558.139 170.152 554.759 173.533 554.759 177.688C554.759 181.843 558.139 185.224 562.297 185.224C566.452 185.224 569.835 181.843 569.835 177.688C569.835 173.533 566.452 170.152 562.297 170.152ZM562.297 186.617C557.372 186.617 553.366 182.611 553.366 177.688C553.366 172.766 557.372 168.761 562.297 168.761C567.22 168.761 571.225 172.766 571.225 177.688C571.225 182.611 567.22 186.617 562.297 186.617Z" fill="white"/>
<path d="M586.704 170.152C582.548 170.152 579.166 173.533 579.166 177.688C579.166 181.843 582.548 185.224 586.704 185.224C590.86 185.224 594.242 181.843 594.242 177.688C594.242 173.533 590.86 170.152 586.704 170.152ZM586.704 186.617C581.78 186.617 577.774 182.611 577.774 177.688C577.774 172.766 581.78 168.761 586.704 168.761C591.628 168.761 595.634 172.766 595.634 177.688C595.634 182.611 591.628 186.617 586.704 186.617Z" fill="white"/>
<path d="M554.875 174.813C554.699 174.813 554.522 174.746 554.385 174.611C554.345 174.571 550.288 170.637 544.967 171.878C544.593 171.966 544.218 171.733 544.13 171.359C544.044 170.985 544.276 170.611 544.651 170.522C550.737 169.103 555.179 173.439 555.367 173.624C555.638 173.895 555.64 174.336 555.368 174.608C555.233 174.745 555.055 174.813 554.875 174.813Z" fill="white"/>
<path d="M594.29 174.813C594.062 174.813 593.839 174.702 593.706 174.498C593.495 174.176 593.586 173.746 593.908 173.534C594.174 173.361 600.493 169.286 605.87 170.17C606.249 170.234 606.505 170.591 606.443 170.971C606.38 171.349 606.026 171.606 605.643 171.545C600.803 170.747 594.731 174.661 594.669 174.7C594.551 174.777 594.42 174.813 594.29 174.813Z" fill="white"/>
<path d="M578.265 175.684C578.249 175.662 576.595 173.425 574.422 173.425C572.268 173.425 570.774 175.658 570.76 175.68L569.593 174.919C569.669 174.802 571.507 172.034 574.422 172.034C577.316 172.034 579.31 174.753 579.393 174.869L578.265 175.684Z" fill="white"/>
<path d="M525.115 304.206C525.115 304.206 515.708 322.416 504.631 336.84C501.362 341.096 497.952 345.021 494.59 348.051C489.144 352.966 483.832 355.538 479.507 353.357C463.464 345.27 427.698 280.922 427.698 280.922L436.506 270.478C436.506 270.478 452.424 288.855 464.066 299.853C474.801 309.994 483.057 317.576 483.057 317.576C484.543 315.315 486.127 312.837 487.773 310.215C489.523 307.43 491.339 304.483 493.188 301.453C506.593 279.45 521.467 253.037 521.467 253.037L525.115 304.206Z" fill="#F6876F"/>
<path d="M504.631 336.84C501.363 341.096 497.952 345.021 494.59 348.051L487.773 310.215C489.524 307.43 491.339 304.483 493.188 301.453L504.631 336.84Z" fill="#F25349"/>
<path d="M521.467 253.037L489.316 303.589L500.107 348.051L526.711 304.741C526.711 304.741 529.938 275.112 521.467 253.037Z" fill="#FF5B39"/>
<path d="M481.041 504.163C478.746 491.441 476.482 477.093 474.424 463.16C473.974 460.078 473.531 457.023 473.096 454.01C471.447 442.472 469.973 431.564 468.791 422.512C468.339 419.074 467.935 415.899 467.566 413.066C466.419 404.031 465.745 398.418 465.745 398.418L414.974 400.337L364.048 398.418C364.048 398.418 362.736 409.524 360.634 425.625C360.249 428.556 359.84 431.647 359.409 434.873C358.279 443.324 356.986 452.655 355.596 462.211C355.575 462.35 355.554 462.49 355.534 462.63C355.097 465.608 354.657 468.606 354.2 471.604C354.194 471.646 354.19 471.682 354.179 471.725V471.73C353.09 478.976 351.948 486.212 350.785 493.174C350.309 496.047 349.825 498.869 349.338 501.618C349.187 502.474 349.036 503.321 348.885 504.163H481.041Z" fill="#385DB4"/>
<path d="M375.751 413.662C375.751 416.305 373.608 418.447 370.965 418.447C368.323 418.447 366.18 416.305 366.18 413.662C366.18 411.02 368.323 408.878 370.965 408.878C373.608 408.878 375.751 411.02 375.751 413.662Z" fill="#3948A5"/>
<path d="M387.625 432.196C387.625 434.838 385.482 436.98 382.84 436.98C380.197 436.98 378.054 434.838 378.054 432.196C378.054 429.554 380.197 427.411 382.84 427.411C385.482 427.411 387.625 429.554 387.625 432.196Z" fill="#3948A5"/>
<path d="M410.988 422.628C410.988 425.27 408.845 427.411 406.202 427.411C403.559 427.411 401.416 425.27 401.416 422.628C401.416 419.986 403.559 417.844 406.202 417.844C408.845 417.844 410.988 419.986 410.988 422.628Z" fill="#3948A5"/>
<path d="M374.115 451.878C374.115 454.52 371.972 456.663 369.329 456.663C366.686 456.663 364.545 454.52 364.545 451.878C364.545 449.236 366.686 447.095 369.329 447.095C371.972 447.095 374.115 449.236 374.115 451.878Z" fill="#3948A5"/>
<path d="M403.308 449.832C403.308 452.474 401.165 454.615 398.522 454.615C395.881 454.615 393.738 452.474 393.738 449.832C393.738 447.19 395.881 445.048 398.522 445.048C401.165 445.048 403.308 447.19 403.308 449.832Z" fill="#3948A5"/>
<path d="M363.747 430.111C363.747 432.602 361.848 434.65 359.41 434.873C359.84 431.647 360.249 428.556 360.634 425.625C362.456 426.304 363.747 428.053 363.747 430.111Z" fill="#3948A5"/>
<path d="M450.881 477.938C450.881 480.58 448.737 482.721 446.095 482.721C443.452 482.721 441.31 480.58 441.31 477.938C441.31 475.297 443.452 473.155 446.095 473.155C448.737 473.155 450.881 475.297 450.881 477.938Z" fill="#3948A5"/>
<path d="M448.619 451.878C448.619 454.52 446.477 456.663 443.836 456.663C441.193 456.663 439.05 454.52 439.05 451.878C439.05 449.236 441.193 447.095 443.836 447.095C446.477 447.095 448.619 449.236 448.619 451.878Z" fill="#3948A5"/>
<path d="M474.425 463.16C473.849 463.403 473.211 463.539 472.547 463.539C469.905 463.539 467.764 461.395 467.764 458.755C467.764 456.115 469.905 453.972 472.547 453.972C472.733 453.972 472.915 453.983 473.096 454.009C473.531 457.023 473.974 460.078 474.425 463.16Z" fill="#3948A5"/>
<path d="M453.405 497.036C453.405 499.678 451.263 501.819 448.619 501.819C445.976 501.819 443.836 499.678 443.836 497.036C443.836 494.394 445.976 492.253 448.619 492.253C451.263 492.253 453.405 494.394 453.405 497.036Z" fill="#3948A5"/>
<path d="M473.874 489.398C473.874 492.04 471.731 494.182 469.088 494.182C466.445 494.182 464.302 492.04 464.302 489.398C464.302 486.757 466.445 484.616 469.088 484.616C471.731 484.616 473.874 486.757 473.874 489.398Z" fill="#3948A5"/>
<path d="M431.283 504.163C430.423 502.906 428.98 502.077 427.338 502.077C425.699 502.077 424.256 502.906 423.396 504.163H431.283Z" fill="#3948A5"/>
<path d="M370.965 482.097C370.965 484.739 368.822 486.882 366.18 486.882C363.538 486.882 361.395 484.739 361.395 482.097C361.395 479.456 363.538 477.314 366.18 477.314C368.822 477.314 370.965 479.456 370.965 482.097Z" fill="#3948A5"/>
<path d="M358.341 466.987C358.341 469.415 356.531 471.422 354.179 471.724C354.19 471.682 354.194 471.646 354.2 471.604C354.657 468.606 355.097 465.608 355.534 462.63C357.189 463.388 358.341 465.053 358.341 466.987Z" fill="#3948A5"/>
<path d="M352.747 497.031C352.747 499.195 351.31 501.02 349.338 501.618C349.825 498.869 350.309 496.046 350.785 493.173C351.974 494.045 352.747 495.45 352.747 497.031Z" fill="#3948A5"/>
<path d="M382.84 499.056C382.84 501.699 380.697 503.84 378.054 503.84C375.412 503.84 373.27 501.699 373.27 499.056C373.27 496.413 375.412 494.274 378.054 494.274C380.697 494.274 382.84 496.413 382.84 499.056Z" fill="#3948A5"/>
<path d="M408.092 495.311C408.092 497.953 405.951 500.094 403.308 500.094C400.665 500.094 398.522 497.953 398.522 495.311C398.522 492.668 400.665 490.527 403.308 490.527C405.951 490.527 408.092 492.668 408.092 495.311Z" fill="#3948A5"/>
<path d="M390.077 471.789C390.077 474.433 387.934 476.574 385.291 476.574C382.648 476.574 380.507 474.433 380.507 471.789C380.507 469.147 382.648 467.006 385.291 467.006C387.934 467.006 390.077 469.147 390.077 471.789Z" fill="#3948A5"/>
<path d="M415.772 467.006C415.772 469.648 413.631 471.789 410.988 471.789C408.345 471.789 406.202 469.648 406.202 467.006C406.202 464.365 408.345 462.223 410.988 462.223C413.631 462.223 415.772 464.365 415.772 467.006Z" fill="#3948A5"/>
<path d="M427.338 441.764C427.338 444.406 425.198 446.547 422.555 446.547C419.911 446.547 417.769 444.406 417.769 441.764C417.769 439.12 419.911 436.981 422.555 436.981C425.198 436.981 427.338 439.12 427.338 441.764Z" fill="#3948A5"/>
<path d="M468.791 422.512C468.458 422.591 468.116 422.627 467.763 422.627C465.116 422.627 462.979 420.485 462.979 417.844C462.979 415.271 465.013 413.166 467.566 413.066C467.935 415.899 468.339 419.074 468.791 422.512Z" fill="#3948A5"/>
<path d="M443.836 422.628C443.836 425.27 441.693 427.411 439.05 427.411C436.407 427.411 434.264 425.27 434.264 422.628C434.264 419.986 436.407 417.844 439.05 417.844C441.693 417.844 443.836 419.986 443.836 422.628Z" fill="#3948A5"/>
<path d="M461.361 439.678C461.361 442.319 459.218 444.461 456.575 444.461C453.932 444.461 451.789 442.319 451.789 439.678C451.789 437.036 453.932 434.893 456.575 434.893C459.218 434.893 461.361 437.036 461.361 439.678Z" fill="#3948A5"/>
<path d="M432.124 482.097C432.124 484.739 429.981 486.882 427.338 486.882C424.695 486.882 422.555 484.739 422.555 482.097C422.555 479.456 424.695 477.314 427.338 477.314C429.981 477.314 432.124 479.456 432.124 482.097Z" fill="#3948A5"/>
<path d="M468.832 399.673C442.049 417.154 392.87 415.784 361.968 399.673C364.92 381.29 368.807 362.886 367.972 338.417C367.878 335.736 367.763 333.069 367.629 330.43C367.509 328.131 367.375 325.849 367.229 323.592C364.563 282.889 357.614 249.607 361.029 245.308C362.518 243.424 365.003 241.391 368.07 239.31C369.274 238.492 370.561 237.662 371.919 236.831C375.126 234.875 378.691 232.905 382.271 230.986C390.765 226.452 399.388 222.246 403.711 219.371C407.997 221.239 411.41 222.261 415.089 222.24C415.188 222.24 415.296 222.24 415.405 222.229C415.504 222.24 415.613 222.24 415.711 222.24C419.391 222.261 422.803 221.239 427.096 219.371C431.106 222.037 438.656 225.757 446.361 229.813C452.021 232.796 457.766 235.96 462.238 239.032C465.165 241.039 467.555 243.01 469.019 244.856C470.711 246.988 470 256.335 468.552 270.185C467.12 283.813 464.977 301.806 463.68 321.585C463.321 327.078 463.026 332.707 462.828 338.417C461.999 362.886 465.879 381.29 468.832 399.673Z" fill="#3D89D1"/>
<path d="M452.453 379.344C452.452 379.344 452.45 379.344 452.449 379.344C430.881 379.248 412.471 369.438 400.827 361.223C388.232 352.338 380.599 343.338 380.523 343.247C380.155 342.809 380.211 342.153 380.649 341.786C381.088 341.416 381.743 341.473 382.111 341.912C382.186 341.999 389.679 350.829 402.071 359.561C413.462 367.588 431.451 377.176 452.457 377.269C453.03 377.271 453.494 377.738 453.492 378.311C453.489 378.882 453.024 379.344 452.453 379.344Z" fill="#385DB4"/>
<path d="M438.174 366.791C419.81 363.183 403.555 349.122 402.818 348.476C402.385 348.099 402.341 347.443 402.718 347.013C403.097 346.581 403.751 346.539 404.183 346.915C404.374 347.082 423.503 363.618 442.996 365.396C443.576 365.443 443.988 365.954 443.936 366.524C443.884 367.094 443.38 367.515 442.808 367.462C441.255 367.322 439.706 367.092 438.174 366.791Z" fill="#385DB4"/>
<path d="M410.986 271.808C410.498 271.808 410.063 271.46 409.967 270.964C409.861 270.4 410.231 269.858 410.793 269.751C437.089 264.763 445.013 247.851 445.091 247.681C445.327 247.159 445.941 246.928 446.465 247.164C446.987 247.4 447.219 248.014 446.982 248.536C446.65 249.271 438.525 266.603 411.181 271.789C411.115 271.801 411.05 271.808 410.986 271.808Z" fill="#385DB4"/>
<path d="M446.358 229.813C441.14 241.715 428.309 254.039 411.623 251.159C395.465 248.366 387.801 239.822 382.271 230.985C390.767 226.449 399.389 222.248 403.71 219.373C407.997 221.238 411.41 222.259 415.086 222.243C415.187 222.243 415.297 222.243 415.404 222.23C415.503 222.243 415.615 222.243 415.714 222.243C419.39 222.259 422.805 221.238 427.098 219.373C431.106 222.037 438.658 225.756 446.358 229.813Z" fill="#F6876F"/>
<path d="M432.41 220.244C431.948 220.238 431.582 220.608 431.58 221.064C431.574 221.732 431.302 237.465 417.175 238.684C404.073 239.821 398.649 227.283 396.973 222.08C396.875 221.775 396.593 221.57 396.271 221.57H396.117C395.613 221.57 395.256 222.062 395.415 222.539C397.203 227.907 402.914 240.867 416.262 240.393C416.609 240.379 416.961 240.358 417.317 240.328C432.951 238.979 433.228 221.252 433.23 221.072C433.232 220.618 432.865 220.247 432.41 220.244Z" fill="white"/>
<path d="M442.395 136.623C442.395 136.623 455.02 156.173 453.637 176.535C452.253 196.898 455.498 220.405 437.273 219.373C419.046 218.339 386.537 226.678 376.204 210.818C365.872 194.957 442.395 136.623 442.395 136.623Z" fill="#2F335D"/>
<path d="M447.074 172.569C447.074 172.569 450.35 202.086 436.342 210.212C422.331 218.339 412.193 209.267 412.193 209.267C412.193 209.267 441.722 168.124 447.074 172.569Z" fill="#1C1A2C"/>
<path d="M388.881 172.433C388.881 172.433 383.851 165.727 380.11 171.272C376.37 176.817 381.657 193.193 390.816 189.195L388.881 172.433Z" fill="#F25349"/>
<path d="M388.816 184.135C388.478 184.135 388.167 183.911 388.071 183.57C386.653 178.514 381.413 176.464 381.36 176.444C380.961 176.293 380.759 175.845 380.911 175.446C381.063 175.047 381.509 174.846 381.908 174.998C382.153 175.089 387.927 177.329 389.562 183.152C389.677 183.563 389.436 183.991 389.025 184.106C388.956 184.125 388.885 184.135 388.816 184.135Z" fill="#E43342"/>
<path d="M383.527 181.588C383.383 181.588 383.238 181.548 383.11 181.465C382.749 181.233 382.646 180.754 382.878 180.395C382.916 180.336 383.843 178.922 385.783 178.054C386.169 177.879 386.629 178.054 386.805 178.445C386.978 178.835 386.805 179.292 386.414 179.466C384.914 180.138 384.185 181.222 384.178 181.233C384.03 181.464 383.781 181.588 383.527 181.588Z" fill="#E43342"/>
<path d="M440.723 172.433C440.723 172.433 445.752 165.727 449.493 171.272C453.233 176.817 447.946 193.193 438.787 189.195L440.723 172.433Z" fill="#F25349"/>
<path d="M440.788 184.135C441.127 184.135 441.436 183.911 441.532 183.57C442.952 178.514 448.191 176.464 448.245 176.444C448.642 176.293 448.844 175.845 448.692 175.446C448.541 175.047 448.095 174.846 447.696 174.998C447.451 175.089 441.676 177.329 440.043 183.152C439.928 183.563 440.167 183.991 440.578 184.106C440.649 184.125 440.719 184.135 440.788 184.135Z" fill="#E43342"/>
<path d="M446.077 181.588C446.22 181.588 446.365 181.548 446.494 181.465C446.854 181.233 446.958 180.754 446.726 180.395C446.688 180.336 445.761 178.922 443.822 178.054C443.434 177.879 442.974 178.054 442.8 178.445C442.626 178.835 442.8 179.292 443.189 179.466C444.69 180.138 445.418 181.222 445.425 181.233C445.573 181.464 445.823 181.588 446.077 181.588Z" fill="#E43342"/>
<path d="M427.185 203.086V219.373C427.185 219.373 422.327 227.668 415.757 228.231C409.193 228.805 403.36 221.09 403.36 221.09V204.231L427.185 203.086Z" fill="#F6876F"/>
<path d="M427.185 203.086V210.313C422.777 215.204 414.949 216.936 403.363 215.227L403.36 204.231L427.185 203.086Z" fill="#F25349"/>
<path d="M444.36 161.26C444.059 167.589 443.455 175.504 442.246 181.834C441.947 183.411 441.604 184.897 441.226 186.227C437.797 198.227 429.223 218.808 405.216 210.236C394.613 206.452 389.699 194.645 387.509 182.637C386.023 174.483 385.798 166.243 385.907 160.355C386.023 154.344 389.304 148.85 394.536 145.887C408.705 137.856 423.658 140.85 433.502 144.632C440.335 147.255 444.708 153.964 444.36 161.26Z" fill="#F6876F"/>
<path d="M404.23 173.388C404.23 175.126 403.334 176.535 402.228 176.535C401.122 176.535 400.226 175.126 400.226 173.388C400.226 171.65 401.122 170.241 402.228 170.241C403.334 170.241 404.23 171.65 404.23 173.388Z" fill="#2F335D"/>
<path d="M428.949 173.388C428.949 175.126 428.053 176.535 426.947 176.535C425.842 176.535 424.946 175.126 424.946 173.388C424.946 171.65 425.842 170.241 426.947 170.241C428.053 170.241 428.949 171.65 428.949 173.388Z" fill="#2F335D"/>
<path d="M398.262 164.016C399.926 163.547 403.284 162.745 406.826 162.734C407.758 162.731 408.472 163.559 408.308 164.477L408.304 164.501C408.171 165.232 407.517 165.751 406.772 165.716C404.363 165.604 398.035 165.942 395.047 167.153C394.986 166.634 395.294 166.065 395.729 165.561C396.387 164.796 397.292 164.291 398.262 164.016Z" fill="#2F335D"/>
<path d="M430.608 164.081C428.944 163.61 425.587 162.808 422.044 162.799C421.112 162.796 420.398 163.624 420.562 164.541L420.566 164.564C420.699 165.297 421.354 165.815 422.098 165.781C424.509 165.669 430.835 166.007 433.824 167.218C433.884 166.698 433.576 166.13 433.143 165.625C432.483 164.86 431.58 164.356 430.608 164.081Z" fill="#2F335D"/>
<path d="M415.071 187.75C414.478 187.75 413.883 187.646 413.388 187.35C412.936 187.078 412.374 186.53 412.262 185.46C411.968 182.618 412.696 173.703 412.728 173.325C412.762 172.898 413.135 172.582 413.562 172.616C413.988 172.652 414.305 173.026 414.27 173.452C414.263 173.543 413.523 182.6 413.802 185.301C413.85 185.77 414.042 185.937 414.183 186.02C414.909 186.457 416.588 186.012 417.287 185.728C417.682 185.566 418.135 185.757 418.296 186.153C418.457 186.548 418.267 186.999 417.873 187.161C417.671 187.243 416.376 187.75 415.071 187.75Z" fill="#F25349"/>
<path d="M405.242 192.635C405.828 195.578 407.772 200.994 414.324 200.994C420.89 200.994 422.732 196.045 423.364 192.635H405.242Z" fill="white"/>
<path d="M414.23 205.508C412.34 205.508 410.67 204.49 410.598 204.448C410.235 204.223 410.123 203.745 410.349 203.382C410.572 203.019 411.047 202.907 411.412 203.129C411.426 203.138 412.787 203.96 414.23 203.96C415.79 203.96 417.188 203.135 417.203 203.125C417.569 202.907 418.044 203.024 418.263 203.39C418.483 203.756 418.367 204.23 418.002 204.45C417.93 204.495 416.232 205.508 414.23 205.508Z" fill="#F25349"/>
<path d="M447.475 159.999C447.227 160.705 446.538 161.156 445.614 161.425C445.682 163.131 445.502 165.184 445.334 167.151C444.378 178.334 441.556 180.298 440.918 177.533C440.498 175.696 440.523 165.165 440.726 161.732C438.515 161.587 436.627 161.218 436.627 161.218L434.032 150.361L433.125 161.083C429.232 162.437 420.152 160.268 420.152 160.268L417.108 149.567L415.224 159.864C409.386 162.706 402.091 160.814 402.091 160.814L400.415 149.707L396.545 160.814C396.545 160.814 384.093 165.279 383.957 160.814C383.874 158.214 385.779 150.895 387.387 145.226C389.141 139.043 393.203 133.818 398.699 130.872C414.144 122.583 430.479 126.993 436.081 130.338C447.964 137.429 447.475 159.999 447.475 159.999Z" fill="#2F335D"/>
<path d="M390.816 137.45C390.816 137.45 380.563 149.639 377.191 171.41C373.819 193.181 369.15 209.267 382.271 216.455C396.473 224.235 395.244 208.278 395.04 203.941C394.834 199.605 382.753 187.75 390.816 154.363C393.419 143.585 390.816 137.45 390.816 137.45Z" fill="#2F335D"/>
<path d="M388.42 182.438C388.42 182.438 388.42 182.449 388.42 182.464C388.424 182.625 388.435 183.492 388.497 184.846C388.528 185.686 388.58 186.708 388.659 187.87C389.141 195.204 390.569 207.871 394.761 212.265C396.415 214.003 399.606 214.874 403.363 215.228V209.464C399.403 207.585 396.317 204.5 393.925 200.703C392.446 197.503 389.899 192.492 388.704 184.612L388.42 182.438Z" fill="#1C1A2C"/>
<path d="M444.545 189.563C444.545 190.565 443.732 191.376 442.732 191.376C441.73 191.376 440.918 190.565 440.918 189.563C440.918 188.562 441.73 187.75 442.732 187.75C443.732 187.75 444.545 188.562 444.545 189.563Z" fill="white"/>
<path d="M481.496 326.117C476.36 340.817 453.359 339.746 427.162 331.711C427.125 331.7 427.088 331.686 427.049 331.676C426.966 331.651 426.888 331.624 426.805 331.6L423.201 330.452C422.704 330.289 422.204 330.123 421.707 329.953C418.883 329.009 416.04 327.988 413.185 326.903C403.826 323.349 394.392 319.138 385.498 314.644L385.56 314.488L388.239 307.532L389.153 305.165C389.153 305.165 437.717 310.455 462.137 305.351C462.551 305.266 462.954 305.179 463.35 305.086C463.255 304.544 463.225 303.992 463.072 303.475C450.133 259.44 464.284 250.997 469.019 244.854C469.019 244.854 491.191 298.369 481.496 326.117Z" fill="#3D89D1"/>
<path d="M473.582 312.488C473.437 312.557 473.281 312.59 473.129 312.59C472.747 312.59 472.378 312.378 472.199 312.011C470.348 308.223 464.066 305.968 462.137 305.351C462.551 305.266 462.954 305.179 463.35 305.086C463.255 304.544 463.163 304.007 463.072 303.475C465.527 304.286 471.935 306.757 474.057 311.104C474.31 311.614 474.096 312.236 473.582 312.488Z" fill="#385DB4"/>
<path d="M405.561 310.643C395.65 310.643 387.601 310.074 386.9 310.023C386.33 309.981 385.902 309.484 385.942 308.914C385.984 308.344 386.48 307.92 387.05 307.958C387.416 307.983 423.846 310.561 438.209 304.736C438.738 304.522 439.343 304.774 439.558 305.306C439.772 305.835 439.518 306.438 438.988 306.655C431.037 309.878 417.048 310.643 405.561 310.643Z" fill="#385DB4"/>
<path d="M423.201 330.452C423.204 330.452 423.204 330.452 423.204 330.452C431.516 328.16 439.071 325.927 443.434 324.53C449.49 322.587 454.502 316.467 456.781 311.262C457.009 310.739 457.619 310.5 458.144 310.732C458.668 310.96 458.907 311.57 458.679 312.095C456.213 317.721 450.741 324.361 444.066 326.504C440.9 327.52 436.065 328.968 430.475 330.562C428.093 331.243 425.561 331.204 423.201 330.452Z" fill="#385DB4"/>
<path d="M445.604 323.333C370.55 348.604 347.46 332.067 347.46 332.067C342.408 286.384 361.026 245.307 361.026 245.307C366.529 254.374 372.748 270.202 372.748 270.202L374.391 305.218L374.267 306.191L374.207 306.65L373.898 309.044L373.89 309.092C374.05 309.127 374.212 309.161 374.373 309.196C397.078 313.985 438.598 308.633 438.598 308.633L445.604 323.333Z" fill="#3D89D1"/>
<path d="M374.373 309.196C370.322 312.59 366.474 316.504 363.042 321C362.697 321.455 362.045 321.545 361.59 321.197C361.134 320.852 361.049 320.203 361.39 319.748C361.394 319.748 361.394 319.744 361.394 319.744C365.249 314.682 369.618 310.349 374.208 306.65L373.898 309.044L373.89 309.092C374.05 309.127 374.212 309.161 374.373 309.196Z" fill="#385DB4"/>
<path d="M438.598 308.634C438.598 308.634 446.908 289.764 459.541 291.444L463.35 305.088C456.435 308.022 455.423 319.878 445.606 323.333L438.598 308.634Z" fill="#F6876F"/>
<path d="M389.155 305.165C389.155 305.165 383.908 292.851 370.097 289.278C356.288 285.702 347.489 292.21 346.561 294.664C345.635 297.12 351.77 294.773 351.77 294.773C351.77 294.773 347.774 295.904 345.481 299.658C343.189 303.412 351.061 299.362 351.061 299.362C351.061 299.362 345.417 301.834 344.698 304.127C343.98 306.421 351.426 302.546 352.826 302.621C352.826 302.621 346.177 305.263 346.223 307.629C346.267 309.994 353.86 306.137 359.528 306.44C365.198 306.747 373.89 309.094 373.89 309.094C378.529 309.977 382.963 310.629 386.974 310.815L389.155 305.165Z" fill="#F6876F"/>
<path d="M522.512 98.0817C519.004 98.0817 516.151 100.935 516.151 104.443C516.151 107.949 519.004 110.802 522.512 110.802C526.019 110.802 528.875 107.949 528.875 104.443C528.875 100.935 526.019 98.0817 522.512 98.0817ZM522.512 113.709C517.4 113.709 513.241 109.552 513.241 104.443C513.241 99.3323 517.4 95.1745 522.512 95.1745C527.624 95.1745 531.783 99.3323 531.783 104.443C531.783 109.552 527.624 113.709 522.512 113.709Z" fill="#15ADAE"/>
<path d="M603.392 82.3364C599.884 82.3364 597.031 85.1884 597.031 88.6961C597.031 92.2023 599.884 95.0557 603.392 95.0557C606.9 95.0557 609.755 92.2023 609.755 88.6961C609.755 85.1884 606.9 82.3364 603.392 82.3364ZM603.392 97.9642C598.281 97.9642 594.122 93.8064 594.122 88.6961C594.122 83.5857 598.281 79.4279 603.392 79.4279C608.504 79.4279 612.663 83.5857 612.663 88.6961C612.663 93.8064 608.504 97.9642 603.392 97.9642Z" fill="#29C1C2"/>
<path d="M614.846 128.081C614.044 128.081 613.394 127.429 613.394 126.626V120.215C613.394 119.412 614.044 118.762 614.846 118.762C615.648 118.762 616.3 119.412 616.3 120.215V126.626C616.3 127.429 615.648 128.081 614.846 128.081Z" fill="#015656"/>
<path d="M614.846 139.3C614.044 139.3 613.394 138.648 613.394 137.846V131.434C613.394 130.632 614.044 129.982 614.846 129.982C615.648 129.982 616.3 130.632 616.3 131.434V137.846C616.3 138.648 615.648 139.3 614.846 139.3Z" fill="#015656"/>
<path d="M623.848 130.484H618.087C617.285 130.484 616.633 129.834 616.633 129.031C616.633 128.227 617.285 127.577 618.087 127.577H623.848C624.651 127.577 625.303 128.227 625.303 129.031C625.303 129.834 624.651 130.484 623.848 130.484Z" fill="#015656"/>
<path d="M611.607 130.484H605.846C605.042 130.484 604.391 129.834 604.391 129.031C604.391 128.227 605.042 127.577 605.846 127.577H611.607C612.409 127.577 613.059 128.227 613.059 129.031C613.059 129.834 612.409 130.484 611.607 130.484Z" fill="#015656"/>
<path d="M565.88 89.2428C565.078 89.2428 564.428 88.5912 564.428 87.7892V81.3771C564.428 80.5751 565.078 79.9235 565.88 79.9235C566.684 79.9235 567.334 80.5751 567.334 81.3771V87.7892C567.334 88.5912 566.684 89.2428 565.88 89.2428Z" fill="#015556"/>
<path d="M565.88 100.462C565.078 100.462 564.428 99.8114 564.428 99.008V92.5973C564.428 91.7939 565.078 91.1437 565.88 91.1437C566.684 91.1437 567.334 91.7939 567.334 92.5973V99.008C567.334 99.8114 566.684 100.462 565.88 100.462Z" fill="#015556"/>
<path d="M574.882 91.6475H569.121C568.319 91.6475 567.667 90.9959 567.667 90.1925C567.667 89.3905 568.319 88.7389 569.121 88.7389H574.882C575.685 88.7389 576.337 89.3905 576.337 90.1925C576.337 90.9959 575.685 91.6475 574.882 91.6475Z" fill="#015556"/>
<path d="M562.641 91.6475H556.88C556.077 91.6475 555.425 90.9959 555.425 90.1925C555.425 89.3905 556.077 88.7389 556.88 88.7389H562.641C563.443 88.7389 564.094 89.3905 564.094 90.1925C564.094 90.9959 563.443 91.6475 562.641 91.6475Z" fill="#015556"/>
<path d="M194.075 80.9257C194.075 84.432 196.929 87.2853 200.437 87.2853C203.945 87.2853 206.799 84.432 206.799 80.9257C206.799 77.4181 203.945 74.5647 200.437 74.5647C196.929 74.5647 194.075 77.4181 194.075 80.9257ZM191.167 80.9257C191.167 75.814 195.325 71.6575 200.437 71.6575C205.549 71.6575 209.708 75.814 209.708 80.9257C209.708 86.0361 205.549 90.1925 200.437 90.1925C195.325 90.1925 191.167 86.0361 191.167 80.9257Z" fill="#15ADAE"/>
<path d="M156.846 116.251C156.846 119.757 159.7 122.61 163.208 122.61C166.716 122.61 169.57 119.757 169.57 116.251C169.57 112.743 166.716 109.89 163.208 109.89C159.7 109.89 156.846 112.743 156.846 116.251ZM153.937 116.251C153.937 111.14 158.097 106.983 163.208 106.983C168.319 106.983 172.479 111.14 172.479 116.251C172.479 121.361 168.319 125.519 163.208 125.519C158.097 125.519 153.937 121.361 153.937 116.251Z" fill="#29C1C2"/>
<path d="M134.664 129.256C135.468 129.256 136.119 128.606 136.119 127.802V121.392C136.119 120.588 135.468 119.938 134.664 119.938C133.861 119.938 133.21 120.588 133.21 121.392V127.802C133.21 128.606 133.861 129.256 134.664 129.256Z" fill="#015656"/>
<path d="M134.664 140.476C135.468 140.476 136.119 139.826 136.119 139.021V132.61C136.119 131.808 135.468 131.157 134.664 131.157C133.861 131.157 133.21 131.808 133.21 132.61V139.021C133.21 139.826 133.861 140.476 134.664 140.476Z" fill="#015656"/>
<path d="M125.663 131.661H131.423C132.226 131.661 132.878 131.009 132.878 130.207C132.878 129.404 132.226 128.753 131.423 128.753H125.663C124.86 128.753 124.209 129.404 124.209 130.207C124.209 131.009 124.86 131.661 125.663 131.661Z" fill="#015656"/>
<path d="M137.904 131.661H143.666C144.469 131.661 145.12 131.009 145.12 130.207C145.12 129.404 144.469 128.753 143.666 128.753H137.904C137.102 128.753 136.451 129.404 136.451 130.207C136.451 131.009 137.102 131.661 137.904 131.661Z" fill="#015656"/>
<path d="M168.171 79.9746C168.974 79.9746 169.626 79.323 169.626 78.521V72.1103C169.626 71.3069 168.974 70.6567 168.171 70.6567C167.369 70.6567 166.717 71.3069 166.717 72.1103V78.521C166.717 79.323 167.369 79.9746 168.171 79.9746Z" fill="#015656"/>
<path d="M168.171 91.1947C168.974 91.1947 169.626 90.5431 169.626 89.7397V83.329C169.626 82.527 168.974 81.8754 168.171 81.8754C167.369 81.8754 166.717 82.527 166.717 83.329V89.7397C166.717 90.5431 167.369 91.1947 168.171 91.1947Z" fill="#015656"/>
<path d="M159.17 82.3793H164.931C165.733 82.3793 166.385 81.7277 166.385 80.9257C166.385 80.1223 165.733 79.4707 164.931 79.4707H159.17C158.367 79.4707 157.716 80.1223 157.716 80.9257C157.716 81.7277 158.367 82.3793 159.17 82.3793Z" fill="#015656"/>
<path d="M171.412 82.3793H177.173C177.976 82.3793 178.627 81.7277 178.627 80.9257C178.627 80.1223 177.976 79.4707 177.173 79.4707H171.412C170.609 79.4707 169.958 80.1223 169.958 80.9257C169.958 81.7277 170.609 82.3793 171.412 82.3793Z" fill="#015656"/>
<path d="M445.4 81.591C445.233 81.609 445.059 81.5855 444.892 81.5151C443.127 80.7711 442.093 80.4232 442.082 80.4204C441.542 80.2396 441.251 79.6557 441.429 79.1145C441.611 78.5734 442.195 78.2821 442.737 78.4616C442.781 78.4768 443.847 78.8343 445.694 79.6129C446.22 79.8351 446.467 80.4398 446.245 80.9657C446.093 81.3246 445.763 81.5537 445.4 81.591Z" fill="#ABDDE7"/>
<path d="M498.022 136.957C498.725 138.83 499.382 140.762 499.978 142.698C500.125 143.179 500.591 143.473 501.073 143.422C501.137 143.416 501.204 143.402 501.267 143.382C501.813 143.215 502.121 142.638 501.952 142.092C501.345 140.116 500.673 138.144 499.957 136.232C499.757 135.7 499.164 135.429 498.627 135.629C498.094 135.829 497.822 136.424 498.022 136.957Z" fill="#ABDDE7"/>
<path d="M501.586 148.547C502.06 150.487 502.488 152.483 502.858 154.482C502.956 155.015 503.449 155.376 503.98 155.321C504.007 155.317 504.033 155.314 504.062 155.309C504.621 155.205 504.993 154.665 504.888 154.106C504.511 152.07 504.076 150.035 503.592 148.059C503.457 147.505 502.898 147.166 502.346 147.301C501.791 147.435 501.451 147.994 501.586 148.547Z" fill="#ABDDE7"/>
<path d="M505.941 179.72C506.453 179.666 506.855 179.237 506.864 178.71C506.897 176.638 506.881 174.56 506.819 172.532C506.803 171.962 506.325 171.515 505.756 171.531C505.178 171.552 504.739 172.026 504.756 172.594C504.816 174.592 504.83 176.638 504.799 178.678C504.791 179.248 505.245 179.716 505.816 179.726C505.858 179.727 505.9 179.724 505.941 179.72Z" fill="#ABDDE7"/>
<path d="M504.692 159.321C504.125 159.395 503.726 159.914 503.8 160.478C503.921 161.411 504.032 162.354 504.13 163.28C504.243 164.35 504.344 165.441 504.428 166.523C504.472 167.09 504.969 167.516 505.538 167.471C505.548 167.47 505.557 167.469 505.567 167.469C506.121 167.409 506.531 166.919 506.487 166.362C506.4 165.26 506.299 164.152 506.183 163.064C506.085 162.121 505.972 161.163 505.847 160.212C505.776 159.655 505.272 159.261 504.715 159.319C504.708 159.32 504.699 159.32 504.692 159.321Z" fill="#ABDDE7"/>
<path d="M495.719 131.349C495.907 131.768 496.338 132 496.77 131.955C496.876 131.944 496.981 131.916 497.083 131.87C497.604 131.637 497.837 131.027 497.604 130.506C496.763 128.626 495.853 126.752 494.896 124.936C494.631 124.431 494.008 124.238 493.502 124.503C492.998 124.768 492.804 125.392 493.069 125.897C494.004 127.675 494.895 129.508 495.719 131.349Z" fill="#ABDDE7"/>
<path d="M450.377 84.0812C452.149 84.9854 453.939 85.9724 455.695 87.0119C455.894 87.1292 456.115 87.172 456.328 87.1499C456.643 87.1168 456.937 86.9415 457.111 86.6502C457.401 86.1588 457.239 85.5266 456.748 85.2353C454.954 84.1751 453.127 83.1674 451.317 82.2425C450.809 81.983 450.186 82.1846 449.928 82.6912C449.668 83.1992 449.87 83.8203 450.377 84.0812Z" fill="#ABDDE7"/>
<path d="M465.763 93.801C465.982 93.9666 466.246 94.0329 466.5 94.0066C466.772 93.9777 467.032 93.841 467.211 93.6063C467.556 93.1535 467.471 92.5061 467.018 92.1596C465.382 90.9117 463.69 89.6969 461.985 88.5471C461.511 88.2296 460.872 88.3524 460.552 88.8259C460.233 89.298 460.357 89.9399 460.831 90.2588C462.501 91.3852 464.161 92.5765 465.763 93.801Z" fill="#ABDDE7"/>
<path d="M483.114 110.702C483.342 110.986 483.691 111.118 484.029 111.082C484.219 111.063 484.405 110.99 484.565 110.862C485.01 110.505 485.083 109.857 484.725 109.411C483.443 107.809 482.089 106.223 480.704 104.699C480.319 104.277 479.667 104.245 479.245 104.629C478.824 105.013 478.792 105.666 479.174 106.088C480.533 107.58 481.857 109.133 483.114 110.702Z" fill="#ABDDE7"/>
<path d="M474.957 101.726C475.185 101.948 475.492 102.043 475.786 102.012C476.018 101.988 476.242 101.886 476.417 101.705C476.815 101.297 476.806 100.644 476.398 100.246C474.928 98.8174 473.392 97.4094 471.827 96.0621C471.396 95.6894 470.743 95.7391 470.372 96.1712C469.999 96.6018 470.047 97.2548 470.481 97.6261C472.012 98.9472 473.519 100.326 474.957 101.726Z" fill="#ABDDE7"/>
<path d="M490.077 120.624C490.291 120.976 490.683 121.154 491.067 121.113C491.215 121.098 491.361 121.049 491.497 120.968C491.984 120.671 492.136 120.035 491.839 119.549C490.768 117.794 489.626 116.049 488.444 114.367C488.118 113.9 487.474 113.787 487.006 114.114C486.538 114.443 486.426 115.086 486.755 115.552C487.911 117.199 489.028 118.907 490.077 120.624Z" fill="#ABDDE7"/>
<path d="M445.381 74.5288L449.899 57.798L394.533 58.2729L445.381 74.5288Z" fill="#15ADAE"/>
<path d="M394.533 58.2715L442.694 78.5679L442.821 78.6231L444.892 82.0535L445.381 74.5288L394.533 58.2715Z" fill="#069899"/>
<path d="M444.892 82.0535L440.403 81.3467L442.821 78.6231L444.892 82.0535Z" fill="#008E8F"/>
<path d="M436.762 76.0693L442.822 78.6231L430.34 92.6814L394.533 58.2729L436.762 76.0693Z" fill="#15ADAE"/>
<path d="M699.974 514.698V515.706C699.974 521.525 695.254 526.242 689.431 526.242H142.707C136.885 526.242 132.169 521.525 132.169 515.706V514.698C132.169 508.881 136.885 504.163 142.707 504.163H689.431C695.254 504.163 699.974 508.881 699.974 514.698Z" fill="#003132"/>
<path d="M699.974 514.699V515.203H132.169V514.699C132.169 508.881 136.885 504.163 142.707 504.163H689.431C695.254 504.163 699.974 508.881 699.974 514.699Z" fill="#034F50"/>
<path d="M499.741 471.019H327.991C323.887 471.019 320.559 467.694 320.559 463.591V373.757C320.559 369.654 323.887 366.329 327.991 366.329H499.741C503.845 366.329 507.172 369.654 507.172 373.757V463.591C507.172 467.694 503.845 471.019 499.741 471.019Z" fill="#2F335D"/>
<path d="M428.315 503.837H399.415V470.9H428.315V503.837Z" fill="#1C1A2C"/>
<path d="M427.887 419.957C427.887 427.877 421.464 434.297 413.544 434.297C405.621 434.297 399.199 427.877 399.199 419.957C399.199 412.038 405.621 405.617 413.544 405.617C421.464 405.617 427.887 412.038 427.887 419.957Z" fill="#35527F"/>
<path d="M450.678 503.837H376.131V501.327C376.131 496.26 380.239 492.152 385.306 492.152H441.501C446.568 492.152 450.678 496.26 450.678 501.327V503.837Z" fill="#2F335D"/>
</g>
<path d="M764 266.533V266.4H764.133V266.133H764.267V265.867H764.4V265.467H764.533V265.2H764.667V264.933H764.8V264.533H764.933V264.267H765.067V264H765.2V263.733H765.333V263.333H765.467V263.067H765.6V262.8H765.733V262.4H765.867V262.133H766V261.867H766.133V261.6H766.267V261.2H766.4V260.933H766.533V260.667H766.667V260.267H766.8V260H766.933V259.733H767.067V259.467H767.2V259.067H767.333V258.8H767.467V258.533H767.6V258.133H767.733V257.867H767.867V257.6H768V257.333H768.133V256.933H768.267V256.667H768.4V256.4H768.533V256H768.667V255.733H768.8V255.467H768.933V255.2H769.067V254.8H769.2V254.533H769.333V254.267H769.467V254H769.6V253.6H769.733V253.333H769.867V253.067H770V252.667H770.133V252.4H770.267V252.133H770.4V251.867H770.533V251.467H770.667V251.2H770.8V250.933H770.933V250.533H771.067V250.267H771.2V250H771.333V249.733H771.467V249.333H771.6V249.067H771.733V248.8H771.867V248.4H772V248.133H772.133V247.867H772.267V247.6H772.4V247.2H772.533V246.933H772.667V246.667H772.8V246.267H772.933V246H773.067V245.733H773.2V245.467H773.333V245.067H773.467V244.8H773.6V244.533H773.733V244.133H773.867V244H774.133V244.267H774.267V244.4H774.4V244.533H774.533V244.8H774.667V244.933H774.8V245.067H774.933V245.333H775.067V245.467H775.2V245.6H775.333V245.867H775.467V246H775.6V246.267H775.733V246.4H775.867V246.533H776V246.8H776.133V246.933H776.267V247.067H776.4V247.333H776.533V247.467H776.667V247.6H776.8V247.867H776.933V248H777.067V248.133H777.2V248.4H777.333V248.533H777.467V248.8H777.6V248.933H777.733V249.067H777.867V249.333H778V249.467H778.133V249.6H778.267V249.867H778.4V250H778.533V250.133H778.667V250.4H778.8V250.533H778.933V250.667H779.067V250.933H779.2V251.067H779.333V251.333H779.467V251.467H779.6V251.6H779.733V251.867H779.867V252H780V252.133H780.133V252.4H780.267V252.533H780.4V252.667H780.533V252.933H780.667V253.067H780.8V253.333H780.933V253.467H781.067V253.6H781.2V253.867H781.333V254H781.467V254.133H781.6V254.4H781.733V254.533H781.867V254.667H782V254.933H782.133V255.067H782.267V255.2H782.4V255.467H782.533V255.6H782.667V255.867H782.8V256H782.933V256.133H783.067V256.4H783.2V256.533H783.333V256.667H783.467V256.933H783.6V257.067H783.733V257.2H783.867V257.467H784V257.6H784.133V257.733H784.267V258H784.4V258.133H784.533V258.4H784.667V258.533H784.8V258.667H784.933V258.933H785.067V259.067H785.2V259.2H785.333V259.467H785.467V259.6H785.6V259.733H785.733V260H785.867V260.133H786V260.4H786.133V260.533H786.267V260.667H786.4V260.933H786.533V261.067H786.667V261.2H786.8V261.467H786.933V261.6H787.067V261.733H787.2V262H787.333V262.133H787.467V262.267H787.6V262.533H787.733V262.667H787.867V262.933H788V263.067H788.133V263.2H788.267V263.467H788.4V263.6H788.533V263.867H788V264H786.8V264.133H785.6V264.267H784.4V264.4H783.2V264.533H782V264.667H780.8V264.8H779.6V264.933H778.4V265.067H777.2V265.2H776V265.333H774.8V265.467H773.6V265.6H772.4V265.733H771.2V265.867H770V266H768.8V266.133H767.6V266.267H766.4V266.4H765.2V266.533" fill="url(#paint0_linear_220_1380)"/>
<path d="M8.516 452.488H8.05601C8.05334 454.457 6.45867 456.053 4.488 456.057C2.51734 456.053 0.924003 454.459 0.920003 452.488C0.924003 450.517 2.51734 448.923 4.488 448.92C6.45867 448.923 8.05334 450.517 8.05601 452.488H8.516H8.97601C8.97601 450.009 6.96801 448 4.488 448C2.00934 448 0 450.009 0 452.488C0 454.967 2.00934 456.977 4.488 456.977C6.96801 456.977 8.97601 454.967 8.97601 452.488H8.516Z" fill="#29C1C2"/>
<path d="M783.567 519.013H783.107C783.107 520.973 782.313 522.743 781.029 524.028C779.744 525.312 777.973 526.105 776.013 526.105C774.053 526.105 772.283 525.312 770.999 524.028C769.713 522.743 768.921 520.973 768.92 519.013C768.921 517.053 769.713 515.283 770.999 513.997C772.283 512.713 774.053 511.92 776.013 511.92C777.973 511.92 779.744 512.713 781.029 513.997C782.313 515.283 783.107 517.053 783.107 519.013H783.567H784.027C784.027 514.587 780.44 511 776.013 511C771.588 511 768.001 514.587 768 519.013C768.001 523.439 771.588 527.025 776.013 527.025C780.44 527.025 784.027 523.439 784.027 519.013H783.567Z" fill="#29C1C2"/>
<path d="M356.539 5.99865H356.079C356.079 7.40265 355.511 8.66932 354.591 9.58932C353.671 10.5093 352.403 11.0773 350.999 11.0773C349.595 11.0773 348.328 10.5093 347.408 9.58932C346.488 8.66932 345.92 7.40265 345.92 5.99865C345.92 4.59465 346.488 3.32799 347.408 2.40799C348.328 1.48799 349.595 0.919988 350.999 0.919988C352.403 0.919988 353.671 1.48799 354.591 2.40799C355.511 3.32799 356.079 4.59465 356.079 5.99865H356.539H356.999C356.999 2.68532 354.313 -1.52588e-05 350.999 -1.52588e-05C347.685 -1.52588e-05 345 2.68532 345 5.99865C345 9.31198 347.685 11.9973 350.999 11.9973C354.313 11.9973 356.999 9.31198 356.999 5.99865H356.539Z" fill="#29C1C2"/>
<path d="M831.503 172.481H831.043C831.04 173.896 829.895 175.04 828.481 175.041C827.067 175.04 825.923 173.896 825.92 172.481C825.923 171.068 827.067 169.923 828.481 169.92C829.895 169.923 831.04 171.068 831.043 172.481H831.503H831.963C831.961 170.559 830.404 169 828.481 169C826.557 169 825.001 170.559 825 172.481C825 174.404 826.559 175.961 828.481 175.963C830.404 175.961 831.963 174.405 831.963 172.481H831.503Z" fill="#29C1C2"/>
<path d="M37.1333 304.667V304.533H37V304.4H36.8667V304.267H36.6V304.133H36.4667V304H36.3333V303.867H36.2V303.733H36.0667V303.6H35.9333V303.467H35.6667V303.333H35.5333V303.2H35.4V303.067H35.2667V302.933H35.1333V302.8H35V302.667H34.7333V302.533H34.6V302.4H34.4667V302.267H34.3333V302.133H34.2V302H34.0667V301.867H33.9333V301.733H33.6667V301.6H33.5333V301.467H33.4V301.333H33.2667V301.2H33.1333V301.067H33V300.933H32.7333V300.8H32.6V300.667H32.4667V300.533H32.3333V300.4H32.2V300.267H32.0667V300.133H31.9333V300H31.6667V299.867H31.5333V299.733H31.4V299.6H31.2667V299.467H31.1333V299.333H31V299.2H30.7333V299.067H30.6V298.933H30.4667V298.8H30.3333V298.667H30.2V298.533H30.0667V298.4H29.8V298.267H29.6667V298.133H29.5333V298H29.4V297.867H29.2667V297.733H29.1333V297.6H29V297.467H28.7333V297.333H28.6V297.2H28.4667V297.067H28.3333V296.933H28.2V296.8H28.0667V296.667H27.8V296.533H27.6667V296.4H27.5333V296.267H27.4V296.133H27.2667V296H27.1333V295.867H26.8667V295.733H26.7333V295.6H26.6V295.467H26.4667V295.333H26.3333V295.2H26.2V295.067H26.0667V294.933H25.8V294.8H25.6667V294.667H25.5333V294.533H25.4V294.4H25.2667V294.267H25.1333V294.133H24.8667V294H24.7333V293.867H24.6V293.733H24.4667V293.6H24.3333V293.467H24.2V293.333H23.9333V293.2H23.8V293.067H23.6667V292.933H23.5333V292.8H23.4V292.667H23.2667V292.533H23.1333V292.4H23V292.267H23.1333V292.133H23.5333V292H23.9333V291.867H24.3333V291.733H24.7333V291.6H25.1333V291.467H25.4V291.333H25.8V291.2H26.2V291.067H26.6V290.933H27V290.8H27.4V290.667H27.8V290.533H28.2V290.4H28.4667V290.267H28.8667V290.133H29.2667V290H29.6667V289.867H30.0667V289.733H30.4667V289.6H30.8667V289.467H31.2667V289.333H31.5333V289.2H31.9333V289.067H32.3333V288.933H32.7333V288.8H33.1333V288.667H33.5333V288.533H33.9333V288.4H34.3333V288.267H34.6V288.133H35V288H35.4V287.867H35.8V287.733H36.2V287.6H36.6V287.467H37V287.333H37.4V287.2H37.6667V287.067H38.0667V286.933H38.4667V286.8H38.8667V286.667H39.2667V286.533H39.6667V286.4H40.0667V286.267H40.4667V286.133H40.7333V286H41V286.267H40.8667V286.933H40.7333V287.6H40.6V288.267H40.4667V289.067H40.3333V289.733H40.2V290.4H40.0667V291.067H39.9333V291.867H39.8V292.533H39.6667V293.2H39.5333V293.867H39.4V294.533H39.2667V295.333H39.1333V296H39V296.667H38.8667V297.333H38.7333V298.133H38.6V298.8H38.4667V299.467H38.3333V300.133H38.2V300.933H38.0667V301.6H37.9333V302.267H37.8V302.933H37.6667V303.6H37.5333V304.4H37.4V304.667" fill="url(#paint1_linear_220_1380)"/>
<defs>
<linearGradient id="paint0_linear_220_1380" x1="783.499" y1="256.128" x2="768.995" y2="255.272" gradientUnits="userSpaceOnUse">
<stop stop-color="#E13311"/>
<stop offset="1" stop-color="#FF512F"/>
</linearGradient>
<linearGradient id="paint1_linear_220_1380" x1="37.3061" y1="296.047" x2="26.6565" y2="295.49" gradientUnits="userSpaceOnUse">
<stop stop-color="#E13311"/>
<stop offset="1" stop-color="#FF512F"/>
</linearGradient>
<clipPath id="clip0_220_1380">
<rect width="640" height="470" fill="white" transform="translate(92 56)"/>
</clipPath>
</defs>
</svg>
