<svg width="475" height="222" viewBox="0 0 475 222" fill="none" xmlns="http://www.w3.org/2000/svg">
<path d="M41.88 221.63L51.4357 200.858H116.719L126.498 221.63H168.378L93.3152 62.6874H74.3912L0 221.63H41.88ZM84.2078 130.753L100.37 165.731H67.8217L84.2078 130.753Z" fill="#FF512F"/>
<path d="M262.678 134.563V162.457H293.505C286.902 171.953 275.217 178.11 262.678 178.11C243.118 178.11 225.053 162.271 225.053 140.498C225.053 118.613 242.706 102.663 262.678 102.663C273.539 102.663 282.456 106.929 289.253 113.309L318.814 84.0796C304.371 69.9105 284.588 61.0452 262.678 61.0452C218.669 61.0452 183.136 96.543 183.136 140.498C183.136 184.23 218.669 219.766 262.678 219.766C306.681 219.766 342.443 184.268 342.443 140.498V134.563H262.678Z" fill="#15ADAE"/>
<path d="M401.189 84.8696H381.258V65.062H340.836V48.1105L370.733 2.44916H401.189C401.189 38.9486 401.189 54.9356 401.189 84.8696ZM381.293 47.7395V18.9925L362.893 47.7395H381.293Z" fill="#F13F21"/>
<path d="M474.688 27.4487C474.688 36.3881 466.213 49.4819 449.303 66.6929H473.752V84.8315H409.812L444.191 44.9937C447.925 40.7651 450.463 37.4267 451.842 35.0528C453.225 32.6417 453.933 30.3049 453.933 28.0422C453.933 25.1489 453.037 22.6267 451.211 20.5124C449.38 18.3981 446.953 17.3224 443.855 17.3224C439.75 17.3224 436.799 19.2512 435.085 23.1089C434.078 25.3715 433.554 28.1535 433.554 31.3435H412.798C412.798 23.4798 414.889 16.766 419.071 11.2021C424.672 3.7464 433.142 0 444.45 0C454.268 0 461.884 2.81909 467.332 8.49429C472.226 13.5018 474.688 19.8447 474.688 27.4487Z" fill="#F13F21"/>
</svg>
