<svg width="223" height="74" viewBox="0 0 223 74" fill="none" xmlns="http://www.w3.org/2000/svg">
<g clip-path="url(#clip0_19_1741)">
<path d="M9.77407 51.9207L12.0042 47.0545H27.2402L29.5226 51.9207H39.2966L21.7782 14.6858H17.3616L0 51.9207H9.77407ZM19.6527 30.6312L23.4247 38.8255H15.8284L19.6527 30.6312ZM44.2708 51.8772H58.0695C68.3401 51.8772 76.6855 43.5439 76.6855 33.2902C76.6855 23.0365 68.3488 14.7032 58.0695 14.7032H44.2708V51.8772ZM54.0013 24.6615H58.1217C62.9826 24.6615 66.955 28.6239 66.955 33.4292C66.955 38.2867 62.9826 42.2492 58.1217 42.2492H54.0013V24.6615ZM107.854 14.6945L98.0281 35.8623L88.2541 14.6945H78.4277L95.798 51.9294H100.267L117.585 14.6945H107.854Z" fill="white"/>
<path d="M138.379 31.9261V38.4606H145.574C144.032 40.6852 141.306 42.1276 138.379 42.1276C133.814 42.1276 129.598 38.4172 129.598 33.3164C129.598 28.1895 133.718 24.453 138.379 24.453C140.914 24.453 142.996 25.4523 144.581 26.9469L151.481 20.0995C148.109 16.7801 143.492 14.7033 138.379 14.7033C128.108 14.7033 119.815 23.0192 119.815 33.3164C119.815 43.5614 128.108 51.886 138.379 51.886C148.649 51.886 156.995 43.5701 156.995 33.3164V31.9261H138.379ZM160.863 33.3598C160.863 43.657 169.156 51.9295 179.426 51.9295C189.697 51.9295 198.042 43.657 198.042 33.3598C198.042 23.0627 189.706 14.6946 179.426 14.6946C169.147 14.6946 160.863 23.0627 160.863 33.3598ZM188.312 33.3077C188.312 38.1826 184.34 42.2232 179.426 42.2232C174.565 42.2232 170.593 38.1913 170.593 33.3077C170.593 28.372 174.565 24.3922 179.426 24.3922C184.34 24.4009 188.312 28.372 188.312 33.3077Z" fill="#15ADAE"/>
<path d="M8.41532 59.0033H6.58595V63.296C5.99358 62.4357 5.09632 61.9752 3.90287 61.9752C1.56824 61.9752 0.0786133 63.687 0.0786133 66.3982C0.0786133 69.118 1.58567 70.8472 3.97256 70.8472C5.2357 70.8472 6.15038 70.378 6.67306 69.4569V70.6126H8.42403V59.0033H8.41532ZM4.25132 63.4698C5.75837 63.4698 6.63821 64.5473 6.63821 66.3895C6.63821 68.249 5.7758 69.3439 4.3123 69.3439C2.8488 69.3439 1.96025 68.2056 1.96025 66.3634C1.96025 64.5646 2.84009 63.4698 4.25132 63.4698ZM12.3267 58.9512H10.4625V60.776H12.3267V58.9512ZM12.3267 62.2011H10.4625V70.6213H12.3267V62.2011ZM22.0833 62.2011H20.3498V63.3742C19.679 62.427 18.9473 61.9752 17.719 61.9752C15.4453 61.9752 13.9557 63.7044 13.9557 66.346C13.9557 68.9094 15.3756 70.5344 17.6144 70.5344C18.8253 70.5344 19.6616 70.1086 20.2975 69.118V70.1086C20.2975 71.8378 19.6267 72.5851 18.0761 72.5851C16.9001 72.5851 16.2903 72.1941 16.1161 71.3252H14.2519C14.461 73.037 15.7415 73.8886 18.0326 73.8886C21.0728 73.8886 22.092 72.4027 22.092 69.6307V62.2011H22.0833ZM18.05 63.4698C19.4525 63.4698 20.3062 64.4951 20.3062 66.207C20.3062 67.971 19.4438 69.0746 18.05 69.0746C16.691 69.0746 15.8112 67.997 15.8112 66.3026C15.8112 64.5299 16.6388 63.4698 18.05 63.4698ZM25.9599 58.9512H24.0956V60.776H25.9599V58.9512ZM25.9599 62.2011H24.0956V70.6213H25.9599V62.2011ZM32.11 62.2011H30.4113V59.6724H28.5471V62.2011H27.1446V63.5567H28.5471V67.5712C28.5471 69.483 28.399 70.6995 30.8556 70.6995C31.326 70.6995 31.5612 70.6995 32.1187 70.63V69.1614C31.84 69.1962 31.6483 69.1962 31.387 69.1962C30.4026 69.1962 30.42 68.7878 30.42 67.9884V63.548H32.1187V62.2011H32.11ZM33.3557 64.7906H35.1241C35.2722 63.6957 35.7949 63.2873 37.0058 63.2873C38.1818 63.2873 38.7393 63.6957 38.7393 64.556C38.7393 64.8688 38.7045 65.06 38.6261 65.1555C38.4431 65.3988 38.0685 65.4858 36.7793 65.6422C35.098 65.8507 32.9986 66.068 32.9986 68.3012C32.9986 69.8479 34.0962 70.8125 35.8472 70.8125C36.9622 70.8125 38.0337 70.5344 38.809 69.8045C38.9397 70.5344 39.4623 70.8125 40.1854 70.8125C40.5425 70.8125 40.8039 70.7777 41.3963 70.63V69.3265C41.1698 69.3613 41.1001 69.3613 40.9694 69.3613C40.6297 69.3613 40.5251 69.231 40.5251 68.7443V64.4691C40.5251 62.6616 39.0529 61.923 37.058 61.923C34.9847 61.9404 33.5648 62.7225 33.3557 64.7906ZM38.7132 66.3895V67.3801C38.7132 67.8841 38.7306 68.4402 38.3386 68.8312C37.9117 69.257 37.1974 69.5003 36.4221 69.5003C35.4552 69.5003 34.8976 69.0398 34.8976 68.2403C34.8976 67.1281 35.882 66.9717 36.7444 66.8413C37.4239 66.7544 38.1121 66.737 38.7132 66.3895ZM44.4365 59.0033H42.5897V70.6126H44.4365V59.0033ZM52.7906 62.2011H51.0222V70.6213H52.8864V65.7812C52.8864 64.4778 53.5049 63.548 54.8116 63.548C56.0574 63.548 56.2054 64.3474 56.2054 65.3554V70.6213H58.0697V65.6769C58.0697 64.3561 58.6882 63.5393 59.9165 63.5393C61.2057 63.5393 61.4235 64.4169 61.4235 65.451V70.6213H63.2877V64.6515C63.2877 62.9223 62.0594 61.9752 60.5262 61.9752C59.3502 61.9752 58.453 62.4791 57.7996 63.4089C57.4076 62.4791 56.5365 61.9752 55.4476 61.9752C54.2715 61.9752 53.4701 62.4791 52.7993 63.3916V62.2011H52.7906ZM65.1519 64.7906H66.9203C67.0684 63.6957 67.5911 63.2873 68.802 63.2873C69.978 63.2873 70.5355 63.6957 70.5355 64.556C70.5355 64.8688 70.5007 65.06 70.4223 65.1555C70.2393 65.3988 69.8648 65.4858 68.5755 65.6422C66.8942 65.8507 64.7948 66.068 64.7948 68.3012C64.7948 69.8479 65.8924 70.8125 67.6434 70.8125C68.7584 70.8125 69.8299 70.5344 70.6052 69.8045C70.7359 70.5344 71.2586 70.8125 71.9816 70.8125C72.3388 70.8125 72.6001 70.7777 73.1925 70.63V69.3265C72.966 69.3613 72.8963 69.3613 72.7656 69.3613C72.4259 69.3613 72.3213 69.231 72.3213 68.7443V64.4691C72.3213 62.6616 70.8491 61.923 68.8542 61.923C66.7897 61.9404 65.3697 62.7225 65.1519 64.7906ZM70.5181 66.3895V67.3801C70.5181 67.8841 70.5355 68.4402 70.1435 68.8312C69.7167 69.257 69.0023 69.5003 68.227 69.5003C67.2601 69.5003 66.7026 69.0398 66.7026 68.2403C66.7026 67.1281 67.6869 66.9717 68.5494 66.8413C69.2288 66.7544 69.917 66.737 70.5181 66.3895ZM79.0987 62.036C78.9158 62.0186 78.8548 62.0012 78.7416 62.0012C77.3826 62.0012 76.4679 62.7225 75.9104 63.8782V62.2011H74.1594V70.6213H76.0062V66.9195C76.0062 65.1555 76.5986 63.7739 78.4454 63.7739C78.6457 63.7739 78.7764 63.7913 79.0987 63.826V62.036ZM87.5748 62.2011H85.2837L81.9125 65.5466V59.0033H80.1005V70.6126H81.9125V67.5973L83.0275 66.5546L85.5973 70.6126H87.871L84.3429 65.2772L87.5748 62.2011ZM96.4168 67.9884H94.631C94.2564 69.0659 93.6466 69.5177 92.6186 69.5177C91.1813 69.5177 90.345 68.5532 90.2927 66.8587H96.5213V66.6588C96.5213 63.7565 94.9881 61.9491 92.5141 61.9491C90.1446 61.9491 88.4285 63.8608 88.4285 66.5024C88.4285 69.0137 89.9791 70.8907 92.5838 70.8907C94.4916 70.8907 95.9899 69.8305 96.4168 67.9884ZM94.6658 65.6248H90.3363C90.5192 64.1389 91.2858 63.3394 92.5141 63.3394C93.7337 63.3394 94.5525 64.2084 94.6658 65.6248ZM102.079 62.2011H100.38V59.6724H98.5162V62.2011H97.1137V63.5567H98.5162V67.5712C98.5162 69.483 98.3681 70.6995 100.825 70.6995C101.295 70.6995 101.53 70.6995 102.088 70.63V69.1614C101.809 69.1962 101.617 69.1962 101.356 69.1962C100.372 69.1962 100.389 68.7878 100.389 67.9884V63.548H102.088V62.2011H102.079ZM105.311 58.9512H103.447V60.776H105.311V58.9512ZM105.311 62.2011H103.447V70.6213H105.311V62.2011ZM109.118 62.2011H107.349V70.6213H109.214V66.0853C109.214 64.1476 110.146 63.5219 111.27 63.5219C112.759 63.5219 112.907 64.5647 112.907 65.7204V70.6126H114.771V64.9991C114.771 63.0874 113.857 61.9665 111.914 61.9665C110.651 61.9665 109.823 62.427 109.118 63.435V62.2011ZM124.458 62.2011H122.725V63.3742C122.054 62.427 121.322 61.9752 120.094 61.9752C117.82 61.9752 116.331 63.7044 116.331 66.346C116.331 68.9094 117.751 70.5344 119.99 70.5344C121.2 70.5344 122.037 70.1086 122.673 69.118V70.1086C122.673 71.8378 122.002 72.5851 120.451 72.5851C119.275 72.5851 118.665 72.1941 118.491 71.3252H116.627C116.836 73.037 118.117 73.8886 120.408 73.8886C123.448 73.8886 124.467 72.4027 124.467 69.6307V62.2011H124.458ZM120.416 63.4698C121.819 63.4698 122.673 64.4951 122.673 66.207C122.673 67.971 121.81 69.0746 120.416 69.0746C119.057 69.0746 118.178 67.997 118.178 66.3026C118.178 64.5299 119.014 63.4698 120.416 63.4698ZM137.656 64.6429C137.656 62.7311 136.053 61.9491 134.128 61.9491C131.968 61.9491 130.678 62.8962 130.678 64.4951C130.678 66.3026 132.203 66.5459 134.128 67.0238C135.191 67.2845 136.14 67.4322 136.14 68.2838C136.14 69.0311 135.417 69.509 134.328 69.509C133.17 69.509 132.386 69.0398 132.281 67.9275H130.495C130.591 69.8479 131.898 70.8646 134.285 70.8646C136.541 70.8646 137.961 69.7871 137.961 68.0926C137.961 66.2331 136.166 65.8594 134.694 65.5118C133.335 65.199 132.534 65.1382 132.534 64.2866C132.534 63.6696 133.091 63.3047 134.041 63.3047C135.034 63.3047 135.74 63.6175 135.87 64.6429H137.656ZM143.362 61.9578C140.749 61.9578 139.059 63.7044 139.059 66.4068C139.059 69.1441 140.722 70.8733 143.362 70.8733C145.949 70.8733 147.578 69.1441 147.578 66.4068C147.578 63.687 145.94 61.9578 143.362 61.9578ZM143.327 63.4263C144.799 63.4263 145.697 64.556 145.697 66.3982C145.697 68.2925 144.817 69.4308 143.344 69.4308C141.837 69.4308 140.94 68.3012 140.94 66.4155C140.94 64.5647 141.855 63.4263 143.327 63.4263ZM151.063 59.0033H149.216V70.6126H151.063V59.0033ZM160.497 62.2011H158.633V66.6501C158.633 68.0405 158.093 69.2744 156.603 69.2744C155.018 69.2744 154.948 68.2317 154.948 67.0064V62.1924H153.084V67.7711C153.084 69.7436 154.094 70.8385 155.958 70.8385C157.134 70.8385 158.014 70.3693 158.737 69.3526V70.6126H160.488V62.2011H160.497ZM166.595 62.2011H164.896V59.6724H163.032V62.2011H161.629V63.5567H163.032V67.5712C163.032 69.483 162.884 70.6995 165.34 70.6995C165.811 70.6995 166.046 70.6995 166.604 70.63V69.1614C166.325 69.1962 166.133 69.1962 165.872 69.1962C164.887 69.1962 164.905 68.7878 164.905 67.9884V63.548H166.604V62.2011H166.595ZM169.836 58.9512H167.971V60.776H169.836V58.9512ZM169.836 62.2011H167.971V70.6213H169.836V62.2011ZM175.768 61.9578C173.155 61.9578 171.465 63.7044 171.465 66.4068C171.465 69.1441 173.128 70.8733 175.768 70.8733C178.355 70.8733 179.984 69.1441 179.984 66.4068C179.984 63.687 178.355 61.9578 175.768 61.9578ZM175.733 63.4263C177.205 63.4263 178.103 64.556 178.103 66.3982C178.103 68.2925 177.223 69.4308 175.75 69.4308C174.243 69.4308 173.346 68.3012 173.346 66.4155C173.346 64.5647 174.261 63.4263 175.733 63.4263ZM183.338 62.2011H181.57V70.6213H183.434V66.0853C183.434 64.1476 184.366 63.5219 185.49 63.5219C186.979 63.5219 187.127 64.5647 187.127 65.7204V70.6126H188.992V64.9991C188.992 63.0874 188.077 61.9665 186.134 61.9665C184.871 61.9665 184.044 62.427 183.338 63.435V62.2011ZM197.625 64.6429C197.625 62.7311 196.022 61.9491 194.096 61.9491C191.936 61.9491 190.647 62.8962 190.647 64.4951C190.647 66.3026 192.171 66.5459 194.096 67.0238C195.159 67.2845 196.109 67.4322 196.109 68.2838C196.109 69.0311 195.386 69.509 194.297 69.509C193.138 69.509 192.354 69.0398 192.25 67.9275H190.464C190.56 69.8479 191.866 70.8646 194.253 70.8646C196.509 70.8646 197.929 69.7871 197.929 68.0926C197.929 66.2331 196.135 65.8594 194.663 65.5118C193.304 65.199 192.502 65.1382 192.502 64.2866C192.502 63.6696 193.06 63.3047 194.009 63.3047C195.002 63.3047 195.708 63.6175 195.839 64.6429H197.625Z" fill="#15ADAE"/>
<path d="M205.847 19.8815H201.196V15.2413H191.761V11.2701L198.739 0.573242H205.847C205.847 9.1238 205.847 12.869 205.847 19.8815ZM201.204 11.1832V4.44879L196.91 11.1832H201.204Z" fill="white"/>
<path d="M223 6.43029C223 8.52448 221.023 11.5919 217.076 15.6239H222.782V19.8731H207.86L215.883 10.5405C216.754 9.54986 217.346 8.76779 217.669 8.21166C217.991 7.64684 218.157 7.09939 218.157 6.56933C218.157 5.89154 217.947 5.30065 217.521 4.80534C217.094 4.31004 216.528 4.05804 215.804 4.05804C214.846 4.05804 214.158 4.50989 213.757 5.41361C213.522 5.94368 213.4 6.5954 213.4 7.3427H208.557C208.557 5.50051 209.045 3.9277 210.02 2.62426C211.327 0.877652 213.304 0 215.944 0C218.235 0 220.012 0.660416 221.284 1.98992C222.425 3.16302 223 4.64892 223 6.43029Z" fill="white"/>
</g>
<defs>
<clipPath id="clip0_19_1741">
<rect width="223" height="74" fill="white"/>
</clipPath>
</defs>
</svg>
