<svg width="50" height="50" viewBox="0 0 50 50" fill="none" xmlns="http://www.w3.org/2000/svg">
<path fill-rule="evenodd" clip-rule="evenodd" d="M11.3745 10.8774C17.1666 5.00059 26.5894 5.00059 32.3815 10.8774C32.9499 11.4546 33.4715 12.0773 33.9411 12.7397L31.3443 15.8768C30.8394 15.555 30.2628 15.3672 29.6676 15.3306C29.0725 15.294 28.4777 15.4098 27.9382 15.6673C27.3986 15.9249 26.9315 16.3159 26.5798 16.8045C26.2281 17.2931 26.0031 17.8635 25.9254 18.4634L20.1082 18.5078C20.0292 17.9581 19.8262 17.4343 19.5151 16.9771C19.204 16.5199 18.7932 16.1417 18.3146 15.8718C17.836 15.602 17.3026 15.4478 16.7557 15.4212C16.2088 15.3947 15.6632 15.4965 15.1614 15.7187C14.6596 15.9409 14.2151 16.2776 13.8624 16.7026C13.5097 17.1275 13.2584 17.6293 13.1279 18.1688C12.9975 18.7084 12.9914 19.2712 13.1102 19.8135C13.2291 20.3559 13.4696 20.8631 13.8131 21.2957L9.65251 25.7505C9.04858 25.3075 8.32222 25.0694 7.57704 25.0701C7.53016 25.0701 7.48383 25.0717 7.43782 25.0732C6.84549 22.5628 6.89629 19.9403 7.58539 17.4555C8.27448 14.9706 9.57893 12.7061 11.3745 10.8774ZM32.0313 18.9356C32.0313 18.4184 31.8801 17.9129 31.597 17.4829C31.3138 17.0529 30.9113 16.7178 30.4404 16.5199C29.9696 16.322 29.4514 16.2703 28.9516 16.3712C28.4517 16.4721 27.9925 16.7212 27.6322 17.0869C27.2718 17.4526 27.0264 17.9185 26.927 18.4257C26.8276 18.933 26.8787 19.4587 27.0738 19.9365C27.2688 20.4142 27.5992 20.8226 28.023 21.1099C28.4468 21.3972 28.945 21.5505 29.4547 21.5504C30.1378 21.5496 30.7928 21.2739 31.2759 20.7837C31.7589 20.2935 32.0306 19.6288 32.0313 18.9356ZM14.0088 19.0329C14.0087 19.55 14.1597 20.0555 14.4427 20.4856C14.7257 20.9156 15.128 21.2509 15.5988 21.4489C16.0696 21.6469 16.5877 21.6988 17.0875 21.5981C17.5874 21.4973 18.0466 21.2484 18.407 20.8828C18.7675 20.5173 19.013 20.0515 19.1125 19.5443C19.2121 19.0371 19.1611 18.5114 18.9662 18.0336C18.7713 17.5558 18.4411 17.1474 18.0174 16.86C17.5937 16.5727 17.0956 16.4192 16.586 16.4191C15.9029 16.4199 15.248 16.6955 14.7649 17.1856C14.2818 17.6756 14.0099 18.34 14.0089 19.0332L14.0088 19.0329ZM5 28.682C4.99992 28.1649 5.15097 27.6594 5.43403 27.2294C5.7171 26.7994 6.11947 26.4642 6.59026 26.2663C7.06106 26.0683 7.57913 26.0165 8.07897 26.1173C8.57881 26.2181 9.03796 26.467 9.39836 26.8326C9.75876 27.1982 10.0042 27.6641 10.1037 28.1712C10.2032 28.6784 10.1522 29.2041 9.95728 29.6818C9.76232 30.1596 9.43212 30.568 9.00842 30.8553C8.58473 31.1427 8.08657 31.2961 7.57696 31.2961C6.89384 31.2954 6.2389 31.0198 5.7558 30.5297C5.2727 30.0397 5.00089 29.3752 5 28.682ZM11.3745 32.1927C12.7538 33.5924 14.3913 34.7026 16.1935 35.4601C17.9956 36.2176 19.9272 36.6075 21.8779 36.6075C23.8286 36.6075 25.7602 36.2176 27.5624 35.4601C29.3646 34.7026 31.0021 33.5924 32.3814 32.1927C37.3444 27.1568 38.0533 19.4138 34.5106 13.6037L32.0976 16.5192C32.4696 16.9379 32.7399 17.4392 32.8867 17.9829C33.0336 18.5267 33.0529 19.0977 32.9433 19.6504C32.8336 20.2031 32.5979 20.722 32.2551 21.1657C31.9123 21.6094 31.4719 21.9655 30.9691 22.2054C30.4663 22.4454 29.9152 22.5626 29.3597 22.5477C28.8043 22.5327 28.2601 22.386 27.7706 22.1193C27.281 21.8526 26.8598 21.4734 26.5407 21.0119C26.2216 20.5504 26.0133 20.0195 25.9327 19.4616L20.1147 19.5056C20.0352 20.1228 19.7996 20.7086 19.431 21.2061C19.0623 21.7036 18.5731 22.0959 18.0109 22.3448C17.4487 22.5938 16.8326 22.6909 16.2224 22.6268C15.6122 22.5627 15.0288 22.3395 14.5288 21.979L10.3647 26.4384C10.8737 27.0876 11.1464 27.8952 11.1366 28.7247C11.1269 29.5543 10.8354 30.355 10.3113 30.9917C10.6443 31.4109 10.9991 31.8117 11.3744 32.1924L11.3745 32.1927ZM33.0763 32.8982C33.4468 32.523 33.7945 32.1338 34.1196 31.7305L35.8795 33.5171L33.6854 35.7434L31.9263 33.9579C32.3239 33.6259 32.7072 33.2728 33.0764 32.8985L33.0763 32.8982ZM33.8756 36.9618L37.0814 33.7089C37.187 33.6024 37.3298 33.5426 37.4787 33.5426C37.6276 33.5426 37.7705 33.6024 37.8761 33.7089L38.6719 34.5157L34.6711 38.5753L33.8757 37.7686C33.7703 37.6615 33.7111 37.5165 33.7111 37.3652C33.7111 37.2139 33.7703 37.0688 33.8757 36.9618H33.8756ZM44.1763 44.1604C43.6453 44.698 42.9257 45 42.1755 45C41.4254 45 40.7058 44.698 40.1748 44.1604L35.3657 39.2808L39.3665 35.2212L44.1763 40.1009C44.704 40.6408 45 41.3704 45 42.1307C45 42.8911 44.704 43.6206 44.1763 44.1605V44.1604ZM34.5926 11.9529L35.1739 12.8028L40.1148 6.83268V12.846C40.1148 12.9784 40.1666 13.1053 40.2588 13.1989C40.351 13.2924 40.4761 13.345 40.6065 13.345C40.7369 13.345 40.862 13.2924 40.9542 13.1989C41.0464 13.1053 41.0982 12.9784 41.0982 12.846V5.49875C41.0982 5.36654 41.0465 5.23974 40.9544 5.14622C40.8623 5.0527 40.7373 5.00012 40.607 5.00004H33.3657C33.3006 4.99921 33.236 5.0115 33.1756 5.0362C33.1152 5.06089 33.0603 5.09751 33.014 5.14392C32.9677 5.19033 32.9309 5.24561 32.9058 5.30656C32.8807 5.3675 32.8678 5.43289 32.8678 5.49895C32.8678 5.565 32.8807 5.63039 32.9058 5.69134C32.9309 5.75228 32.9677 5.80756 33.014 5.85397C33.0603 5.90038 33.1152 5.937 33.1756 5.9617C33.236 5.9864 33.3006 5.99869 33.3657 5.99785H39.5219L34.5926 11.9529Z" fill="#15ADAE"/>
</svg>
