<svg width="50" height="50" viewBox="0 0 50 50" fill="none" xmlns="http://www.w3.org/2000/svg">
<path d="M40.5566 34.411C40.6023 34.647 40.5498 34.8704 40.4009 35.061C38.2926 37.7511 35.5083 39.8918 32.3018 41.2314C32.4363 40.6552 32.5057 40.0556 32.5057 39.4391C32.5057 35.0518 28.9201 31.4925 24.5004 31.4925C20.0782 31.4925 16.4926 35.0518 16.4926 39.4391C16.4926 40.0556 16.5646 40.6552 16.6965 41.2314C13.49 39.891 10.7057 37.7511 8.59993 35.061C8.44848 34.8704 8.39603 34.647 8.44425 34.411C8.48994 34.1733 8.62446 33.9869 8.83512 33.8685L24.0926 25.1215C24.3515 24.9737 24.6468 24.9737 24.9057 25.1215L40.1657 33.8676C40.3764 33.9869 40.5084 34.1725 40.5566 34.411ZM22.673 21.3027V3.80794C22.673 3.56774 22.5774 3.35778 22.3946 3.20073C22.2127 3.04116 21.9919 2.97649 21.7516 3.00757C18.9267 3.39054 16.2913 4.35468 13.9672 5.77401C16.7109 7.03546 18.6154 9.79266 18.6154 12.9925C18.6154 17.3798 15.0298 20.9391 10.6076 20.9391C8.34104 20.9391 6.29531 20.0035 4.84012 18.501C4.53301 19.8867 4.36972 21.3271 4.36972 22.8052C4.36972 25.4742 4.89765 28.0215 5.85452 30.3495C5.94843 30.5729 6.11341 30.7308 6.34353 30.8064C6.57366 30.8853 6.80124 30.8635 7.01275 30.7417L22.2677 21.9998C22.5241 21.8528 22.673 21.5983 22.673 21.3027ZM38.3907 20.9391C33.9685 20.9391 30.3829 17.3798 30.3829 12.9925C30.3829 9.79266 32.2874 7.0363 35.0311 5.77401C32.707 4.35468 30.0716 3.39054 27.2484 3.00757C27.0064 2.97649 26.7856 3.04116 26.6028 3.20073C26.4209 3.35778 26.3245 3.56774 26.3245 3.80794V21.3036C26.3245 21.5983 26.4734 21.8537 26.7297 22.0015L41.9847 30.7434C42.1954 30.8652 42.4238 30.8862 42.6539 30.8081C42.8841 30.7316 43.0524 30.5746 43.1429 30.3512C44.0998 28.0231 44.6277 25.4759 44.6277 22.8069C44.6277 21.3288 44.467 19.8884 44.1599 18.5027C42.703 20.0035 40.6573 20.9391 38.3907 20.9391ZM37.5159 15.6254C36.8399 15.6254 36.2257 15.8992 35.7798 16.3418C35.334 16.7844 35.0582 17.3941 35.0582 18.0651V18.6555C36.037 19.2241 37.1758 19.5508 38.3916 19.5508C39.6073 19.5508 40.747 19.2249 41.725 18.6555V18.0651C41.725 17.3941 41.4492 16.7844 41.0033 16.3418C40.5574 15.8992 39.9432 15.6254 39.2672 15.6254H37.5159ZM38.3907 6.43077C42.0405 6.43077 45 9.36854 45 12.9916C45 14.7864 44.2707 16.4148 43.093 17.6007C42.9847 16.7315 42.5846 15.9512 41.9898 15.3608C41.2918 14.668 40.3256 14.2371 39.2655 14.2371H37.5151C36.4524 14.2371 35.4888 14.668 34.7908 15.3608C34.1818 15.9644 33.7934 16.7528 33.6876 17.6007C32.5099 16.4148 31.7806 14.7864 31.7806 12.9916C31.7815 9.36854 34.7409 6.43077 38.3907 6.43077ZM35.4507 11.28C35.4507 12.0871 35.779 12.8153 36.312 13.3444C36.8442 13.8726 37.5785 14.1993 38.3916 14.1993C39.2046 14.1993 39.9381 13.8735 40.4711 13.3444C41.0033 12.8161 41.3324 12.0871 41.3324 11.28C41.3324 10.4755 41.0041 9.74479 40.4711 9.21569C39.939 8.68743 39.2046 8.36073 38.3916 8.36073C37.5785 8.36073 36.845 8.68659 36.312 9.21569C35.779 9.74479 35.4507 10.4755 35.4507 11.28ZM38.3907 12.8136C38.818 12.8136 39.2038 12.6423 39.4821 12.3634C39.6255 12.2212 39.7391 12.0523 39.8165 11.8664C39.8939 11.6805 39.9335 11.4812 39.9331 11.28C39.9331 10.8584 39.7605 10.4755 39.4821 10.1966C39.2038 9.92032 38.818 9.74899 38.3907 9.74899C37.9635 9.74899 37.5777 9.92032 37.2993 10.1966C37.0184 10.4755 36.8459 10.8584 36.8459 11.28C36.8459 11.7041 37.0184 12.0871 37.2993 12.3634C37.4421 12.5065 37.6122 12.62 37.7995 12.6972C37.9869 12.7745 38.1878 12.8141 38.3907 12.8136ZM9.73193 15.6254C9.05763 15.6254 8.44172 15.8992 7.99585 16.3418C7.54999 16.7844 7.27418 17.3941 7.27418 18.0651V18.6555C8.25305 19.2241 9.39182 19.5508 10.6076 19.5508C11.8233 19.5508 12.9647 19.2249 13.9435 18.6555V18.0651C13.9435 17.3941 13.6652 16.7844 13.2193 16.3418C12.7734 15.8992 12.1592 15.6254 11.4832 15.6254H9.73193ZM5.90444 17.6007C4.72675 16.4148 4 14.7864 4 12.9916C4 9.36854 6.95691 6.43077 10.6067 6.43077C14.2566 6.43077 17.216 9.36854 17.216 12.9916C17.216 14.7864 16.4893 16.4148 15.309 17.6007C15.2033 16.7315 14.8006 15.9512 14.2058 15.3608C13.5078 14.668 12.5442 14.2371 11.4815 14.2371H9.73193C8.67184 14.2371 7.7082 14.668 7.00768 15.3608C6.41545 15.9512 6.01273 16.7323 5.90444 17.6007ZM7.66759 11.28C7.66759 12.0871 7.99585 12.8153 8.52886 13.3444C9.06102 13.8726 9.79792 14.1993 10.6084 14.1993C11.4215 14.1993 12.155 13.8735 12.688 13.3444C13.2202 12.8161 13.551 12.0871 13.551 11.28C13.551 10.4755 13.2202 9.74479 12.688 9.21569C12.1558 8.68659 11.4206 8.36157 10.6076 8.36157C9.79707 8.36157 9.06102 8.68743 8.52801 9.21653C7.99501 9.74563 7.66759 10.4755 7.66759 11.28ZM10.6076 12.8136C11.0348 12.8136 11.4206 12.6423 11.699 12.3634C11.9799 12.0871 12.1525 11.7041 12.1525 11.28C12.1525 10.8584 11.9799 10.4755 11.699 10.1966C11.5557 10.0543 11.3856 9.94152 11.1983 9.8647C11.011 9.78788 10.8102 9.74855 10.6076 9.74899C10.1829 9.74899 9.79707 9.92032 9.51619 10.1966C9.23784 10.4755 9.06525 10.8584 9.06525 11.28C9.06525 11.7041 9.23784 12.0871 9.51619 12.3634C9.79707 12.6423 10.1829 12.8136 10.6076 12.8136ZM25.3761 42.0746H23.6256C22.9496 42.0746 22.3354 42.3484 21.8895 42.791C21.4437 43.2336 21.1653 43.8433 21.1653 44.5143V45.1047C22.1434 45.6741 23.2847 46 24.5004 46C25.7162 46 26.8558 45.6741 27.8338 45.1047V44.5143C27.8338 43.8433 27.558 43.2336 27.1122 42.791C26.6663 42.3484 26.0495 42.0746 25.3761 42.0746ZM31.1072 39.4391C31.1072 41.2364 30.3804 42.8649 29.2027 44.0482C29.0944 43.1815 28.6917 42.4004 28.0995 41.81C27.399 41.1171 26.4353 40.6863 25.3752 40.6863H23.6248C22.5621 40.6863 21.5985 41.1171 20.9005 41.81C20.3057 42.4004 19.903 43.1815 19.7973 44.0482C18.6171 42.8649 17.8903 41.2364 17.8903 39.4391C17.8903 35.8161 20.8498 32.8783 24.4996 32.8783C28.1494 32.8783 31.1072 35.8152 31.1072 39.4391ZM27.4404 37.7292C27.4404 36.9221 27.1122 36.194 26.5791 35.6649C26.047 35.1366 25.3101 34.8099 24.4996 34.8099C23.6865 34.8099 22.953 35.1358 22.42 35.6649C21.8878 36.1931 21.557 36.9221 21.557 37.7292C21.557 38.5363 21.8878 39.2645 22.42 39.7936C22.9522 40.3218 23.6865 40.6485 24.4996 40.6485C25.3101 40.6485 26.0461 40.3227 26.5791 39.7936C26.8529 39.5229 27.0699 39.2012 27.2177 38.8469C27.3655 38.4926 27.4412 38.1127 27.4404 37.7292ZM24.5004 36.1965C24.0732 36.1965 23.6874 36.3678 23.409 36.6467C23.1281 36.923 22.9556 37.3059 22.9556 37.7301C22.9556 38.1542 23.1281 38.5371 23.409 38.8135C23.5523 38.9558 23.7224 39.0686 23.9097 39.1454C24.097 39.2222 24.2978 39.2615 24.5004 39.2611C24.9251 39.2611 25.3109 39.0898 25.5918 38.8135C25.8702 38.5371 26.0428 38.1542 26.0428 37.7301C26.0428 37.3059 25.8702 36.923 25.5918 36.6467C25.3109 36.3678 24.9251 36.1965 24.5004 36.1965Z" fill="#15ADAE"/>
</svg>
