<svg width="50" height="50" viewBox="0 0 50 50" fill="none" xmlns="http://www.w3.org/2000/svg">
<path d="M40.2957 35.4186C40.0802 35.206 39.8022 35.0684 39.5025 35.026C39.2028 34.9835 38.8974 35.0385 38.6314 35.1829L37.0743 33.6257C36.1538 34.9834 34.9841 36.1541 33.6271 37.0757L35.1829 38.6314C35.0385 38.8974 34.9835 39.2028 35.026 39.5025C35.0684 39.8022 35.206 40.0802 35.4186 40.2957L39.1129 43.99C39.7643 44.6414 40.63 45 41.5514 45C42.4729 45 43.3371 44.6414 43.99 43.99C44.6429 43.3386 45 42.4729 45 41.5514C45 40.63 44.6414 39.7643 43.99 39.1129L40.2957 35.4186ZM22.1429 42.1429V38.5714C22.1429 38.382 22.0676 38.2003 21.9336 38.0664C21.7997 37.9324 21.618 37.8571 21.4286 37.8571H18.5714C18.382 37.8571 18.2003 37.9324 18.0664 38.0664C17.9324 38.2003 17.8571 38.382 17.8571 38.5714V42.1429H16.4286V32.8571C16.4286 32.6677 16.3533 32.486 16.2194 32.3521C16.0854 32.2181 15.9037 32.1429 15.7143 32.1429H12.8571C12.6677 32.1429 12.486 32.2181 12.3521 32.3521C12.2181 32.486 12.1429 32.6677 12.1429 32.8571V42.1429H10.7143V25.7143C10.7143 25.5248 10.639 25.3432 10.5051 25.2092C10.3711 25.0753 10.1894 25 10 25H7.14286C6.95342 25 6.77174 25.0753 6.63778 25.2092C6.50383 25.3432 6.42857 25.5248 6.42857 25.7143V42.1429C6.04969 42.1429 5.68633 42.2934 5.41842 42.5613C5.15051 42.8292 5 43.1926 5 43.5714C5 43.9503 5.15051 44.3137 5.41842 44.5816C5.68633 44.8495 6.04969 45 6.42857 45H22.1429C22.5217 45 22.8851 44.8495 23.153 44.5816C23.4209 44.3137 23.5714 43.9503 23.5714 43.5714C23.5714 43.1926 23.4209 42.8292 23.153 42.5613C22.8851 42.2934 22.5217 42.1429 22.1429 42.1429ZM40.7143 5V9.28571H45L40.7143 5Z" fill="#15ADAE"/>
<path d="M39.2856 9.28571V5H30.7142C30.3353 5 29.972 5.15051 29.7041 5.41842C29.4362 5.68633 29.2856 6.04969 29.2856 6.42857V15.2C30.5514 15.4286 31.7499 15.8429 32.8485 16.43L32.8571 16.4286H41.4285C41.6179 16.4286 41.7996 16.5038 41.9336 16.6378C42.0675 16.7717 42.1428 16.9534 42.1428 17.1429C42.1428 17.3323 42.0675 17.514 41.9336 17.6479C41.7996 17.7819 41.6179 17.8571 41.4285 17.8571H34.9514C35.4671 18.2929 35.9456 18.7714 36.3842 19.2857H41.4285C41.6179 19.2857 41.7996 19.361 41.9336 19.4949C42.0675 19.6289 42.1428 19.8106 42.1428 20C42.1428 20.1894 42.0675 20.3711 41.9336 20.5051C41.7996 20.639 41.6179 20.7143 41.4285 20.7143H37.4256C37.7114 21.1714 37.9699 21.6471 38.1956 22.1429H41.4285C41.6179 22.1429 41.7996 22.2181 41.9336 22.3521C42.0675 22.486 42.1428 22.6677 42.1428 22.8571C42.1428 23.0466 42.0675 23.2283 41.9336 23.3622C41.7996 23.4962 41.6179 23.5714 41.4285 23.5714H38.7485C39.0293 24.5003 39.1971 25.4596 39.2485 26.4286H43.5714C43.9502 26.4286 44.3136 26.2781 44.5815 26.0102C44.8494 25.7422 44.9999 25.3789 44.9999 25V10.7143H40.7142C40.3353 10.7143 39.972 10.5638 39.7041 10.2959C39.4362 10.028 39.2856 9.6646 39.2856 9.28571ZM42.1428 14.2857C42.1428 14.4752 42.0675 14.6568 41.9336 14.7908C41.7996 14.9247 41.6179 15 41.4285 15H32.8571C32.6676 15 32.486 14.9247 32.352 14.7908C32.218 14.6568 32.1428 14.4752 32.1428 14.2857C32.1428 14.0963 32.218 13.9146 32.352 13.7806C32.486 13.6467 32.6676 13.5714 32.8571 13.5714H41.4285C41.6179 13.5714 41.7996 13.6467 41.9336 13.7806C42.0675 13.9146 42.1428 14.0963 42.1428 14.2857Z" fill="#15ADAE"/>
<path d="M37.8573 27.1429C37.8573 24.3013 36.7285 21.576 34.7191 19.5667C32.7098 17.5574 29.9846 16.4286 27.143 16.4286C24.3014 16.4286 21.5762 17.5574 19.5669 19.5667C17.5575 21.576 16.4287 24.3013 16.4287 27.1429C16.4287 29.9845 17.5575 32.7097 19.5669 34.719C21.5762 36.7283 24.3014 37.8572 27.143 37.8572C29.9846 37.8572 32.7098 36.7283 34.7191 34.719C36.7285 32.7097 37.8573 29.9845 37.8573 27.1429ZM27.143 35C22.8116 35 19.2859 31.4743 19.2859 27.1429C19.2859 22.8114 22.8116 19.2857 27.143 19.2857C31.4744 19.2857 35.0001 22.8114 35.0001 27.1429C35.0001 31.4743 31.4744 35 27.143 35Z" fill="#15ADAE"/>
<path d="M27.8572 20.7858V26.4286H33.5C33.3401 24.987 32.6942 23.6428 31.6686 22.6172C30.643 21.5916 29.2988 20.9457 27.8572 20.7858Z" fill="#15ADAE"/>
<path d="M26.4286 27.1429V20.7858C23.2186 21.1458 20.7144 23.8372 20.7144 27.1429C20.7144 28.8479 21.3917 30.483 22.5972 31.6886C23.8028 32.8942 25.438 33.5715 27.1429 33.5715C30.4486 33.5715 33.1401 31.0672 33.5001 27.8572H27.1429C26.9535 27.8572 26.7718 27.7819 26.6379 27.648C26.5039 27.514 26.4286 27.3323 26.4286 27.1429Z" fill="#15ADAE"/>
</svg>
