<svg width="50" height="50" viewBox="0 0 50 50" fill="none" xmlns="http://www.w3.org/2000/svg">
<path d="M43 19.9571C43 18.8048 42.5422 17.6997 41.7275 16.8849C40.9127 16.0702 39.8076 15.6124 38.6553 15.6124H33.0688C31.9165 15.6124 30.8114 16.0702 29.9966 16.8849C29.1819 17.6997 28.7241 18.8048 28.7241 19.9571V21.5093C28.7241 22.0032 28.9203 22.4768 29.2695 22.826C29.6187 23.1751 30.0923 23.3713 30.5861 23.3713H41.138C41.6318 23.3713 42.1054 23.1751 42.4546 22.826C42.8038 22.4768 43 22.0032 43 21.5093V19.9571Z" fill="#15ADAE"/>
<path d="M35.8618 14.759C38.0042 14.759 39.7409 13.0223 39.7409 10.8799C39.7409 8.73748 38.0042 7.00073 35.8618 7.00073C33.7194 7.00073 31.9827 8.73748 31.9827 10.8799C31.9827 13.0223 33.7194 14.759 35.8618 14.759Z" fill="#15ADAE"/>
<path d="M21.2768 39.5855C21.2768 38.4332 20.8191 37.3281 20.0043 36.5134C19.1895 35.6986 18.0845 35.2408 16.9322 35.2408H11.3456C10.1933 35.2408 9.08827 35.6986 8.27349 36.5134C7.45871 37.3281 7.00098 38.4332 7.00098 39.5855V41.1371C7.00098 41.6312 7.19711 42.1047 7.54654 42.4536C7.71932 42.6266 7.92453 42.7638 8.15042 42.8574C8.37631 42.9511 8.61844 42.9992 8.86296 42.9991H19.4148C19.9087 42.9991 20.3823 42.8029 20.7315 42.4538C21.0806 42.1046 21.2768 41.631 21.2768 41.1371V39.5855Z" fill="#15ADAE"/>
<path d="M14.1384 34.3868C16.2808 34.3868 18.0175 32.6501 18.0175 30.5077C18.0175 28.3653 16.2808 26.6285 14.1384 26.6285C11.996 26.6285 10.2593 28.3653 10.2593 30.5077C10.2593 32.6501 11.996 34.3868 14.1384 34.3868Z" fill="#15ADAE"/>
<path d="M9.17278 21.8551L9.16347 21.8973C9.08738 22.3022 9.17511 22.7208 9.40739 23.061C9.64014 23.4005 9.99826 23.6345 10.4029 23.7102L13.451 24.2856C13.6512 24.3237 13.857 24.3219 14.0565 24.2804C14.256 24.2388 14.4454 24.1583 14.6137 24.0435C14.7821 23.9286 14.9261 23.7817 15.0376 23.6111C15.1491 23.4405 15.2258 23.2495 15.2633 23.0492C16.1614 18.295 20.3161 14.9738 24.9823 14.9602C25.3429 14.96 25.6922 14.8339 25.9699 14.6038C26.2476 14.3737 26.4363 14.0539 26.5035 13.6996L26.5041 13.6977C26.6264 13.051 26.9498 11.3392 27.0882 10.5994C27.1293 10.3814 27.1231 10.1571 27.07 9.94173C27.0169 9.72635 26.9182 9.52488 26.7805 9.35097C26.6428 9.17707 26.4693 9.03477 26.2718 8.93373C26.0743 8.83269 25.8574 8.77526 25.6358 8.76532L25.6265 8.7647C17.7901 8.46306 10.6915 13.9267 9.17278 21.8551ZM40.8278 28.1449L40.8371 28.1027C40.9132 27.6978 40.8255 27.2792 40.5932 26.9389C40.3604 26.5992 40.0024 26.3657 39.5976 26.2897L36.5496 25.7144C36.3494 25.6762 36.1436 25.678 35.9441 25.7196C35.7446 25.7611 35.5552 25.8416 35.3868 25.9565C35.2185 26.0713 35.0744 26.2183 34.963 26.3889C34.8515 26.5595 34.7748 26.7504 34.7372 26.9507C33.8391 31.705 29.6844 35.0261 25.0183 35.0398C24.6576 35.04 24.3083 35.166 24.0306 35.3961C23.7529 35.6262 23.5642 35.946 23.497 36.3004L23.4964 36.3022C23.3741 36.949 23.0508 38.6607 22.9124 39.4006C22.8711 39.6193 22.8774 39.8445 22.931 40.0606C22.9846 40.2766 23.0841 40.4786 23.2229 40.6528C23.3616 40.8269 23.5363 40.9691 23.7349 41.0696C23.9336 41.1701 24.1516 41.2266 24.374 41.2352C32.2105 41.5369 39.309 36.0732 40.8278 28.1449Z" fill="#15ADAE"/>
</svg>
