<svg width="24" height="24" viewBox="0 0 24 24" fill="none" xmlns="http://www.w3.org/2000/svg">
<g clip-path="url(#clip0_19_1761)">
<path d="M2.068 6.20412L10.943 13.4159C11.2056 13.6293 11.5562 13.7561 11.9272 13.7715C12.2981 13.787 12.6629 13.6901 12.951 13.4996L13.065 13.4159L21.934 6.209C21.963 6.29837 21.982 6.38937 21.992 6.48281L22 6.625V16.375C22.0002 16.785 21.8096 17.1798 21.4665 17.4804C21.1234 17.7811 20.6532 17.9652 20.15 17.9959L20 18H4C3.49542 18.0001 3.00943 17.8453 2.63945 17.5665C2.26947 17.2878 2.04284 16.9057 2.005 16.4969L2 16.375V6.625C2 6.5275 2.01 6.43325 2.03 6.34063L2.068 6.20412ZM20 5C20.121 5 20.24 5.00813 20.355 5.02519L20.525 5.05688L12.005 11.9794L3.482 5.05525C3.592 5.03087 3.706 5.01462 3.822 5.0065L4 5H20Z" fill="white"/>
</g>
<defs>
<clipPath id="clip0_19_1761">
<rect width="24" height="24" fill="white"/>
</clipPath>
</defs>
</svg>
